<svg width="900" height="675" viewBox="0 0 900 675" xmlns="http://www.w3.org/2000/svg" role="img" aria-label="Lexus black SUV">
  <defs>
    <linearGradient id="bg" x1="0" x2="1" y1="0" y2="1"><stop stop-color="#FAF8F4"/><stop offset="1" stop-color="#DFD8CE"/></linearGradient>
    <linearGradient id="body" x1="0" x2="1"><stop stop-color="#111317"/><stop offset="0.5" stop-color="#343A41"/><stop offset="1" stop-color="#07080A"/></linearGradient>
  </defs>
  <rect width="900" height="675" fill="url(#bg)"/>
  <g opacity="0.32" fill="#B9B4AC"><rect x="70" y="80" width="145" height="245"/><rect x="247" y="118" width="130" height="208"/><rect x="420" y="54" width="155" height="272"/><rect x="620" y="102" width="115" height="224"/><rect x="772" y="62" width="70" height="264"/></g>
  <rect x="0" y="420" width="900" height="255" fill="#EAE6DF"/>
  <ellipse cx="450" cy="518" rx="338" ry="34" fill="#BDB6AC" opacity="0.42"/>
  <g transform="translate(105 278)">
    <path d="M34 144 C76 80 154 37 287 28 H472 C594 30 662 73 720 142 L740 188 H14 Z" fill="url(#body)"/>
    <path d="M160 55 H475 C552 58 612 84 656 126 H95 C116 90 137 65 160 55 Z" fill="#08090B"/>
    <path d="M588 140 L704 154 L672 184 H572 Z" fill="#151719"/>
    <circle cx="176" cy="196" r="60" fill="#101114"/><circle cx="176" cy="196" r="31" fill="#A4A8AC"/>
    <circle cx="575" cy="196" r="60" fill="#101114"/><circle cx="575" cy="196" r="31" fill="#A4A8AC"/>
    <path d="M48 150 H144" stroke="#F5EFE6" stroke-width="8" stroke-linecap="round" opacity="0.8"/>
    <path d="M636 151 H722" stroke="#D9A45F" stroke-width="8" stroke-linecap="round" opacity="0.78"/>
  </g>
</svg>
