<svg width="900" height="675" viewBox="0 0 900 675" xmlns="http://www.w3.org/2000/svg" role="img" aria-label="Mercedes-Benz black van">
  <defs>
    <linearGradient id="bg" x1="0" x2="1" y1="0" y2="1"><stop stop-color="#F8F6F2"/><stop offset="1" stop-color="#DCD6CD"/></linearGradient>
    <linearGradient id="body" x1="0" x2="1"><stop stop-color="#0F1115"/><stop offset="0.45" stop-color="#3A3E43"/><stop offset="1" stop-color="#050608"/></linearGradient>
  </defs>
  <rect width="900" height="675" fill="url(#bg)"/>
  <g opacity="0.34" fill="#BAB3AA"><rect x="55" y="70" width="120" height="255"/><rect x="208" y="105" width="110" height="220"/><rect x="356" y="58" width="180" height="268"/><rect x="582" y="92" width="145" height="234"/><rect x="765" y="58" width="72" height="268"/></g>
  <rect x="0" y="420" width="900" height="255" fill="#E8E4DD"/>
  <ellipse cx="456" cy="520" rx="350" ry="35" fill="#BDB7AD" opacity="0.42"/>
  <g transform="translate(86 246)">
    <path d="M78 77 C122 42 192 28 304 28 H554 C648 30 704 65 732 130 L750 203 H30 Z" fill="url(#body)"/>
    <path d="M198 61 H535 C602 64 646 88 674 128 H118 C138 90 162 69 198 61 Z" fill="#08090B"/>
    <rect x="318" y="61" width="118" height="78" fill="#15191D" opacity="0.88"/>
    <circle cx="190" cy="207" r="62" fill="#101114"/><circle cx="190" cy="207" r="31" fill="#9EA2A7"/>
    <circle cx="600" cy="207" r="62" fill="#101114"/><circle cx="600" cy="207" r="31" fill="#9EA2A7"/>
    <path d="M52 154 H158" stroke="#F5EFE6" stroke-width="8" stroke-linecap="round" opacity="0.8"/>
    <path d="M650 157 H732" stroke="#D9A45F" stroke-width="8" stroke-linecap="round" opacity="0.78"/>
  </g>
</svg>
