<svg width="549" height="222" viewBox="0 0 549 222" fill="none" xmlns="http://www.w3.org/2000/svg">
<path d="M29.5038 170.976C29.5038 155.105 41.7245 144.176 57.2554 144.176C61.2307 144.085 65.1679 144.967 68.7244 146.745C72.2809 148.524 75.3488 151.144 77.6611 154.379L71.9928 157.406C70.2855 155.081 68.0567 153.189 65.4854 151.881C62.9141 150.574 60.072 149.888 57.1874 149.879C45.3748 149.879 36.3964 158.574 36.3964 170.93C36.3964 183.287 45.3748 191.971 57.1874 191.971C60.0751 191.978 62.9232 191.3 65.4972 189.991C68.0713 188.683 70.2976 186.781 71.9928 184.443L77.7291 187.47C75.3873 190.707 72.2943 193.327 68.7162 195.104C65.138 196.881 61.1817 197.763 57.1874 197.673C41.6565 197.673 29.4358 186.801 29.4358 170.885" fill="white"/>
<path d="M57.2555 198.444C40.7836 198.444 28.835 186.892 28.835 170.976C28.835 155.059 40.7836 143.496 57.2555 143.496C61.3503 143.405 65.4052 144.317 69.0666 146.153C72.7281 147.989 75.8849 150.692 78.2619 154.028L78.7267 154.651L71.8568 158.336L71.5054 157.848C69.8702 155.601 67.7269 153.773 65.2504 152.512C62.7739 151.251 60.0344 150.593 57.2555 150.593C45.6016 150.593 37.1446 159.163 37.1446 170.998C37.1446 182.834 45.6016 191.404 57.2555 191.404C60.0354 191.416 62.7782 190.765 65.2563 189.505C67.7345 188.245 69.8767 186.413 71.5054 184.16L71.8455 183.661L78.8287 187.346L78.3413 187.98C75.935 191.304 72.7608 193.996 69.0893 195.828C65.4178 197.66 61.3578 198.577 57.2555 198.501M57.2555 144.902C41.5658 144.902 30.184 155.887 30.184 170.976C30.184 186.065 41.5205 197.05 57.2555 197.05C61.0053 197.123 64.7203 196.319 68.1039 194.701C71.4875 193.083 74.4459 190.696 76.7428 187.731L72.2082 185.362C70.4341 187.651 68.1584 189.503 65.5563 190.774C62.9542 192.046 60.095 192.703 57.1988 192.696C44.7287 192.696 35.7275 183.559 35.7275 170.976C35.7275 158.392 44.7967 149.244 57.1988 149.244C60.0962 149.25 62.954 149.917 65.5548 151.194C68.1557 152.471 70.4312 154.324 72.2082 156.612L76.6635 154.243C74.3882 151.26 71.44 148.856 68.0593 147.229C64.6786 145.602 60.9612 144.797 57.2101 144.879" fill="white"/>
<path d="M124.877 196.834L120.105 185.339H93.2487L88.476 196.834H80.7899L102.477 145.027H110.809L132.564 196.834H124.877ZM106.682 151.704L95.1986 179.591H118.087L106.682 151.704Z" fill="white"/>
<path d="M133.584 197.514H124.435L119.663 186.019H93.7475L88.9748 197.514H79.8263L102.068 144.346H111.296L133.584 197.514ZM125.331 196.154H131.543L110.355 145.707H102.93L81.8102 196.154H88.0792L92.8519 184.659H120.615L125.331 196.154ZM119.096 180.283H94.1556L106.626 149.935L119.096 180.283ZM96.2075 178.923H117.078L106.682 153.495L96.2075 178.923Z" fill="white"/>
<path d="M170.835 196.834L157.084 176.247H146.326V196.834H139.615V145.027H161.29C171.164 145.027 178.204 151.092 178.204 160.637C178.204 169.955 171.572 175.091 164.204 175.703L178.771 196.834H170.835ZM171.243 160.637C171.243 154.81 166.879 150.774 160.485 150.774H146.315V170.579H160.474C166.868 170.579 171.232 166.464 171.232 160.637" fill="white"/>
<path d="M180.041 197.514H170.473L156.71 176.927H147.029V197.514H138.957V144.346H161.313C171.833 144.346 178.907 150.899 178.907 160.637C178.907 170.137 172.309 175.227 165.428 176.247L180.041 197.514ZM171.187 196.154H177.467L162.979 175.136L164.113 175.034C170.779 174.467 177.49 169.808 177.49 160.637C177.49 151.704 170.971 145.707 161.256 145.707H140.284V196.154H145.646V175.578H157.436L171.187 196.154ZM160.474 171.214H145.646V150.094H160.474C167.208 150.094 171.912 154.436 171.912 160.637C171.912 166.838 167.208 171.259 160.474 171.259M147.029 169.91H160.508C166.448 169.91 170.586 166.09 170.586 160.637C170.586 155.184 166.539 151.454 160.508 151.454H147.029V169.91Z" fill="white"/>
<path d="M209.663 196.834V145.027H216.374V191.087H241.45V196.834H209.663Z" fill="white"/>
<path d="M242.13 197.514H208.983V144.358H217.043V190.406H242.13V197.514ZM210.388 196.154H240.827V191.755H215.694V145.707H210.332L210.388 196.154Z" fill="white"/>
<path d="M248.728 170.976C248.728 155.671 259.486 144.176 275.505 144.176C291.523 144.176 302.338 155.671 302.338 170.976C302.338 186.28 291.501 197.764 275.562 197.764C259.623 197.764 248.785 186.269 248.785 170.976M295.378 170.976C295.378 158.857 287.612 149.924 275.562 149.924C263.511 149.924 255.745 158.857 255.745 170.976C255.745 183.094 263.432 192.016 275.562 192.016C287.692 192.016 295.378 183.015 295.378 170.976Z" fill="white"/>
<path d="M275.505 198.444C259.634 198.444 248.048 186.892 248.048 170.976C248.048 155.059 259.6 143.496 275.505 143.496C291.41 143.496 302.962 155.048 302.962 170.976C302.962 186.903 291.41 198.444 275.505 198.444ZM275.505 144.845C260.133 144.845 249.431 155.592 249.431 170.919C249.431 186.246 260.155 196.993 275.505 196.993C290.628 196.993 301.579 186.008 301.579 170.919C301.579 155.83 290.605 144.845 275.505 144.845ZM275.505 192.696C263.432 192.696 255.009 183.763 255.009 170.976C255.009 158.188 263.432 149.244 275.505 149.244C287.578 149.244 296.001 158.177 296.001 170.976C296.001 183.775 287.567 192.696 275.505 192.696ZM275.505 150.593C264.055 150.593 256.358 158.789 256.358 170.998C256.358 183.208 264.055 191.404 275.505 191.404C286.773 191.404 294.652 183.026 294.652 170.998C294.652 158.97 286.717 150.593 275.505 150.593Z" fill="white"/>
<path d="M312.791 176.723V144.981H319.513V176.565C319.513 186.042 324.852 192.016 334.795 192.016C344.737 192.016 350.087 186.042 350.087 176.565V145.027H356.753V176.644C356.753 189.533 349.396 197.764 334.749 197.764C320.103 197.764 312.745 189.454 312.745 176.723" fill="white"/>
<path d="M334.795 198.444C320.386 198.444 312.122 190.508 312.122 176.723V144.358H320.182V176.565C320.182 185.951 325.51 191.302 334.795 191.302C344.079 191.302 349.407 185.906 349.407 176.565V144.358H357.479V176.644C357.479 190.497 349.215 198.444 334.806 198.444M313.482 145.707V176.723C313.482 189.67 321.259 197.129 334.806 197.129C348.568 197.129 356.141 189.862 356.141 176.723V145.707H350.779V176.565C350.779 186.665 344.805 192.696 334.806 192.696C324.807 192.696 318.844 186.665 318.844 176.565V145.707H313.482Z" fill="white"/>
<path d="M407.609 196.834L376.139 155.513V196.834H369.416V145.027H376.297L407.359 185.498V145.027H414.07V196.834H407.609Z" fill="white"/>
<path d="M414.751 197.514H407.269L407.064 197.242L376.807 157.565V197.56H368.747V144.358H376.626L406.634 183.503V144.358H414.705L414.751 197.514ZM407.949 196.154H413.436V145.707H408.073V187.493L376.025 145.707H370.153V196.154H375.515V153.506L407.949 196.154Z" fill="white"/>
<path d="M424.511 170.976C424.511 154.889 436.891 144.176 452.252 144.176C456.256 144.075 460.23 144.898 463.865 146.581C467.5 148.263 470.699 150.761 473.213 153.88L467.851 157.066C465.93 154.802 463.535 152.989 460.835 151.755C458.135 150.521 455.197 149.896 452.229 149.924C440.428 149.924 431.449 158.619 431.449 170.976C431.449 183.332 440.428 192.096 452.229 192.096C457.581 192.076 462.738 190.087 466.717 186.507V174.581H453.215V168.833H473.451V188.91C470.727 191.784 467.437 194.062 463.788 195.6C460.139 197.137 456.211 197.901 452.252 197.843C436.891 197.843 424.511 187.051 424.511 170.976Z" fill="white"/>
<path d="M452.252 198.557C435.791 198.557 423.831 186.971 423.831 171.01C423.831 155.048 435.791 143.53 452.252 143.53C456.353 143.442 460.42 144.293 464.141 146.018C467.863 147.743 471.14 150.297 473.723 153.484L474.233 154.084L467.715 157.984L467.34 157.531C465.49 155.339 463.178 153.583 460.569 152.389C457.96 151.196 455.12 150.594 452.252 150.627C440.598 150.627 432.141 159.197 432.141 171.032C432.141 182.868 440.598 191.438 452.252 191.438C457.328 191.408 462.226 189.562 466.059 186.235V175.272H452.535V168.176H474.131V189.205L473.95 189.397C471.162 192.341 467.795 194.675 464.06 196.251C460.326 197.828 456.305 198.613 452.252 198.557ZM452.252 144.879C436.573 144.879 425.18 155.864 425.18 170.953C425.18 186.042 436.573 197.14 452.252 197.14C456.072 197.198 459.864 196.472 463.393 195.008C466.922 193.544 470.113 191.372 472.771 188.627V169.502H453.895V173.901H467.408V186.79L467.204 186.994C463.109 190.708 457.78 192.769 452.252 192.776C440.02 192.776 430.792 183.4 430.792 170.976C430.792 158.551 439.861 149.244 452.252 149.244C455.223 149.216 458.166 149.822 460.885 151.02C463.604 152.218 466.036 153.982 468.021 156.193L472.17 153.71C469.724 150.837 466.665 148.549 463.218 147.015C459.771 145.48 456.023 144.739 452.252 144.845" fill="white"/>
<path d="M484.368 196.834V145.027H519.715V150.774H491.09V167.473H515.974V173.22H491.09V191.087H519.715V196.834H484.368Z" fill="white"/>
<path d="M520.395 197.514H483.722V144.358H520.418V151.454H491.759V166.815H516.699V173.912H491.759V190.418H520.395V197.514ZM485.048 196.154H519.057V191.755H490.41V172.551H515.35V168.153H490.41V150.094H519.046V145.707H485.037L485.048 196.154Z" fill="white"/>
<path d="M520.667 86.8705C517.708 86.8705 515.203 86.9839 512.732 86.8705C501.849 86.3037 490.977 85.6008 480.094 85.068C466.331 84.3992 452.569 83.5943 438.795 83.2882C413.787 82.7214 388.767 82.4153 363.748 82.1546C351.436 82.0185 339.125 81.9845 326.825 82.1546C305.909 82.506 284.993 83.2882 264.078 83.4923C250.055 83.6283 236.02 83.3336 221.997 82.8574C209.051 82.4266 196.127 81.5084 183.192 80.8169C175.993 80.4428 168.795 80.0346 161.653 79.6832C149.852 79.1957 138.062 78.5496 126.26 78.4135C117.235 78.1275 108.201 78.3471 99.2003 79.071C86.0273 80.3634 72.8317 82.0072 59.8288 84.4672C50.5669 86.2357 41.6111 89.6139 32.5193 92.2553C31.9923 92.3725 31.4584 92.4558 30.9208 92.5047C30.7961 92.2893 30.6714 92.0626 30.5354 91.8472C33.0861 90.0901 35.5348 88.1402 38.2102 86.6098C50.5329 79.5585 63.8419 75.2733 77.7064 72.3485C101.252 67.4512 125.013 67.0544 148.888 68.2561C157.957 68.7095 166.913 69.0836 175.914 69.6731C184.076 70.2059 192.239 70.9541 200.39 71.6797C207.191 72.2805 214.084 72.972 220.92 73.6636C229.989 74.5931 239.138 75.8742 248.286 76.4637C263.409 77.4273 278.554 78.3115 293.7 78.6289C319.377 79.1504 345.054 79.3658 370.788 79.4111C384.153 79.4111 397.519 78.833 410.885 78.4589C417.199 78.2888 423.514 78.0734 429.817 77.6993C435.43 77.3931 441.021 76.761 446.561 75.8061C445.95 75.2659 445.303 74.7696 444.622 74.3211C432.183 67.2465 419.309 60.965 406.078 55.5139C391.325 49.3933 376.06 44.5906 360.46 41.1619C340.386 36.6164 319.815 34.6506 299.243 35.3123C289.664 35.6638 280.028 35.6978 270.528 36.8427C261.361 38.0756 252.276 39.8548 243.321 42.1709C232.985 44.6441 223.011 48.435 213.642 53.4506C207.021 57.033 200.503 60.7853 195.209 66.3175C194.812 66.7532 194.329 67.1019 193.79 67.3419C193.252 67.5819 192.669 67.7079 192.08 67.7119C185.822 66.5783 179.61 65.2066 173.363 63.9142L172.615 63.1433C173.579 62.5085 174.588 61.919 175.506 61.2275C186.038 53.3954 197.513 46.9205 209.663 41.9555C222.241 36.768 235.337 32.9373 248.728 30.5283C269.134 26.7306 289.721 24.588 310.591 25.9938C323.659 26.8913 336.662 28.5645 349.532 31.0045C373.69 35.539 396.952 43.1005 419.818 52.0789C434.113 57.7472 448.295 63.5741 462.681 68.9363C472.544 72.6093 482.633 75.7381 492.711 78.8103C500.522 81.191 508.48 83.1182 516.359 85.2834C517.674 85.6349 518.944 86.1563 520.701 86.7685" fill="white"/>
<path d="M130.432 123.963C124.56 109.045 111.512 98.173 94.3597 98.003C76.9583 97.8329 65.2477 106.947 56.564 121.095C63.3658 98.8645 83.5334 87.8228 102.012 91.8246C120.864 95.9171 130.353 114.214 130.432 123.963Z" fill="white"/>
<path d="M494.287 123.861C485.377 111.799 474.018 103.558 458.691 103.399C443.364 103.24 431.642 110.734 422.641 122.898C425.622 110.666 438.909 97.164 456.593 96.5745C475.684 95.951 490.943 110.79 494.287 123.861Z" fill="white"/>
</svg>
