<?xml version="1.0" encoding="UTF-8"?>
<svg width="48" height="48" fill="none" viewBox="0 0 48 48" xmlns="http://www.w3.org/2000/svg">
<g clip-path="url(#b)" clip-rule="evenodd" fill-rule="evenodd">
<path d="m24 22.888c-0.0584 0-0.1014 0.0439-0.1018 0.0448-0.0027 2e-3 -1.0381 0.9901-1.0381 0.9901-0.3818 0.3686-0.8888 0.2143-0.9429 0.1963 0 0-4.4262-1.2074-4.4267-1.2078-0.8447-0.2548-1.0125-0.5296-1.1418-0.8634 0 0-0.0751-0.2077-0.2589-0.262 0 0-5.4105-1.5883-5.411-1.5883-0.2208-0.0682-0.3423-0.1305-0.4291-0.2986 0 0-0.29692-0.523-0.2979-0.5244-0.06593-0.1253-0.18522-0.1386-0.19214-0.1396-0.40919-0.0553-0.52918-0.2834-0.57993-0.3806l-0.24135-0.4238c-0.07549-0.1313-0.18344-0.1424-0.18676-0.1428-0.23266-0.0148-0.3434-0.0734-0.43959-0.2315 0 0-0.23598-0.3924-0.23695-0.3944-0.11598-0.2142-0.07588-0.3677-0.02238-0.4586 0.11266-0.1867 0.31893-0.2009 0.40172-0.2038h12.938c0.3663 0 0.6623 0.111 0.8811 0.3305 0.1572 0.1567 0.2655 0.361 0.3214 0.6072 1e-3 0.0058 0.0162 0.0572 0.1269 0.0572h2.5572c0.1108 0 0.126-0.0514 0.1269-0.0572 0.056-0.2462 0.1643-0.4506 0.3215-0.6072 0.2188-0.2195 0.5148-0.3305 0.8811-0.3305h12.938c0.0827 0.0029 0.289 0.0171 0.4017 0.2038 0.0535 0.0909 0.0936 0.2444-0.0224 0.4586-1e-3 2e-3 -0.2369 0.3944-0.2369 0.3944-0.0963 0.158-0.207 0.2167-0.4396 0.2315-0.0034 4e-4 -0.1113 0.0115-0.1868 0.1428l-0.2414 0.4238c-0.0507 0.0972-0.1707 0.3253-0.5799 0.3806-0.0069 1e-3 -0.1262 0.0143-0.1921 0.1396-1e-3 0.0014-0.2979 0.5244-0.2979 0.5244-0.0868 0.1681-0.2084 0.2305-0.4291 0.2986-5e-4 0-5.411 1.5883-5.411 1.5883-0.1839 0.0543-0.2589 0.262-0.2589 0.262-0.1293 0.3338-0.2971 0.6086-1.1418 0.8634-5e-4 4e-4 -4.4267 1.2078-4.4267 1.2078-0.0541 0.018-0.5611 0.1723-0.9429-0.1963 0 0-1.0355-0.9881-1.0381-0.9901-4e-4 -9e-4 -0.0434-0.0448-0.1019-0.0448h-2e-4z" fill="#000"/>
<path d="m25.641 17.99c0.0452-0.2005 0.1317-0.3648 0.256-0.4891 0.1721-0.1724 0.4117-0.26 0.711-0.26h5.9435c-0.2044 0.1529-0.3116 0.3463-0.3188 0.3591-0.0689 0.129-0.1549 0.28-0.2572 0.449h-6.3555c0.0131-0.0232 0.021-0.059 0.021-0.059zm14.073-0.4429c-0.0034 0.0052-0.2321 0.3858-0.2321 0.3858-0.0435 0.0715-0.0703 0.1038-0.2486 0.1152-1e-3 0-7.0385 9e-4 -7.0385 9e-4 0.0787-0.1332 0.1463-0.2542 0.203-0.3595 0.0019-0.0038 0.2512-0.4481 0.6938-0.4481l6.4479-5e-4c0.0676 0.0029 0.1555 0.0105 0.202 0.0872 0.0056 0.0104 0.0189 0.0318 0.0189 0.0704 0 0.0342-0.0109 0.0829-0.0464 0.1486zm-0.8609 0.7649-0.2457 0.4314c-0.0335 0.0639-0.0853 0.1625-0.2495 0.2191-0.1373 0.0343-0.4103 0.0125-0.5048 1e-3l-5.9869-0.3977c0.0774-0.1147 0.1492-0.2252 0.2145-0.33h6.8241c-0.0178 0.0228-0.0354 0.0475-0.0517 0.0761v1e-4zm-1.0177 0.9505c0.0015-0.0018-0.2355 0.4154-0.2848 0.5021-0.0122 0.0162-0.0795 0.0895-0.2989 0.0604l-5.7368-0.7696c0.0787-0.1028 0.1532-0.2048 0.223-0.3034l6.0942 0.4044c0.0089 1e-3 0.0346 0.0039 0.0712 0.0072-0.025 0.0286-0.0478 0.0609-0.0679 0.099v-1e-4zm-1.9732 1.1135c-0.2159 0.0573-0.6383-0.0076-0.785-0.038 0 0-2.6985-0.5545-3.9421-0.8102 0.0863-0.1014 0.1691-0.2019 0.2476-0.3014l5.7612 0.7733-1.2817 0.3763zm-1.954 0.5735c-0.2772 0.0742-0.639-0.0458-0.6425-0.0468l-0.0042-0.0013s-6e-4 -5e-4 -1e-3 -5e-4l-2.6385-0.8139c0.1308-0.1329 0.255-0.2649 0.3721-0.3972l4.0454 0.8315c0.0089 0.0014 0.0917 0.0186 0.2081 0.0347l-1.3395 0.3935h1e-4zm-2.0611 0.6054c-0.1873 0.0508-0.4634-0.0573-0.555-0.1035 0 0-0.706-0.3305-1.431-0.6696 0.2178-0.1786 0.4211-0.3609 0.6106-0.5452l2.7362 0.8444c0.0052 0.0019 0.055 0.0181 0.1311 0.0352l-1.4919 0.4387zm-0.4223 0.4129c-0.0797 0.2043-0.163 0.4147-0.7243 0.6257-0.2317 0.072-0.5072-0.1329-0.5095-0.1352-1e-3 -1e-3 -0.6259-0.4482-1.3374-0.9574 0.289-0.1785 0.5711-0.3747 0.8446-0.589l1.512 0.7077c0.0083 0.0043 0.1642 0.0829 0.3531 0.1181-0.0903 0.1029-0.1312 0.2091-0.1386 0.2301h1e-4zm-2.1147 1.022-0.2107 0.0571c-0.1774 0.0425-0.3939-0.1333-0.4631-0.2063 0 0-0.3401-0.3537-0.7771-0.8101 0.2796-0.1266 0.5527-0.268 0.8194-0.4242l1.4012 1.0025c0.0057 0.0047 0.0857 0.0647 0.2033 0.1157-0.3113 0.0847-0.973 0.2653-0.973 0.2653zm-1.8526 0.5053c-0.1479 0.0233-0.3196-0.2195-0.3694-0.3101l-0.4226-0.7153c0.3452-0.0995 0.6826-0.2187 1.0108-0.3591l0.8242 0.8601c0.0074 0.0072 0.0986 0.1019 0.2308 0.1767l-1.2738 0.3477zm-1.403 0.3824c-0.0996 0.0229-0.1836 0.0128-0.2558-0.0308-0.1551-0.0949-0.2066-0.313-0.2096-0.3259l-0.2155-0.7777c0.377-0.0524 0.7451-0.1263 1.105-0.2215l0.447 0.7569c0.0154 0.0271 0.1061 0.1852 0.2421 0.2957l-1.1133 0.3033h1e-4zm-0.9093-0.2823s-0.5994-0.5721-0.8027-0.7655c0.2853-0.0099 0.5668-0.0309 0.8432-0.0633l0.2205 0.7953c0.0063 0.0277 0.0502 0.202 0.1727 0.3407-0.1689-0.0481-0.2201-0.0982-0.4337-0.3072zm-1.0509-0.9474v-2.4231h0.3868l0.6539 2.3594c-0.3403 0.039-0.6872 0.0604-1.0407 0.0637zm-1.2284-0.0637 0.6543-2.3594h0.3868v2.4227c-0.3542-0.0029-0.7009-0.0247-1.0411-0.0633zm-0.1717 1.1648c-0.0847 0.0824-0.18 0.1286-0.2722 0.1534 0.1233-0.1391 0.1662-0.3139 0.1727-0.341l0.2205-0.7939c0.2765 0.0319 0.5579 0.0528 0.8431 0.0623-0.2284 0.2172-0.9641 0.9192-0.9641 0.9192zm-0.2824-0.2295c0 0.0024-0.0508 0.2301-0.2099 0.3273-0.0721 0.0436-0.1559 0.0537-0.2555 0.0308l-1.1132-0.3033c0.136-0.111 0.2277-0.2692 0.2434-0.2982-5e-4 5e-4 0.1886-0.3191 0.445-0.7538 0.36 0.0952 0.7287 0.169 1.1057 0.2209l-0.2155 0.7763zm-1.8684-0.0243-1.2737-0.3477c0.1321-0.0752 0.2238-0.17 0.2307-0.1771 0 0 0.3641-0.3802 0.8242-0.8597 0.3286 0.14 0.6651 0.26 1.0104 0.3595l-0.4208 0.7131c-0.0513 0.0923-0.223 0.3352-0.3707 0.3119h-1e-4zm-1.6422-0.4482-1.1834-0.3224c0.118-0.0514 0.1986-0.1119 0.2052-0.1172-9e-4 1e-3 0.6613-0.4729 1.3993-1.001 0.2667 0.1557 0.5399 0.2976 0.8198 0.4243l-0.7775 0.8101c-0.0692 0.073-0.2857 0.2487-0.4634 0.2062zm-1.6023-0.4534c-0.5589-0.211-0.6427-0.421-0.7222-0.6247-0.0065-0.0182-0.0474-0.1268-0.1391-0.2311 0.1893-0.0358 0.3458-0.1143 0.356-0.1195-0.0015 4e-4 0.7561-0.3534 1.5095-0.7063 0.2729 0.2143 0.5549 0.411 0.8441 0.589l-1.3354 0.9554c-0.0043 0.0043-0.2812 0.2102-0.5129 0.1372zm-1.1447-1.0386c-0.0564-0.0168-0.6837-0.2011-1.4923-0.4387 0.0771-0.0171 0.1279-0.0343 0.1335-0.0362-0.0023 1e-3 2.2173-0.6839 2.7342-0.8434 0.1895 0.1838 0.3929 0.3666 0.6106 0.5448l-1.4286 0.6687c-0.0946 0.0475-0.3701 0.1556-0.5574 0.1048zm-2.06-0.605c-0.4399-0.129-0.9037-0.2652-1.3411-0.3939 0.1166-0.0161 0.2-0.0333 0.2087-0.0352-4e-4 5e-4 2.856-0.5867 4.0454-0.831 0.1176 0.1319 0.2409 0.2643 0.3717 0.3972l-2.6414 0.8149c-6e-3 0.0018-0.3662 0.1214-0.6434 0.048h1e-4zm-1.9537-0.5733c-0.5943-0.1753-1.0773-0.3167-1.2835-0.3768l5.762-0.7734c0.0787 0.099 0.1611 0.1995 0.2472 0.301l-3.9424 0.8107c-0.1463 0.0304-0.5668 0.0952-0.7833 0.0385zm-1.3909-0.5516c-0.2178 0.029-0.2863-0.0428-0.2988-0.06l-0.2867-0.5048c-0.0195-0.0376-0.0426-0.069-0.0665-0.0967 0.0367-0.0033 6.1664-0.4115 6.1664-0.4115 0.0699 0.0985 0.1438 0.2 0.2224 0.3034l-5.7367 0.7696h-1e-4zm-1.106-0.8625c-0.16438-0.0567-0.21649-0.1552-0.25007-0.2191-0.10052-0.1709-0.23269-0.4262-0.29764-0.5076h6.8252c0.0655 0.1048 0.1367 0.2152 0.2146 0.33l-5.9878 0.3977c-0.0939 0.0115-0.36712 0.0333-0.50425-1e-3h1e-5zm-0.87397-0.9135c-0.16439-0.0123-0.19936-0.0318-0.25105-0.1167 5.5e-4 6e-4 -0.21455-0.3571-0.23169-0.3853-0.03566-0.0656-0.04742-0.1143-0.04589-0.1486 0.00401-0.0876 0.06359-0.1552 0.22051-0.1576l6.4483 6e-4c0.4364 0 0.6938 0.448 0.6938 0.448 0.0567 0.1053 0.1243 0.2263 0.2034 0.3596h-7.0374-6e-5 1e-5zm12.623-0.8082c0.2998 0 0.5389 0.0877 0.7111 0.2601 0.1243 0.1242 0.2106 0.2886 0.2565 0.4891 0 0 0.0092 0.0342 0.021 0.059h-6.3555c-0.0971-0.1595-0.2572-0.449-0.2572-0.449-0.0071-0.0129-0.1145-0.2063-0.3188-0.3592h5.9429zm9.2033 1.2412v-0.2462h1.2635c-0.0643 0.1009-0.1345 0.2066-0.2097 0.3157l-1.0538-0.0695zm0 0.4505v-0.2562l0.9226 0.061c-0.0682 0.0947-0.141 0.1913-0.217 0.29l-0.7056-0.0948zm0 0.4848v-0.2962l0.5706 0.0767c-0.0767 0.0949-0.1571 0.1905-0.241 0.2872-0.1472-0.0305-0.2605-0.0534-0.3296-0.0677zm0 0.1911 0.1862 0.038c-0.06 0.0662-0.1224 0.1334-0.1862 0.1996v-0.2376zm-1.9251 0.6163h1.5423c-0.1572 0.1562-0.5282 0.4585-0.5404 0.4686-0.3751-0.1758-0.7408-0.3463-1.0018-0.4686h-1e-4zm-1.6007 0h1.159l1.2785 0.5982c-0.2657 0.2033-0.5389 0.3899-0.8196 0.56-0.617-0.442-1.267-0.9073-1.6179-1.1582zm-0.9429 0h0.6218l1.7623 1.262c-0.2569 0.1472-0.5207 0.2811-0.7898 0.4001-0.5803-0.6048-1.2793-1.3341-1.5943-1.6621zm-0.7877 0h0.528l1.6699 1.7411c-0.3154 0.1315-0.6391 0.2433-0.9704 0.3372l-1.2276-2.0783h1e-4zm-0.2175 0 1.2579 2.1288c-0.3444 0.0896-0.6971 0.1581-1.0569 0.2072l-0.6477-2.336h0.4467zm-2.2428 0h0.4466l-0.6476 2.336c-0.3604-0.0491-0.7126-0.1177-1.0569-0.2067 0.4713-0.7972 1.1001-1.8623 1.2579-2.1293zm-0.7457 0h0.5282l-1.2276 2.0783c-0.3312-0.0933-0.6546-0.2057-0.9706-0.3377 0.6697-0.6977 1.4755-1.5378 1.67-1.7406zm-0.8813 0h0.6218l-1.5938 1.6621c-0.2696-0.119-0.5329-0.2529-0.7906-0.4001 0.7649-0.5477 1.5622-1.1187 1.7626-1.262zm-2.9237 0.4686c-0.0141-0.0115-0.3835-0.322-0.5404-0.4686h1.5421l-1.0017 0.4686zm1.4435-0.4686h1.1588l-1.6178 1.1577c-0.2809-0.1696-0.554-0.3562-0.8193-0.5596 0.6073-0.2843 1.1697-0.5473 1.2783-0.5982v1e-4zm-2.3682-0.6163v0.2357c-0.0633-0.0657-0.1248-0.1319-0.1843-0.1977 0.074-0.0156 0.1359-0.0281 0.1843-0.038zm0-0.4873v0.2962l-0.3282 0.0676c-0.0838-0.097-0.1638-0.1923-0.2404-0.2871l0.5686-0.0767zm0-0.4448v0.2562l-0.7037 0.0948c-0.0761-0.0987-0.1483-0.1953-0.2164-0.29l0.9201-0.061zm0-0.1943-1.0513 0.0695c-0.0758-0.1091-0.1456-0.2148-0.2099-0.3157h1.2612v0.2462z" fill="#fff"/>
<path d="m17.593 20.038c-1e-3 -1e-3 -0.0018-2e-3 -0.0028-0.0029v-1.7979h12.818v1.7989c-4e-4 9e-4 -1e-3 9e-4 -0.0014 0.0014l-12.814 5e-4z" fill="url(#a)"/>
<path d="m18.442 18.524h-0.0535l-0.5477 1.2253h0.1483l0.0024-7e-3c0.0443-0.1492 0.1015-0.292 0.1569-0.4291 0 0 0.0079-0.0196 0.0115-0.0291h0.4235c0.0573 0.1304 0.1159 0.28 0.1787 0.4586l0.0024 0.0066h0.2048l-0.5273-1.2254v1e-4zm-0.2407 0.6667c0.0112-0.0271 0.155-0.3638 0.1721-0.4038 0.0169 0.04 0.1634 0.3767 0.175 0.4038h-0.3471z" fill="#fff"/>
<path d="m19.028 19.662 0.0045 0.0047c0.0647 0.0705 0.2106 0.1034 0.2891 0.1034 0.257 0 0.437-0.1657 0.437-0.4037 0-0.1973-0.1493-0.2554-0.2937-0.3125-0.1281-0.051-0.25-0.0981-0.25-0.2438 0-0.1106 0.0872-0.1905 0.2066-0.1905 0.0956 0 0.1677 0.0504 0.2043 0.1428l0.0025 0.0066h0.0327l0.0511-0.1547-0.0057-0.0052c-0.0698-0.0629-0.1772-0.0853-0.2536-0.0853-0.2396 0-0.3942 0.1338-0.3942 0.3414 0 0.2115 0.1578 0.2729 0.2966 0.3282 0.1255 0.0485 0.2433 0.0953 0.2433 0.2406 0 0.1348-0.1005 0.2409-0.2285 0.2409-0.1173 0-0.1951-0.0504-0.2708-0.1743l-0.0029-0.0047h-0.0327l-0.0356 0.1661z" fill="#fff"/>
<path d="m20.726 18.549h-0.901v0.1262l0.0116-9e-4c0.1034-0.011 0.2033-0.0205 0.3663-0.021v1.0997h0.1731v-1.0992c0.1223 0 0.2393 0.0071 0.3486 0.0205l0.0122 0.0014v-0.1267h-0.0108z" fill="#fff"/>
<path d="m21.347 18.524c-0.3823 0-0.6496 0.2576-0.6496 0.6258 0 0.3714 0.26 0.6205 0.6463 0.6205 0.3992 0 0.6681-0.26 0.6681-0.6467 0-0.4144-0.3341-0.5996-0.6648-0.5996zm0.32 1.0325c-0.085 0.09-0.1918 0.1358-0.3187 0.1358-0.2798 0-0.4607-0.2048-0.4607-0.5215 0-0.351 0.1829-0.5687 0.4765-0.5687 0.1385 0 0.2693 0.061 0.35 0.1628 0.0888 0.1134 0.1069 0.2316 0.1069 0.373 5e-4 0.0076 9e-4 0.0162 9e-4 0.0244 0 0.1151-0.0468 0.2785-0.1549 0.3942z" fill="#fff"/>
<path d="m23.212 18.549h-0.1074v0.8883h-2e-3c-0.0062-0.0072-0.8199-0.8883-0.8199-0.8883h-0.0828v1.2001h0.1181v-0.9287h0.0025c0.0063 0.0072 0.7416 0.8212 0.7416 0.8212l0.0922 0.1075h0.0683v-1.2001h-0.0106z" fill="#fff"/>
<path d="m25.151 18.549h-0.0425l-0.2907 0.5272s-0.1839 0.3353-0.2006 0.3653c-0.1793-0.2991-0.3408-0.6139-0.4783-0.8868l-0.0029-0.0057h-0.061l-9e-4 0.01c-0.0172 0.1772-0.1204 0.8997-0.1655 1.1782l-0.0023 0.0119h0.1454v-0.0104c0-0.169 0.03-0.421 0.0619-0.6883 0 0 0.0136-0.118 0.0191-0.1652 0.0205 0.039 0.2462 0.4677 0.3325 0.6444l0.0976 0.201h0.0326l0.0028-0.0067c0.1005-0.2305 0.242-0.4939 0.436-0.8406 0.0275 0.2067 0.0639 0.6196 0.0839 0.8563l0.0011 0.0095h0.1839l-0.0017-0.0119c-0.0414-0.291-0.0867-0.6763-0.1397-1.1782l-1e-3 -0.01h-0.0097z" fill="#fff"/>
<path d="m25.974 18.524h-0.0538l-0.548 1.2253h0.1492l0.0019-7e-3c0.0445-0.1505 0.1019-0.2939 0.1576-0.432 0 0 0.0069-0.0172 0.0102-0.0262h0.4239c0.0583 0.1333 0.1183 0.2866 0.1783 0.4586l0.0025 0.0066h0.205l-0.5268-1.2254v1e-4zm-0.241 0.6667c0.0112-0.0271 0.1551-0.3638 0.1723-0.4038 0.0171 0.04 0.1632 0.3767 0.175 0.4038h-0.3473z" fill="#fff"/>
<path d="m27.028 19.156c0.2166-0.0439 0.3461-0.1672 0.3461-0.3339 0-0.1833-0.1286-0.2733-0.3938-0.2733h-0.3761v1.2001h0.1727v-0.5753h0.0503c0.0057 0.0071 0.1345 0.1586 0.1345 0.1586-5e-4 -5e-4 0.2034 0.2633 0.2034 0.2633l0.1117 0.1534h0.2262s-0.4546-0.5677-0.475-0.5929zm-0.2511-0.0686v-0.4535c0.0712-0.0033 0.1815-8e-3 0.2415 0.0016 0.1197 0.0194 0.1807 0.0894 0.1807 0.207 0 0.1206-0.0792 0.2086-0.2126 0.2353-0.0751 0.0153-0.1658 0.0125-0.2096 0.0096z" fill="#fff"/>
<path d="m28.373 18.549h-0.9014v0.1262l0.0118-9e-4c0.1035-0.011 0.2033-0.0205 0.3658-0.021v1.0997h0.174v-1.0992c0.122 0 0.2391 0.0071 0.3484 0.0205l0.0122 0.0014v-0.1267h-0.0108z" fill="#fff"/>
<path d="m28.526 19.749h0.1634v-1.2002h-0.1634v1.2002z" fill="#fff"/>
<path d="m29.849 18.549v0.8883h-0.0014c-0.0065-0.0072-0.8199-0.8883-0.8199-0.8883h-0.083v1.2001h0.1182v-0.9287h2e-3c0.0063 0.0072 0.7426 0.8212 0.7426 0.8212l0.0922 0.1075h0.0673v-1.2001h-0.118z" fill="#fff"/>
<path d="m14.165 31.267c-0.0647-0.0039-0.1197-0.0105-0.1783-0.0105-0.065 0-0.1233 0.0066-0.182 0.0105-0.0991-0.2849-0.2228-0.6136-0.3602-0.9254h-0.8711c-0.1201 0.3014-0.2439 0.6028-0.3397 0.9254-0.0481-0.0039-0.0857-0.0105-0.1271-0.0105-0.0446 0-0.0824 0.0066-0.12 0.0105l1.0704-2.3947h0.0791l1.0289 2.3947zm21.728 0h-0.1034c-0.0376-0.0477-0.1065-0.1301-0.1781-0.2092l-1.4826-1.6383h-0.0336v1.8474c-0.0344-0.0038-0.0653-0.0105-0.0967-0.0105-0.034 0-0.0652 0.0067-0.0959 0.0105v-2.3437h0.1341l1.6294 1.7645h0.0346v-1.7645c0.0307 0.0029 0.0614 0.0101 0.0962 0.0101 0.0311 0 0.062-0.0072 0.096-0.0101v2.3437 1e-4zm-2.7778-2.3438c0.0481 0.0029 0.0998 0.0101 0.1509 0.0101 0.048 0 0.0962-0.0072 0.1508-0.0101v2.3438c-0.0546-0.0039-0.1028-0.0105-0.1508-0.0105-0.0511 0-0.1028 0.0066-0.1509 0.0105v-2.3438zm-1.0995 2.3504c-0.055-0.0033-0.1033-0.0105-0.1516-0.0105-0.0512 0-0.1025 0.0072-0.1506 0.0105v-2.186c-0.3461 0-0.5554 0.0204-0.7519 0.0409 0.0043-0.0343 0.0107-0.0686 0.0107-0.1024 0-0.0347-0.0064-0.0653-0.0107-0.1029h1.7708c-0.0035 0.0376-0.0098 0.0682-0.0098 0.1029 0 0.0338 0.0063 0.0681 0.0098 0.1024-0.1713-0.0205-0.4118-0.0409-0.7167-0.0409v2.186zm-2.7796-2.3504h0.7274c0.5288 0 0.7619 0.1743 0.7619 0.5206 0 0.3972-0.3566 0.5896-0.7033 0.651l0.7069 0.8944 0.1647 0.1919 0.0647 0.0859c-0.0716-0.0039-0.1335-0.0105-0.1988-0.0105-0.0649 0-0.1335 0.0066-0.1961 0.0105-0.0751-0.1063-0.1434-0.203-0.2161-0.2988l-0.4044-0.5238-0.2745-0.3215h-0.1299v1.1441c-0.0553-0.0039-0.1032-0.0105-0.1513-0.0105-0.0517 0-0.1031 0.0066-0.1512 0.0105v-2.3438zm0.3025 1.0687c0.0475 0.0034 0.267 0.0172 0.4422-0.0171 0.2512-0.051 0.4393-0.2229 0.4393-0.4897 0-0.2366-0.1205-0.3909-0.3775-0.4324-0.1266-0.0199-0.3607-0.0099-0.504-0.0027v0.942-1e-4zm-0.5401 1.2751c-0.0657-0.0039-0.1198-0.0105-0.1789-0.0105-0.065 0-0.1233 0.0066-0.181 0.0105-0.0999-0.2849-0.2238-0.6136-0.3609-0.9254h-0.871c-0.1204 0.3014-0.2443 0.6028-0.3399 0.9254-0.0482-0.0039-0.0857-0.0105-0.1268-0.0105-0.0445 0-0.0828 0.0066-0.12 0.0105l1.07-2.3947h0.0789l1.0296 2.3947zm-1.1529-1.9461-0.374 0.8767h0.7548l-0.3807-0.8767h-1e-4zm-1.461-0.3977c0.0893 0.8459 0.1856 1.6893 0.2778 2.3438-0.0619-0.0039-0.11-0.0105-0.1612-0.0105-0.0553 0-0.1097 0.0066-0.161 0.0105-0.0581-0.6892-0.1279-1.4289-0.1757-1.768-0.3979 0.7092-0.693 1.2569-0.8987 1.7302h-0.0376l-0.1886-0.3876c-0.2201-0.4515-0.4601-0.8972-0.6933-1.3426-0.0755 0.6677-0.1681 1.3459-0.1681 1.768-0.0442-0.0039-0.0824-0.0105-0.1195-0.0105-0.0447 0-0.0828 0.0066-0.1238 0.0105 0.0888-0.5516 0.2946-1.9842 0.3291-2.3438h0.0893c0.2745 0.5454 0.6039 1.1887 0.9706 1.7955 0.3268-0.5867 0.6422-1.182 0.9885-1.7955h0.0722zm-3.8664 2.3438h-0.1036c-0.0373-0.0477-0.1061-0.1301-0.1779-0.2092l-1.4825-1.6383h-0.0341v1.8474c-0.0343-0.0038-0.0654-0.0105-0.0963-0.0105-0.034 0-0.0647 0.0067-0.0959 0.0105v-2.3437h0.1341l1.6293 1.7645h0.0347v-1.7645c0.0307 0.0029 0.0615 0.0101 0.0955 0.0101 0.0307 0 0.062-0.0072 0.0967-0.0101v2.3438zm-4.9209-1.1722c0-0.7505 0.5589-1.2225 1.2695-1.2225 0.6453 0 1.3002 0.3485 1.3002 1.171 0 0.764-0.5418 1.265-1.3064 1.265-0.7584 0-1.2633-0.48-1.2633-1.2135zm2.0177-0.7778c-0.1713-0.2156-0.439-0.3323-0.7142-0.3323-0.6031 0-0.967 0.4558-0.967 1.151 0 0.6963 0.4252 1.0588 0.9366 1.0588 0.7241 0 0.9848-0.7468 0.9605-1.1235 0-0.2838-0.0376-0.5244-0.2159-0.754zm-2.6945 1.9566c-0.0552-0.0033-0.1029-0.0105-0.1511-0.0105-0.0517 0-0.1034 0.0072-0.1508 0.0105v-2.186c-0.3468 0-0.5565 0.0204-0.7515 0.0409 0.0033-0.0343 0.0102-0.0686 0.0102-0.1024 0-0.0347-0.0069-0.0653-0.0102-0.1029h1.7702c-0.0038 0.0376-0.0103 0.0682-0.0103 0.1029 0 0.0338 0.0065 0.0681 0.0103 0.1024-0.1718-0.0205-0.4115-0.0409-0.7168-0.0409v2.186zm-2.5151-0.4696c0.1336 0.2195 0.2877 0.3567 0.5561 0.3567 0.2774 0 0.4765-0.2301 0.4765-0.5005 0-0.6373-1.074-0.3558-1.074-1.1307 0-0.4419 0.35-0.6572 0.7618-0.6572 0.1643 0 0.3639 0.0509 0.4901 0.1638-0.0411 0.0891-0.0648 0.1847-0.0922 0.281h-0.034c-0.0722-0.1853-0.223-0.2981-0.4254-0.2981-0.2369 0-0.4321 0.158-0.4321 0.4005 0 0.6311 1.0803 0.3773 1.0803 1.1073 0 0.4901-0.3815 0.7815-0.8477 0.7815-0.1677 0-0.4422-0.0719-0.5589-0.1991 0.0337-0.0995 0.0511-0.2024 0.065-0.3052h0.0345zm-1.3933-1.4831-0.3735 0.8767h0.7544l-0.3809-0.8767z" fill="#000"/>
</g>
<defs>
<linearGradient id="a" x1="21.295" x2="26.704" y1="16.433" y2="21.842" gradientUnits="userSpaceOnUse">
<stop stop-color="#396" offset="0"/>
<stop stop-color="#004F32" offset="1"/>
</linearGradient>
<clipPath id="b">
<rect transform="translate(8 17)" width="32" height="14.309" fill="#fff"/>
</clipPath>
</defs>
</svg>
