<?xml version="1.0" encoding="UTF-8"?>
<svg width="48" height="48" fill="none" viewBox="0 0 48 48" xmlns="http://www.w3.org/2000/svg">
<path d="m13.551 18.653c-1.2842 0.0428-2.5001 0.5885-3.3856 1.5195-0.88556 0.931-1.3698 2.1727-1.3484 3.4574 0.02141 1.2847 0.54679 2.5095 1.4629 3.4104 0.9161 0.901 2.1495 1.4059 3.4344 1.4059s2.5183-0.5049 3.4344-1.4059c0.9161-0.9009 1.4414-2.1257 1.4629-3.4104 0.0214-1.2847-0.4629-2.5264-1.3484-3.4574-0.8856-0.931-2.1015-1.4767-3.3857-1.5195h-0.3265zm6.8572 0c-1.2842 0.0428-2.5001 0.5885-3.3857 1.5195-0.8855 0.931-1.3698 2.1727-1.3484 3.4574 0.0215 1.2847 0.5468 2.5095 1.4629 3.4104 0.9161 0.901 2.1495 1.4059 3.4344 1.4059s2.5183-0.5049 3.4344-1.4059c0.9161-0.9009 1.4415-2.1257 1.4629-3.4104s-0.4628-2.5264-1.3484-3.4574c-0.8855-0.931-2.1015-1.4767-3.3856-1.5195h-0.3265zm6.8571 0c-1.2842 0.0428-2.5001 0.5885-3.3856 1.5195-0.8856 0.931-1.3698 2.1727-1.3484 3.4574s0.5468 2.5095 1.4629 3.4104c0.9161 0.901 2.1495 1.4059 3.4344 1.4059 1.2848 0 2.5183-0.5049 3.4344-1.4059 0.916-0.9009 1.4414-2.1257 1.4628-3.4104 0.0215-1.2847-0.4628-2.5264-1.3484-3.4574-0.8855-0.931-2.1014-1.4767-3.3856-1.5195h-0.3265zm6.8571 0c-1.2841 0.0428-2.5 0.5885-3.3856 1.5195-0.8855 0.931-1.3698 2.1727-1.3484 3.4574s0.5468 2.5095 1.4629 3.4104c0.9161 0.901 2.1495 1.4059 3.4344 1.4059s2.5183-0.5049 3.4344-1.4059c0.9161-0.9009 1.4415-2.1257 1.4629-3.4104s-0.4629-2.5264-1.3484-3.4574c-0.8856-0.931-2.1015-1.4767-3.3856-1.5195h-0.3266z" stroke="#000"/>
</svg>
