<?xml version="1.0" encoding="UTF-8"?>
<svg width="48" height="48" fill="none" viewBox="0 0 48 48" xmlns="http://www.w3.org/2000/svg">
<g clip-path="url(#a)">
<path d="m26.773 19.914c-0.9467-0.4604-1.8077-0.6103-2.8293-0.6103-0.9259 0-1.894 0.1964-2.7727 0.5759-0.9146-0.3182-3.1054-0.1292-3.5843-0.1185-0.5483 0.0126-2.8167-0.1244-3.3524-0.1244s-1.6434 0.0174-2.4789 0.0746c-1.2719 0.0875-2.7099-0.0366-2.8835-0.0798-0.08418-0.0206-0.14659 0.0303-0.14659 0.0303-0.03728 0.0495-0.42347 0.4855-0.42347 0.4855l0.03766 0.1252 0.90935 0.4607-0.12441 0.5985 0.88533 0.3991s0 0.4977 0.0491 0.5601c0.0499 0.0632 0.9352 0.2869 0.9352 0.2869s0.0883 0.5819 0.1495 0.6354c0.1038 0.0923 1.035 0.1876 1.035 0.1876s0.2861 0.5231 0.4105 0.573c0.1248 0.0498 1.122 0.1997 1.3085 0.1495 0 0 0.0827 0.4357 0.2592 0.5143 0.1886 0.0835 1.2737 0.0473 1.2737 0.0473s0.1348 0.4294 0.3508 0.4966c0.2019 0.0624 1.1449-0.1857 1.1449-0.1857s0.1377 0.3182 0.2747 0.374c0.2089 0.0852 0.9706-0.185 0.9706-0.185 0.3918 1.6138 1.6965 2.7558 3.2332 3.3528l0.2149 0.4319 0.505-0.1912 0.264 0.405 0.4612-0.2507 0.3142 0.381 0.4142-0.2998 0.3651 0.339 0.3637-0.3489 0.4154 0.3038 0.3127-0.3803 0.4619 0.2515 0.2647-0.4017 0.5073 0.1946 0.209-0.4324c1.4244-0.5527 2.7432-1.7035 3.1718-3.1626 0.1333 0.0594 0.3862 0.1458 0.5952 0.1547 0 0 0.2381-0.0861 0.3349-0.3873 0 0 0.8266 0.258 0.9776 0.2119 0 0 0.1389-0.0074 0.267-0.4301 0.0845 0.0387 0.1547 0.0181 0.2806 0.0454 0.6435 0.1399 0.9241 0.0642 0.9241 0.0642s0.144-0.0243 0.2581-0.5663c0.0572 0.0085 0.0982 0.0155 0.1414 0.0129 0 0 0.9555 0.0273 1.1209-0.0554 0 0 0.151-0.038 0.2053-0.5811 0.3939 0.059 0.7483 0.0849 1.0352 0.052 0 0 0.3212-0.1104 0.4449-0.7421 0.2168-0.0136 0.8558-0.0561 0.9352-0.1502 0 0 0.1573-0.0724 0.1573-0.6399 0.25-0.0162 0.6565-0.0687 0.803-0.2245 0 0 0.1551-0.1794 0.0879-0.6117 0.5904-0.1237 0.7953-0.3161 0.7953-0.3161-0.0041-0.209-0.1879-0.5933-0.1879-0.5933s0.6605-0.2548 0.8211-0.384l0.052-0.0956s-0.3998-0.4792-0.4618-0.4922c-0.1422-0.0295-1.42 0.1555-2.2459 0.1555-0.8267 0-2.3165-0.1255-2.9297-0.1255-0.6136 0-2.5294 0.138-3.4307 0.138-0.9016 0-1.2512-0.138-1.9147-0.138-0.4124 0-1.3594 0.0262-1.9431 0.2359z" clip-rule="evenodd" fill="#000" fill-rule="evenodd"/>
<path d="m37.61 20.805c-0.2141 4e-4 -0.4275 0.0011-0.6409 0.0011-0.3648 0.017-0.7562 0.0067-1.1328 0.0126-0.4958 0.0078-1.6374 0.017-1.6954 0.0214h-0.71c-0.4028 0-0.7583-0.0015-1.1608-0.0015-0.0683 3e-3 -0.4762 0.0141-0.6051 0.0133-0.0576-0.0014-0.1617-0.0085-0.2189 0-0.0953 0.0148-0.2507 0.2153-0.0635 0.2153 0.0081-0.0019 0.0169-0.0033 0.0258-0.0045 0.0189-0.0025 0.0377-0.0055 0.0569-0.0088 0.0524-0.0163 0.1207 0.0033 0.1742 0.0074 0.0997 7e-3 0.2005 0.0147 0.3006 0.0218 0.2632 0.018 0.5261 0.0358 0.7886 0.0542 0.1887 0.0152 0.3781 0.031 0.5667 0.0458 1.382 0.0871 2.7473 0.2108 4.1795 0.2108 0.3311 0 0.6269-0.1451 0.731-0.1783 0.0443-0.0144 0.1374-0.0247 0.1724-0.0561 0.0739-0.0646-0.0111-0.2991-0.0819-0.3419-0.0484-0.0295-0.6329-0.0155-0.6864-0.0126z" fill="#fff"/>
<path d="m9.8106 20.91c-0.07237 0.0273-0.10412 0.0635-0.11372 0.1436-0.00777 0.0584 0.03654 0.1928 0.17831 0.2662 0.10117 0.0462 0.48556 0.2256 0.58446 0.2467 0.0916 0.0195 5.8778-0.3187 5.887-0.3201 0.0783-0.0358 0.2906-0.0945 0.2721-0.2182-0.0051-0.0355-0.0609-0.0706-0.0919-0.0831-0.0653-0.0247-0.7783 0.0402-0.8315 0.0406-0.4914 0-5.7518-0.0757-5.8848-0.0757z" fill="#fff"/>
<path d="m30.091 20.997c-0.0639-0.0015-0.1285 0.0369-0.1536 0.1059-0.021 0.0569-0.0281 0.1344 0.0211 0.1739 0.0509 0.0406 0.1299 0.0521 0.1938 0.0687 0.103 0.0266 0.2064 0.0531 0.3086 0.0797 0.1189 0.0292 0.2179 0.0458 0.3556 0.0595 0.1063 0.0099 0.1986-0.0137 0.2263-0.099 0.0307-0.0989 0.0196-0.165-0.0576-0.2089-0.0362-0.0204-0.185-0.0624-0.402-0.1023-0.212-0.0388-0.4291-0.0735-0.4922-0.0775z" fill="#fff"/>
<path d="m17.683 20.992c-0.2019 0.0624-0.4105 0.0931-0.621 0.1322-0.0823 0.0144-0.1909 0.0188-0.2577 0.0654-0.0306 0.0214-0.0476 0.0539-0.0561 0.0882-0.0074 0.0343-0.0026 0.075 0.0181 0.0993 0.0306 0.0366 0.2252 0.1211 0.3515 0.0993 0.2001-0.0483 0.3744-0.1122 0.5604-0.1724 0.0647-0.0188 0.1488-0.0295 0.1954-0.0808 0.0509-0.0565 0.0173-0.1189-0.0229-0.1673-0.0418-0.0487-0.1067-0.0783-0.1677-0.0639z" fill="#fff"/>
<path d="m31.357 21.314c-0.0239 0.0107-0.048 0.0177-0.0672 0.0376-0.0653 0.0665-0.0812 0.1761 0.0455 0.1761 0.0513-0.0155 0.1901 0.0056 0.2396 0.0133 0.0919 0.0137 0.1835 0.0281 0.2747 0.0425 0.3703 0.0583 0.741 0.1167 1.1113 0.175 0.4471 0.0731 0.8961 0.1477 1.3505 0.1979 0.319 0.0354 0.6366 0.0915 0.9589 0.1222 0.4969 0.0472 0.9873 0.117 1.5126 0.117 0.0318-0.0011 0.0639-0.0029 0.0957-4e-3 0.0184-0.0022 0.0376-0.0034 0.0564-0.0041 0.013-0.0022 0.027-0.0033 0.0399-0.0048 0.014-0.0015 0.0285-0.0029 0.0432-0.0048 0.0155-0.0011 0.0318-0.0026 0.0476-0.0037 0.0137-0.0022 0.0263-0.0029 0.0396-0.0044 0.0103-0.0022 0.0202-0.0033 0.0298-0.0048 0.0093-0.0011 0.0178-3e-3 0.027-0.0041 0.0089-0.0015 0.017-0.0029 0.0255-0.0044 0.0088-0.0015 0.0181-0.0026 0.0266-0.0044 0.0476-0.0122 0.0952-0.0248 0.1421-0.0373 0.1665-0.051 0.2514-0.1208 0.3094-0.2858 0.0126-0.0373 0.0284-0.0897-7e-4 -0.1233-0.0263-0.0295-0.0669-0.0347-0.1067-0.0366-0.209 0-0.4183-7e-4 -0.6273-7e-4 -0.285-0.0103-0.569-0.021-0.8547-0.0314-1.056-0.0495-2.1045-0.134-3.1505-0.2012-0.3544-0.0273-0.7089-0.0546-1.0637-0.0823-0.1465-0.0115-0.3518-0.0395-0.5051-0.0395z" fill="#fff"/>
<path d="m17.933 21.459c-0.1938 0.0377-0.3662 0.1207-0.5486 0.182-0.0753 0.0248-0.1721 0.0425-0.2278 0.1038-0.034 0.0373-0.0428 0.0849-0.0307 0.1369 0.0078 0.0347 0.0233 0.0868 0.0477 0.1141 0.0487 0.0554 0.1776 0.1071 0.2643 0.1071 0.0484-0.0015 0.123-0.0166 0.1544-0.0292 0.1425-0.0768 0.2843-0.1532 0.4268-0.23 0.0487-0.0262 0.1115-0.034 0.1513-0.0753 0.1359-0.1399-0.1218-0.329-0.2374-0.3094z" fill="#fff"/>
<path d="m29.824 21.53c-0.0812 0.0266-0.2658 0.127-0.1864 0.2167 0.0314 0.0362 0.1322 0.0702 0.1754 0.0849 0.0535 0.0233 0.0498 0.0299 0.103 0.0532 0.0601 0.0277 0.1192 0.0557 0.179 0.0831 0.1115 0.0542 0.171 0.1133 0.3113 0.1133 0.1654-0.0037 0.2396 0.0218 0.3216-0.1347 0.0221-0.0407 0.0073-0.0861-0.0163-0.1167-0.0387-0.0506-0.2581-0.1303-0.3533-0.1628-0.1868-0.0635-0.4818-0.151-0.5343-0.137z" fill="#fff"/>
<path d="m16.496 21.485c-0.1307 0.0133-1.0858 0.1053-1.4336 0.1274-0.1861 0.0151-3.4344 0.2171-3.7176 0.2212-0.0524 4e-3 -0.7392-0.0034-0.8104 0.0572-0.0369 0.0314 4e-3 0.2171 0.0395 0.2511 0.0661 0.0638 0.1868 0.0827 0.2736 0.1067 0.2521 0.0708 0.4788 0.1513 0.7716 0.1513 0.0192-0.0015 5.0981-0.649 5.1904-0.649 0.0132-0.013 0.0262-0.0222 0.0239-0.0429-4e-3 -0.0461-0.1816-0.1872-0.2259-0.2075-0.0329-0.0147-0.0709-0.0155-0.1115-0.0155z" fill="#fff"/>
<path d="m31.056 21.694c-0.0499 0.0189-0.1093 0.0447-0.0967 0.1138 0.0084 0.0494 0.0299 0.1281 0.0709 0.1595 0.0701 0.0539 0.2274 0.0749 0.3171 0.0982 0.2492 0.0646 0.4995 0.1288 0.7491 0.1927 0.3688 0.0949 0.7407 0.1731 1.1158 0.2618 0.4537 0.1078 0.923 0.2023 1.3904 0.278 0.2573 0.041 0.5154 0.0875 0.7805 0.1218 0.1366 0.0174 0.2695 0.0425 0.4135 0.0425 0.0137-0.0011 0.0262-0.0026 0.0399-0.0045 0.024-0.0011 0.0498-0.0025 0.0742-4e-3 0.0174-0.0015 0.0343-0.0026 0.0524-0.0045 0.0126-0.0014 0.0255-0.0025 0.0388-0.0044 0.0192-0.0011 0.0384-0.0026 0.0565-4e-3 0.0196-0.0019 0.038-0.0034 0.0568-0.0041 0.0192-0.0022 0.0377-0.0033 0.0569-0.0048 0.0148-0.0015 0.0288-3e-3 0.0432-0.0044 0.0133-0.0015 0.0262-3e-3 0.0395-0.0041 0.0129-0.0018 0.0262-3e-3 0.0391-0.0044 0.013-0.0019 0.0259-3e-3 0.0396-0.0048 0.011-0.0011 0.0228-0.0026 0.0339-0.0041 0.0092-0.0011 0.0177-0.0029 0.027-0.0044 0.0085-0.0015 0.0173-0.0026 0.0262-0.0045 0.0088-0.0014 0.0173-0.0025 0.0254-0.0044 0.0093-0.0011 0.0178-0.0029 0.027-0.0044 0.0513-0.0236 0.1063-0.0225 0.1543-0.0547 0.065-0.0439 0.2216-0.2606 0.1385-0.3293-0.0657-0.055-0.4224-0.0439-0.5332-0.0528-0.3374-0.0266-0.673-0.0675-1.006-0.0997-0.4785-0.045-0.9541-0.1296-1.4252-0.1901-0.5593-0.072-1.1102-0.1632-1.6603-0.2551-0.2555-0.044-0.5117-0.0872-0.7665-0.1315-0.1111-0.0266-0.1938-0.0853-0.3186-0.0853z" fill="#fff"/>
<path d="m16.426 22.022c-0.2836 0.0499-0.5664 0.099-0.85 0.1484-0.4482 0.082-2.2111 0.3456-2.6457 0.394-0.2813 0.0314-0.5619 0.0638-0.8499 0.0867-0.5269-0.0254-0.6199 0.0613-0.5531 0.202 0.0288 0.0605 0.0572 0.1407 0.1148 0.1842 0.0705 0.0528 0.6572 0.1717 0.8843 0.1717 0.2732 0.0092 1.4846-0.1835 1.685-0.233 0.312-0.0764 2.6879-0.7159 2.7488-0.7561 0.0469-0.0314 0.0085-0.1743-0.0498-0.247-0.051-0.0631-0.3537 0.0255-0.4844 0.0491z" fill="#fff"/>
<path d="m18.343 21.96c-0.0849 4e-3 -0.6642 0.3644-0.7055 0.4186-0.0284 0.037-0.0277 0.0816-0.0137 0.1263 0.0111 0.0354 0.0211 0.0724 0.0484 0.0997 0.0635 0.0639 0.2053 0.0657 0.3009 0.0657 0.0258-0.01 0.052-0.0203 0.0783-0.0306 0.0509-0.0285 0.0919-0.0717 0.1395-0.1086 0.0979-0.0794 0.1724-0.1355 0.2703-0.2145 0.0498-0.0351 0.1643-0.0639 0.1964-0.1189 0.0823-0.1425-0.2167-0.24-0.3146-0.2377z" fill="#fff"/>
<path d="m29.448 21.96c-0.0964 0.0052-0.2733 0.0647-0.2895 0.192-0.0044 0.0325 0.0011 0.0658 0.0251 0.0853 0.0432 0.0362 0.3847 0.2083 0.4936 0.278 0.0827 0.0525 0.1466 0.1156 0.2563 0.1156 0.1476-0.0048 0.2001-0.041 0.2362-0.0628 0.0639-0.0395 0.1407-0.1369 0.0853-0.213-0.0487-0.0679-0.1525-0.0971-0.2233-0.1296-0.0783-0.0369-0.1562-0.0738-0.2349-0.1108-0.0524-0.0262-0.2636-0.1547-0.3488-0.1547z" fill="#fff"/>
<path d="m30.864 22.213c-0.0513 0.0225-0.1022 0.0454-0.1536 0.0679-0.0701 0.028-0.2462 0.0657-0.2041 0.1724 0.0343 0.0875 0.8647 0.333 1.119 0.4239 0.6624 0.2292 1.2291 0.4249 1.9273 0.5789 0.5073 0.1118 1.0474 0.2381 1.609 0.2381 0.0229-0.0011 0.0465-0.0022 0.0687-4e-3 0.0166-0.0015 0.0317-3e-3 0.0484-0.0041 0.0092-0.0019 0.0173-3e-3 0.0262-0.0044 0.0383-0.0196 0.076-0.0281 0.1122-0.0528 0.0561-0.0403 0.0875-0.1001 0.1311-0.1485 0.0402-0.0443 0.1004-0.0782 0.1244-0.1314 0.0103-0.0247 0.0114-0.0569-0.0048-0.079-0.0188-0.024-0.0473-0.031-0.0753-0.0388-0.1289-0.0173-0.2581-0.0347-0.3877-0.0524-0.2514-0.0406-0.5025-0.0812-0.7543-0.1218-0.3375-0.0565-0.6764-0.13-1.0068-0.202-0.5291-0.1148-1.0486-0.2311-1.564-0.3637-0.2396-0.0631-0.4796-0.1255-0.7192-0.1883-0.0506-0.0158-0.1015-0.031-0.1525-0.0468-0.0483-0.0174-0.0882-0.0396-0.144-0.0432z" fill="#fff"/>
<path d="m18.852 22.369c-0.0864 0-0.3382 0.257-0.4313 0.3323-0.0443 0.037-0.1532 0.1322-0.1757 0.1857-0.0425 0.1049 0.0232 0.161 0.0915 0.2116 0.0628 0.0469 0.2552 0.017 0.3405-0.0469 0.0623-0.0469 0.4629-0.4058 0.4869-0.4478 0.116-0.205-0.1772-0.2349-0.3119-0.2349z" fill="#fff"/>
<path d="m17.24 22.37c-0.034 0.0092-0.0691 0.0192-0.103 0.0288-0.0898 0.038-2.1736 0.6841-3.1612 0.8942-0.285 0.0605-0.5734 0.0997-0.8673 0.1429-0.0901 0.0133-0.2809 7e-4 -0.3437 0.0539-0.0406 0.0365 0.0794 0.2293 0.1137 0.2817 0.0871 0.1296 1.1091 0.1728 1.5636 0.0528 0.1839-0.0539 2.8902-1.0013 2.9455-1.0718 0.0569-0.0728 0.0429-0.254 0.0351-0.2869-0.0196-0.0834-0.1-0.0956-0.1827-0.0956z" fill="#fff"/>
<path d="m28.955 22.383c-0.0816 0.0218-0.2079-0.0132-0.2588 0.0632-0.0281 0.041-0.034 0.1074-0.0078 0.1477 0.0318 0.0476 0.473 0.4091 0.5254 0.436 0.0694 0.0354 0.1599 0.0332 0.2466 0.0332 0.0731-0.0014 0.2241-0.0627 0.2061-0.1787-0.0045-0.0306-0.0252-0.0579-0.0484-0.0793-0.0672-0.061-0.1499-0.1001-0.223-0.1511-0.0624-0.042-0.1326-0.0952-0.195-0.1373-0.0568-0.0428-0.1067-0.0749-0.1635-0.1178-0.0248-0.0122-0.0514-0.014-0.0816-0.0159z" fill="#fff"/>
<path d="m28.297 22.732c-0.0739 0.0181-0.1588 0.0491-0.1444 0.1477 0.0015 0.0188 0.117 0.1071 0.161 0.1499 0.0993 0.0997 0.1724 0.2725 0.2987 0.3404 0.0878 0.0476 0.2178 0.1056 0.3167 0.055 0.1234-0.0602 0.0916-0.1813 0.0713-0.2075-0.0905-0.1174-0.2134-0.2075-0.3186-0.3127-0.051-0.0509-0.099-0.1248-0.1625-0.1543-0.0609-0.0277-0.1477-0.0185-0.2222-0.0185z" fill="#fff"/>
<path d="m19.349 22.747c-0.0668 0.0388-0.1495 0.1455-0.2023 0.2023-0.0391 0.0417-0.0772 0.0835-0.1156 0.1244-0.0779 0.0794-0.2407 0.2157-0.1019 0.3131 0.0576 0.0403 0.1533 0.0731 0.2164 0.0547 0.051-0.0237 0.099-0.0281 0.1433-0.0657 0.0439-0.037 0.0734-0.0912 0.1029-0.1381 0.0348-0.0525 0.1514-0.216 0.1806-0.2415 0.0602-0.0532 0.1488-0.0934 0.0897-0.2008-0.0262-0.0488-0.2499-0.0846-0.3131-0.0484z" fill="#fff"/>
<path d="m30.393 22.753c-0.0591 0.0254-0.2655 0.0978-0.2618 0.1569 0.0063 0.0856 0.1303 0.1233 0.2056 0.1491 0.0569 0.02 0.1078 0.0521 0.1603 0.079 0.107 0.0569 0.2148 0.1134 0.3215 0.1702 0.1703 0.0857 0.3404 0.1714 0.5107 0.257 0.2466 0.13 0.498 0.2496 0.7546 0.3563 0.2636 0.1097 0.5332 0.2407 0.8241 0.2943 0.247 0.0454 0.5335 0.0321 0.806 0.0321 0.0218-0.0019 0.0439-3e-3 0.0653-0.0044 0.0366-0.0015 0.0727-3e-3 0.1093-0.0045 0.0192-0.0015 0.0377-0.0029 0.0565-4e-3 0.0114-0.0023 0.0233-3e-3 0.0351-0.0048 0.0114-0.0015 0.0232-0.0026 0.035-0.0045 0.0085-0.0014 0.0167-0.0026 0.0255-0.0044 0.0259-0.0114 0.0525-0.0233 0.079-0.0343 0.0606-0.0429 0.2027-0.1898 0.1429-0.2655-0.0561-0.0694-0.2935-0.086-0.3869-0.1067-0.2042-0.0447-0.4069-0.0923-0.6059-0.1421-0.7203-0.1802-1.4118-0.4154-2.1008-0.6491-0.1772-0.065-0.3548-0.13-0.532-0.1953-0.0786-0.0292-0.1543-0.0724-0.244-0.0753z" fill="#fff"/>
<path d="m17.615 22.927c-0.1351 0.0059-0.6221 0.2873-0.8159 0.3681-0.5435 0.2312-1.1102 0.4272-1.6773 0.6162-0.1503 0.0458-0.3013 0.092-0.452 0.137-0.0941 0.0266-0.2067 0.0417-0.2905 0.0883-0.0248 0.0129-0.0458 0.0354-0.0499 0.0638-0.0085 0.0506 0.034 0.0901 0.0694 0.1167 0.0432 0.0317 0.0846 0.0687 0.1348 0.0875 0.0786 0.0284 0.1702 0.0266 0.2621 0.031 0.2146 0.01 0.641 0.0772 0.9194-0.0447 0.2562-0.1115 1.3394-0.6819 1.6252-0.8366 0.1348-0.0757 0.7266-0.3518 0.7185-0.4611-0.0129-0.1724-0.2906-0.1662-0.4438-0.1662z" fill="#fff"/>
<path d="m29.848 23.106c-0.0488 0.0321-0.178 0.1303-0.1614 0.1971 0.0192 0.0743 0.2599 0.1854 0.2995 0.2142 0.3677 0.2761 0.7343 0.5501 1.1179 0.7993 0.2112 0.1366 0.4257 0.2799 0.6605 0.3681 0.2293 0.086 0.5021 0.1159 0.7728 0.1159 0.0155-0.0011 0.0317-0.0025 0.048-0.0036 0.0225-0.01 0.0454-0.0189 0.0683-0.0281 0.0631-0.0391 0.2134-0.1673 0.1676-0.2488-0.0114-0.0196-0.0306-0.0336-0.0506-0.0429-0.0557-0.0188-0.1115-0.038-0.1672-0.0572-0.0964-0.0351-0.1931-0.0709-0.2891-0.1056-0.2987-0.12-0.59-0.2503-0.8799-0.3891-0.3972-0.1909-0.7878-0.3925-1.1711-0.6037-0.12-0.0683-0.2396-0.1373-0.3589-0.206-0.0099-0.0026-0.0202-0.0052-0.0302-0.0085-0.0092 0-0.017-7e-4 -0.0262-0.0011z" fill="#fff"/>
<path d="m29.273 23.359c-0.0226 0.0114-0.0432 0.0229-0.0591 0.045-0.0281 0.0392-0.0377 0.0923-0.0554 0.137-0.0174 0.0402-0.0354 0.0794-0.0535 0.1189-0.0056 0.0221-0.0059 0.0487 0.0033 0.0687 0.0229 0.0457 0.0834 0.0468 0.1241 0.0679 0.0347 0.0177 0.0664 0.0413 0.096 0.0687 0.2684 0.2529 0.5209 0.5194 0.7926 0.7587 0.1008 0.0897 0.1891 0.2005 0.3039 0.2618 0.0919 0.0498 0.2034 0.0738 0.3072 0.1007 0.1606 0.041 0.3168 0.0979 0.4977 0.0979 0.0657-0.0329 0.261-0.0931 0.2281-0.1994-0.0014-4e-3 -0.0033-0.0081-0.0055-0.0122-0.0041-0.0062-0.0085-0.0133-0.0129-0.0195-0.0661-0.0731-0.1654-0.1104-0.2452-0.1603-0.1495-0.0926-0.2946-0.1901-0.4412-0.2865-0.3566-0.2348-0.6945-0.5043-1.0386-0.7624-0.127-0.0953-0.2134-0.2433-0.3721-0.2802-0.0093-0.0011-0.0174-0.0019-0.0262-0.0037-7e-3 -8e-4 -0.0141-8e-4 -0.0215-8e-4 -0.0077-3e-4 -0.014-3e-4 -0.0217-3e-4z" fill="#fff"/>
<path d="m18.195 23.363c-0.0975 0.0273-2.3264 1.2487-2.3585 1.3015-0.0536 0.0864 0.1111 0.2204 0.1931 0.2385 0.1222 0.0269 0.7975-0.0384 1.0902-0.2131 0.0853-0.0638 1.0944-0.8569 1.1738-0.923 0.0967-0.0827 0.412-0.2459 0.3769-0.3145-0.0399-0.0779-0.3836-0.1186-0.4755-0.0894z" fill="#fff"/>
<path d="m18.819 23.673c-0.0617-0.0078-0.4169 0.4327-1.2631 1.0249-0.0727 0.0502-0.2378 0.1558-0.2739 0.2308-0.0528 0.1462 0.1886 0.1827 0.2772 0.1827 0.0203-0.0018 0.4793-0.0605 0.6923-0.1842 0.0979-0.0572 1.0489-1.0131 1.0785-1.0552 0.0133-0.0188 0.0232-0.1159 0.0192-0.1244-0.0502-0.0761-0.2083-0.0237-0.2973-0.0351-0.0683-0.0096-0.1657-0.0292-0.2329-0.0395z" fill="#fff"/>
<path d="m28.611 23.677c-0.083 0.0259-0.1635 0.1245-0.1262 0.2227 0.0195 0.0528 0.0764 0.0638 0.1163 0.0971 0.0372 0.0325 0.0646 0.0694 0.0919 0.1082 0.1698 0.2348 0.3378 0.4729 0.5198 0.7003 0.0698 0.0864 0.1414 0.1965 0.2371 0.2633 0.1237 0.0871 0.3706 0.1731 0.5386 0.1731 0.0602-0.0302 0.2094-0.0358 0.2123-0.1273 0-0.0037 0-0.0082-7e-4 -0.0122-0.01-0.0872-0.1706-0.2009-0.2341-0.2607-0.2521-0.2418-0.5039-0.4836-0.7569-0.7255-0.0524-0.0535-0.1052-0.1067-0.158-0.1598-0.0487-0.0554-0.0897-0.1167-0.1495-0.1643-0.0794-0.0643-0.1794-0.1115-0.2906-0.1149z" fill="#fff"/>
<path d="m18.611 25.523c-0.0384 0.0133-0.0251 0.0823-0.0144 0.1178 0.0188 0.062 0.2666 0.4659 0.3762 0.628 0.0942 0.1395 0.1842 0.2828 0.2961 0.4135 0.4228 0.4962 0.9334 0.9367 1.4827 1.2191 0.0839 0.0421 0.5409 0.2799 0.6447 0.2703 0.0218-0.0019 0.0292-0.0229 0.0251-0.0355-7e-3 -0.0262-0.0299-0.0417-0.0513-0.0553-0.1038-0.0488-0.2079-0.0979-0.312-0.1466-0.1791-0.0846-0.3555-0.1868-0.5236-0.2954-0.3939-0.2555-0.7572-0.5579-1.0917-0.926-0.1528-0.1679-0.2551-0.3418-0.3936-0.5427-0.1307-0.1887-0.3042-0.5346-0.3481-0.6059-0.0229-0.0376-0.055-0.062-0.0901-0.0413z" fill="#fff"/>
<path d="m29.169 25.564c-0.0443 0.0236-0.2931 0.4844-0.5073 0.7956-0.2381 0.3449-0.539 0.6772-0.8717 0.9452-0.278 0.2245-0.5497 0.388-0.8591 0.5497-0.1939 0.0942-0.4379 0.2042-0.4837 0.243-0.0613 0.0506-0.0303 0.0897 0.0414 0.0897 0.0627-0.0262 0.3478-0.1455 0.635-0.3039 0.6044-0.333 1.2184-0.8835 1.6396-1.4572 0.1813-0.2478 0.4265-0.7104 0.4531-0.775 0.0206-0.0506 0.0092-0.0816-0.0473-0.0871z" fill="#fff"/>
<path d="m21.555 20.055s-0.0617-0.1152 0.0727-0.1824c0.1359-0.0676 1.1424-0.3899 2.3323-0.3899 1.307 0 2.4427 0.4235 2.5088 0.4774 0.0901 0.0731 0.0081 0.2093-0.0934 0.189-0.1004-0.0199-1.1305-0.457-2.4017-0.457s-2.1592 0.3374-2.2374 0.3832c-0.0931 0.0539-0.1813-0.0203-0.1813-0.0203z" clip-rule="evenodd" fill="#fff" fill-rule="evenodd"/>
<path d="m20.178 24.15c0-1.5614 1.6706-2.8271 3.7319-2.8271 2.0617 0 3.7327 1.2657 3.7327 2.8271 0 1.5617-1.671 2.8274-3.7327 2.8274-2.0613 0-3.7319-1.2657-3.7319-2.8274z" stroke="#fff" stroke-miterlimit="3.864" stroke-width=".2"/>
<path d="m23.63 21.882c-0.0292 0.017-0.0787 0.0063-0.1134 0.0104-0.151 0.0199-0.302 0.0387-0.4482 0.0664-0.4234 0.0787-0.8311 0.2441-1.1759 0.4807-0.0875 0.0602-0.1875 0.1293-0.2573 0.2153-0.0019 0.0037-0.0041 7e-3 -7e-3 0.0111-0.0252 0.0417-0.0695 0.0734-0.0864 0.1192-0.0067 0.0185-0.013 0.0469-0.0059 0.0676 0.0236 0.0676 0.1495 0.1839 0.2122 0.2211 0.031 0.0189 0.0839 0.0547 0.0886 0.0938 0.0067 0.0598-0.0066 0.1171-0.0103 0.1699-7e-4 0.0712-7e-4 0.1425-7e-4 0.2137v1.468c-0.0011 0.0613-0.0026 0.1215-0.0045 0.1824-0.0081 0.0303-0.1284 0.1462-0.1569 0.1787-0.0376 0.0432-0.0572 0.0975-0.0882 0.1432-4e-4 0.0037-0.0022 0.0071-0.0037 0.0104 0.0181 0.017 0.0148 0.0498 0.0273 0.0705 0.0366 0.0602 0.0975 0.1237 0.1555 0.1684 0.4722 0.3688 1.1822 0.5722 1.8135 0.6228 0.2496 0.0196 0.5062 0.0011 0.7591 0.0011 0.0214-0.0218 0.1783-0.0218 0.2215-0.0218 0.0203-0.0199 0.1303-0.0214 0.1658-0.0214 0.0207-0.0225 0.0897-0.0225 0.1222-0.0225 0.0126-0.0129 0.0365-0.0129 0.0569-0.0129 0.0203-0.0214 0.0683-0.0214 0.0997-0.0214 0.0147-0.0167 0.055-0.0218 0.0786-0.0218 0.0144-0.0155 0.0513-0.0222 0.0738-0.0222 0.0144-0.0159 0.0558-0.0214 0.0783-0.0214 0.0225-0.0247 0.0883-0.0436 0.1226-0.0436 0.017-0.0236 0.0476-0.0273 0.0716-0.0384 0.0609-0.0295 0.1215-0.059 0.1816-0.0886 0.2109-0.1244 0.4003-0.2924 0.5118-0.5121 0.0221-0.0424 0.0543-0.0838 0.0543-0.1369 0.0173-0.0174 0.0214-0.0514 0.0214-0.0783 0.0254-0.0251 0.0217-0.0831 0.0217-0.1218 0.0281-0.0318 0.0137-0.1289 0.013-0.1743-0.0063-0.4316-0.3419-0.847-0.7163-1.0072-7e-3 -3e-3 -0.0244-0.0037-0.0244-0.0129 0.0274-0.0189 0.0646-0.0569 0.1008-0.0569 0.0277-0.0413 0.1186-0.0768 0.1606-0.113 0.0883-0.0742 0.3009-0.2839 0.3009-0.3961 0.0148-0.0141 0.0215-0.0351 0.0215-0.0569 0.0177-0.0166 0.0221-0.0491 0.0221-0.0746 0.031-0.0325 0.0218-0.1163 0.0218-0.1654 0.0277-0.0299 0.0085-0.1008 0.0026-0.1351-0.0377-0.2057-0.1207-0.3777-0.2622-0.5291-0.0321-0.0343-0.0679-0.0598-0.0997-0.0923-0.1-0.1037-0.2314-0.1702-0.354-0.2315-0.3441-0.172-0.7436-0.264-1.1604-0.2835-0.2027-4e-4 -0.4043-8e-4 -0.6059-8e-4z" fill="#fff"/>
<path d="m23.843 22.256c0.2359 0 0.4689 0.0203 0.6505 0.127 0.2821 0.1654 0.3659 0.5069 0.3242 0.8318-0.0259 0.1939-0.0905 0.3811-0.237 0.5095-0.1433 0.1252-0.329 0.1558-0.5236 0.181-0.4308 0.0553-0.8768-0.0946-0.9994-0.5084-0.0299-0.1001-0.0532-0.2101-0.0547-0.3216 0.0026-0.055 0.0056-0.1108 0.0082-0.1654 0.0184-0.0203 0.0214-0.0717 0.0214-0.1005 0.0147-0.0147 0.0225-0.0435 0.0225-0.0653 0.0118-0.0107 0.021-0.0307 0.021-0.048 0.0085-0.0078 0.0133-0.0181 0.0133-0.0306 0.0237-0.0185 0.0658-0.0828 0.0658-0.1134 0.0339-0.0192 0.0531-0.0569 0.0808-0.0831 0.0746-0.0697 0.2141-0.1561 0.3197-0.1561 0.0104-0.0119 0.0273-0.013 0.0436-0.013 0.0225-0.0243 0.0871-0.0221 0.1222-0.0221 0.0262-0.0284 0.0894-0.0041 0.1215-0.0218z" fill="#000"/>
<path d="m23.787 24.248c0.2895 0 0.5446 4e-3 0.7743 0.11 0.4899 0.2263 0.5353 1.0411 0.1964 1.4148-0.2455 0.2732-0.7742 0.3212-1.1375 0.2256-0.0831-0.0226-0.1665-0.0403-0.2404-0.082-0.0978-0.0565-0.175-0.1288-0.2418-0.2212-0.0945-0.1303-0.1488-0.3175-0.1569-0.4888-0.0044-0.0963 0.0081-0.192 0.0081-0.2835 0.0181-0.0178 0.0218-0.0591 0.0218-0.0868 0.0159-0.0159 0.0214-0.0465 0.0214-0.0698 0.0144-0.0118 0.0225-0.0332 0.0225-0.0524 0.0159-0.0137 0.0343-0.0469 0.0343-0.0702 0.0388-0.0291 0.0643-0.0875 0.092-0.1262 0.0317-0.0443 0.1565-0.1473 0.209-0.1473 0.018-0.0233 0.0657-0.0443 0.096-0.0443 0.0136-0.0159 0.0476-0.0215 0.0694-0.0215 0.017-0.0188 0.0605-0.0217 0.0875-0.0217 0.0317-0.034 0.1085-0.0045 0.1439-0.0347z" fill="#000"/>
<path d="m27.258 20.139c0.0553-0.0162 0.1093-0.0037 0.1462 0.0362 0.035 0.0384 0.0251 0.103-0.02 0.1281-0.0365 0.0203-0.0853 0.0222-0.1262 0.0329-0.1053 0.0273-0.4667 0.0801-0.4866 0.2056-0.0108 0.0724 0.0849 0.1562 0.1214 0.182 0.0499 0.0436-0.0365-0.0384 0.0133 0.0052 0.0727 0.0639 0.2348 0.1758 0.1473 0.2906-0.0214 0.0277-0.0565 0.0406-0.0927 0.0369-0.1724-0.0174-0.4076-0.3596-0.4279-0.4161-0.0247-0.0701-0.0147-0.1421 0.0251-0.2001 0.1348-0.1931 0.4929-0.2304 0.7001-0.3013z" fill="#000"/>
<path d="m30.134 20.696c-0.0093 0.1466 0.4106 0.1167 0.5128 0.1259 0.1518 0.0137 0.4471 0.123 0.5036 0.0724 0.0683-0.0609 0.141-0.3497 0.0185-0.3552-0.178-0.0074-0.2452 0.0126-0.4434 0.0277-0.2038 0.0126-0.5823-0.0137-0.5915 0.1292z" fill="#fff"/>
<path d="m17.707 20.747c0.0059 0.1012-0.4235 0.1001-0.5254 0.1093-0.1514 0.0137-0.394 0.1178-0.4755 0.0277-0.0617-0.0675-0.1407-0.2647-0.0174-0.2699 0.1772-0.0077 0.3024 0.0045 0.4999 0.0196 0.2049 0.0125 0.5092-0.0332 0.5184 0.1133z" fill="#fff"/>
<path d="m20.96 20.109c0.2008 0.0502 0.3156 0.0447 0.4316 0.2337 0.0583 0.0938 0.062 0.244-0.0358 0.374-0.0632 0.0849-0.0872 0.1115-0.1566 0.1961-0.0709 0.0856-0.0794 0.1436-0.1994 0.1609-0.0398 0.0059-0.0742-0.0037-0.0963-0.0358-0.0794-0.1148 0.0893-0.254 0.1783-0.3544 0.034-0.0384 0.1108-0.1525 0.0982-0.2001-0.0236-0.1569-0.2119-0.1544-0.3367-0.1931-0.0458-0.0148-0.1735-0.0384-0.2138-0.0639-0.0483-0.0306-0.034-0.0897-0.0052-0.1337 0.0226-0.0343 0.1392-0.0299 0.3357 0.0163z" fill="#000"/>
<path d="m29.814 20.646c0.0432 0.0111 0.0979 0.0122 0.1064 0.065 0.0096 0.0657-0.0403 0.1281-0.1736 0.1429-0.0926-0.0096-0.2798-0.175-0.3526-0.0292-0.0623 0.1233 0.3301 0.1724 0.3124 0.2946-0.014 0.1023-0.0513 0.1189-0.1418 0.1189-0.041 0.0022-0.1377-0.0568-0.1706-0.069-0.0901-0.0417-0.3035-0.2112-0.3839-0.0753-0.0794 0.1343 0.4626 0.3167 0.4482 0.4216-0.0144 0.0993-0.1141 0.1776-0.1894 0.1517-0.1041-0.0251-0.4375-0.4164-0.5889-0.2628-0.1396 0.1417 0.4179 0.3902 0.3903 0.4766-0.0473 0.1451-0.1743 0.1883-0.3512 0.0414-0.0923-0.0768-0.2377-0.2197-0.3208-0.1078-0.1023 0.138 0.1923 0.3119 0.2182 0.3581 0.0646 0.1163-0.0838 0.2507-0.1817 0.2285-0.0908-0.0122-0.2248-0.3548-0.3518-0.237-0.0975 0.0897 0.1406 0.3035 0.1159 0.3888-0.01 0.0793-0.2119 0.1838-0.3057 0.1104-0.1289-0.0857 0.175-0.531-0.1233-0.9508-0.1444-0.1783-0.2618-0.4552-0.2699-0.5039-0.0114-0.0853-0.0052-0.2319 0.0495-0.305 0.2089-0.2802 1.1571-0.2614 1.5621-0.2802 0.2714-0.0129 0.4242 0.0225 0.7022 0.0225z" fill="#fff"/>
<path d="m17.964 20.687c-0.0546 0-0.1019 0.0118-0.11 0.0664-0.0103 0.0672-4e-4 0.1739 0.1133 0.1769 0.1341 0.0022 0.2976-0.1761 0.3759-0.0635 0.0886 0.127-0.3692 0.2034-0.2961 0.3577 0.0941 0.1972 0.2798 0.0166 0.3138 0.0045 0.0923-0.0432 0.3803-0.2998 0.4973-0.1307 0.1038 0.1488-0.3692 0.3647-0.4264 0.4356-0.0163 0.0207-0.0498 0.1322-0.0369 0.1595 0.1033 0.2297 0.3644 0.0096 0.5394-0.182 0.065-0.0713 0.1122-0.1104 0.1772-0.1274 0.0897-0.0232 0.168-0.0055 0.192 0.075 0.0144 0.0458 7e-4 0.0997-0.0329 0.131-0.0365 0.0351-0.4441 0.3294-0.4305 0.4173 0.0281 0.1783 0.1359 0.2019 0.2149 0.1639 0.0849-0.0377 0.3234-0.4427 0.4641-0.3892 0.0373 0.0144 0.0838 0.0207 0.0986 0.0565 0.0207 0.0491 0.0125 0.1178-0.0185 0.1592-0.0395 0.0531-0.114 0.1229-0.1643 0.1672-0.0428 0.0377-0.0904 0.0823-0.1159 0.1292-0.0664 0.1193 0.0321 0.1739 0.141 0.1739 0.0384 0 0.0591-0.0214 0.0857-0.0443 0.0665-0.0565 0.1355-0.3083 0.2703-0.2411 0.141 0.0709-0.12 0.2703-0.0942 0.4117 0.0384 0.1067 0.2079 0.1285 0.2548 0.0491 0.0516-0.1266 0.021-0.322 0.0731-0.542 0.0506-0.1972 0.1923-0.4988 0.2606-0.6177 0.0436-0.0701 0.0964-0.1251 0.1163-0.209 0.0015-0.0059 0.0026-0.0114 0.0037-0.0173 0.0115-0.0883-0.0443-0.161-0.1041-0.2149-0.0982-0.0897-0.2308-0.1447-0.3537-0.1857-0.3626-0.1207-0.7506-0.1318-1.1663-0.151-0.2795-0.0137-0.5572-0.0188-0.8422-0.0188z" fill="#fff"/>
<path d="m27.735 22.946c0.051-0.103 0.2825 0.01 0.3039 0.0296 0.0639 0.0561 0.0857 0.148 0.1329 0.2152 0.058 0.0827 0.2086 0.2577 0.2001 0.3515-7e-3 0.0761-0.2998 0.3031-0.3636 0.2496-0.0019-0.0019-0.0034-0.0044-0.0063-0.0067-0.0432-0.2828-0.1366-0.5545-0.2736-0.8089 0-0.0111 0.0029-0.0214 0.0066-0.0303z" fill="#fff"/>
<path d="m28.052 23.934c0.0805 0 0.2178 0.0314 0.2736 0.0805 0.0461 0.0403 0.0694 0.1008 0.1023 0.1507l0.1698 0.2396 0.3943 0.5298 0.1805 0.2329c0.0337 0.0573 0.0244 0.0997-0.0254 0.1392l-0.0307 0.0041c-0.1835 0-0.4685-0.0683-0.5933-0.1783-0.0624-0.0554-0.0956-0.1211-0.1355-0.1872l-0.1927-0.3563c-0.031-0.0532-0.1418-0.216-0.1613-0.274-0.0023-0.0066-0.0052-0.0155-0.0074-0.0258 0.0029-0.0461 4e-3 -0.0923 4e-3 -0.1392 0-0.0616-0.0022-0.1233-0.0066-0.1846 0.0066-0.0177 0.0159-0.0295 0.0284-0.0314z" fill="#fff"/>
<path d="m19.368 24.112c0.1056-0.1462 0.2429-0.267 0.371-0.2474 0.0296 0.0011 0.051 0.0122 0.065 0.0288-0.0096 0.0846-0.014 0.1706-0.014 0.257l0.0011 0.0398-0.0033 0.0089c-0.0362 0.1296-0.0495 0.0997-0.137 0.2692-0.1329 0.2566-0.278 0.6236-0.3637 0.6631-0.1248 0.0576-0.3149 0.0505-0.4522 0.0849-0.1965 0.0498-0.336-0.0011-0.336-0.0927 7e-4 -0.1174 0.7904-0.8927 0.8691-1.0116z" fill="#fff"/>
<path d="m19.42 25.324c0.1155 0.0111 0.1521 0.165 0.2883 0.1975 0.0864 0.0207 0.1865-0.0258 0.2544-0.065 0.0439-0.0254 0.1052-0.0757 0.1636-0.0694 0.3913 0.686 1.0984 1.2446 1.9826 1.5706 0.0019 0.0037 0.0033 7e-3 0.0052 0.0107 7e-3 0.0344-3e-3 0.0628-0.0148 0.0772-0.0465 0.0532-0.4966 0.7613-0.5885 0.7835-0.0805 0.0284-0.3895-0.1695-0.5007-0.2301-0.5866-0.3175-1.1416-0.7428-1.5709-1.2959-0.1359-0.1739-0.5195-0.6202-0.5151-0.8045 0.0037-0.1299 0.4279-0.1776 0.4959-0.1746z" fill="#fff"/>
<path d="m28.434 25.429c0.0487-0.0196 0.3991 0.11 0.405 0.196-0.0033 0.0709-0.2178 0.3714-0.4582 0.6938-0.4212 0.5656-0.9437 0.9485-1.5274 1.2737-0.1255 0.0698-0.2588 0.1333-0.3917 0.1883l-0.1126 0.0443c-0.0351 0-0.0669-0.0092-0.089-0.0328-0.0451-0.0466-0.5003-0.7252-0.5217-0.7543-0.0174-0.0233-0.0125-0.0632 0.0037-0.0909 0.8296-0.3134 1.5005-0.8314 1.8966-1.4672 0.0668-0.0184 0.1839 0.082 0.2348 0.1071 0.0886 0.0436 0.2005 0.0875 0.3098 0.0572 0.1145-0.0314 0.161-0.1743 0.2507-0.2152z" fill="#fff"/>
<path d="m24.528 27.237c0.0462 0.0273 0.0702 0.0793 0.0875 0.1144 0.0351 0.0716 0.1462 0.7174 0.2042 0.9696 0.0177 0.0838 0.041 0.2134 0.0273 0.3016-0.0118 0.0772-0.1011 0.185-0.1942 0.1975-0.0771 0.0115-0.2315-0.1052-0.2577-0.1635-0.0339-0.0772-0.0284-0.1717-0.0365-0.2618-0.0203-0.2717-0.0602-0.9263-0.0602-0.9965 0-0.0413 0.0136-0.1052 0.0569-0.1447 0.0579-0.0048 0.1155-0.01 0.1727-0.0166z" fill="#fff"/>
<path d="m25.06 27.148c0.0248 0.0218 0.0432 0.0487 0.058 0.0683 0.0487 0.0665 0.2762 0.6989 0.3792 0.9444 0.0336 0.0809 0.0801 0.2083 0.0816 0.2995 0.0018 0.0805-0.0691 0.2053-0.1603 0.2341-0.0768 0.0254-0.2529-0.0643-0.2894-0.1193-0.0487-0.0716-0.0598-0.168-0.0846-0.2581-0.0687-0.271-0.2259-0.9252-0.2385-0.9957-0.0059-0.0336-0.0055-0.0831 0.0137-0.1263 0.0816-0.0137 0.161-0.0295 0.2403-0.0469z" fill="#fff"/>
<path d="m25.546 27.016c0.0318 0.0196 0.0569 0.0473 0.0768 0.0679 0.0562 0.0599 0.3593 0.6602 0.4915 0.8909 0.0424 0.0765 0.1048 0.1968 0.1181 0.2873 0.0107 0.0794-0.0443 0.2115-0.1314 0.2522-0.0728 0.0339-0.2589-0.0336-0.302-0.0835-0.0569-0.0653-0.0794-0.1595-0.1149-0.2459-0.1015-0.2606-0.3371-0.8909-0.3581-0.9596-0.0114-0.0365-0.017-0.0945 0.0044-0.1439 0.0728-0.0203 0.1451-0.0418 0.2156-0.0654z" fill="#fff"/>
<path d="m23.995 27.271c0.0421 0.0335 0.0591 0.0875 0.0723 0.1236 0.0263 0.0761 0.0584 0.7307 0.0842 0.9884 0.0078 0.0846 0.0155 0.2167-0.0088 0.302-0.0218 0.0753-0.123 0.1713-0.2167 0.1728-0.0783 0.0011-0.2179-0.1325-0.236-0.1938-0.0251-0.0809-7e-3 -0.1739-0.0048-0.2651 0.0133-0.2718 0.0525-0.9264 0.0613-0.9954 0.0048-0.0399 0.0247-0.0982 0.0683-0.1325 0.0325 7e-4 0.0643 7e-4 0.0953 7e-4 0.0284 0 0.0568 0 0.0849-7e-4z" fill="#fff"/>
<path d="m23.502 27.256c0.034 0.0388 0.0421 0.0938 0.0487 0.1304 0.0144 0.0793-0.0564 0.7303-0.0705 0.9894-0.0063 0.0846-0.0192 0.2164-0.0565 0.2969-0.0336 0.0709-0.1484 0.1499-0.2407 0.1366-0.0783-0.0107-0.1938-0.1654-0.2027-0.2286-0.0118-0.0841 0.02-0.1727 0.0362-0.2621 0.0557-0.2666 0.1975-0.9071 0.2167-0.974 0.0093-0.0332 0.0325-0.0775 0.0691-0.107 0.066 7e-3 0.1329 0.0133 0.1997 0.0184z" fill="#fff"/>
<path d="m23.006 27.196c0.0417 0.0469 0.0399 0.1141 0.0406 0.1577 0 0.0805-0.1828 0.7092-0.2422 0.9614-0.0207 0.0831-0.0561 0.2101-0.1071 0.2835-0.045 0.0636-0.1717 0.1215-0.2603 0.0924-0.0746-0.0244-0.1628-0.1961-0.1606-0.2603 3e-3 -0.0846 0.0499-0.1666 0.0824-0.2518 0.1004-0.2529 0.3511-0.8588 0.3817-0.9216 0.0159-0.031 0.0462-0.0716 0.0886-0.0949 0.0576 0.013 0.1171 0.0237 0.1769 0.0336z" fill="#fff"/>
<path d="m22.52 27.089c0.0296 0.0516 0.0174 0.1137 0.0115 0.1546-0.0118 0.0791-0.291 0.6724-0.3892 0.9124-0.0332 0.0786-0.0886 0.1986-0.1499 0.2625-0.0546 0.0565-0.1894 0.0934-0.2724 0.0509-0.0694-0.0358-0.1293-0.2193-0.1171-0.2824 0.0159-0.0827 0.075-0.1566 0.1204-0.2356 0.1388-0.2341 0.4811-0.793 0.5213-0.8506 0.0166-0.0237 0.0443-0.0521 0.079-0.0694 0.0646 0.0206 0.1307 0.0395 0.1964 0.0576z" fill="#fff"/>
<path d="m19.894 22.922c0.0683-0.017 0.2041-0.0691 0.2292-0.0022-0.1454 0.2551-0.2462 0.5276-0.2964 0.8122-0.0528 0.0307-0.1858-0.0465-0.322-0.1037-0.1842-0.0787 0.0905-0.2348 0.1861-0.3759 0.0517-0.0764 0.1373-0.278 0.2031-0.3304z" fill="#fff"/>
<path d="m19.81 24.466c0.0373 0.2706 0.1181 0.5301 0.2392 0.7753-0.0269 0.0498-0.2983 0.1528-0.4448 0.0292-0.0827-0.1023 0.1118-0.8164 0.2056-0.8045z" fill="#fff"/>
<path d="m38.569 19.838c0.0668 0 0.1259 0 0.1783 0.027 0.0724 0.0369 0.2861 0.2488 0.2839 0.3341-0.0015 0.0454-0.2684 0.1289-0.3884 0.1743-0.0893 0.0402-0.2905 0.1207-0.3249 0.1318-0.0225 0.0081-0.1824 0.0096-0.209 0.0089-0.0361 0.0011-0.2853 0.0036-0.3898 0.0036-0.0421 0.0015-0.8012 0.0215-1.0593 0.0215-0.2869 0-0.5686 0.0066-0.8543 0.0066-0.0639 0-0.3903 0.0052-0.4095 0.0074h-1.4901l-0.1045 0.0041-0.0654 4e-3h-0.7886c-0.0598 0-0.4585 0.0118-0.6365 0.0222-0.2455 0.0203-0.6073 0.0509-0.6232 0.052-0.048 0-0.144 0.0181-0.1584-0.0354-0.0151-0.0572 0.1034-0.0842 0.1407-0.0912 0.439-0.0864 0.8794-0.1916 1.3764-0.2537 0.8266-0.1037 1.2246-0.1163 1.3594-0.1561 0.0783-0.024 0.0624-0.1259 0-0.1337-0.8865-0.1045-2.8691 0.2843-3.1538 0.3434-0.5287 0.1141-0.9204 0.1425-1.0508 0.1436h-1.2327c-0.6857-0.0011-0.9825 0.0742-1.0294 0.0834-0.1325 0.0303-0.2577 0.072-0.3755 0.133-0.2496 0.1281-0.4083 0.2861-0.3031 0.5859 0.0373 0.0646 0.0727 0.1536 0.1089 0.2182 0.0849 0.1687 0.1942 0.3766 0.2825 0.5416 0.0638 0.1174 0.1034 0.2647 0.1034 0.4121l-0.0355 0.1831c-0.0022 0.0314-0.079 0.1665-0.1193 0.1425-4e-3 -3e-3 -0.011-0.0107-0.0202-0.021-0.0484-0.0709-0.0997-0.1407-0.1544-0.2083-0.0177-0.0247-0.0317-0.0447-0.038-0.052-0.0639-0.0835 0.1207-0.1976 0.1037-0.3035-0.0347-0.2101-0.3433-0.6122-0.5752-0.8038-0.1358-0.1122-0.2618-0.261-0.3825-0.3984-0.0498-0.0683-0.1056-0.1248-0.1562-0.1923-0.0443-0.0598-0.065-0.0971-0.083-0.1702-0.0351-0.1459 0.0524-0.2345 0.1465-0.3094 0.0562-0.0447 0.1625-0.1112 0.2493-0.1466 0.234-0.0964 0.783-0.1938 1.1079-0.2363 0.1079-0.0107 0.3715-0.0421 0.5686-0.0461 0.2201 0 0.4298 0.0066 0.6358 0.0225 0.4017 0.0314 0.7942 0.1063 1.2117 0.1122 0.6078 0.0096 1.1926-0.0284 1.7822-0.0568 0.2629-0.0126 0.5402-0.03 0.8215-0.0536 0.4316-0.0369 1.7475-0.0203 1.9417-0.0081 0.0956 0.0055 0.9669 0.0413 1.4074 0.0753 0.0978 0.0074 0.1772 0.0166 0.2403 0.0277 0.1935-0.0041 0.3855 0.0044 0.5749-7e-3 0.3541-0.0225 0.7092-0.0617 1.0589-0.0897l0.5276-0.0488z" fill="#fff"/>
<path d="m14.197 19.803c0.5619 0 1.0589 0.0473 1.6016 0.0735 0.2787 0.0125 0.5487 0.0184 0.8274 0.0314 0.281 0.0133 0.5693 0.0347 0.8551 0.0347 0.5124 0 0.9954-0.0333 1.4942-0.0565l0.3836-0.0011c0.2392-0.0041 0.5036-0.0141 0.7454 0.0092 0.1507 0.014 0.3028 0.0151 0.4486 0.0321 0.1983 0.0229 0.5409 0.0635 0.6849 0.1285 0.1329 0.0591 0.2296 0.1488 0.2806 0.2053 0.0978 0.1078 0.2437 0.2762 0.162 0.4032-0.0335 0.0638-0.127 0.1569-0.1757 0.213-0.065 0.0727-0.5726 0.4944-0.6989 0.6738-0.1144 0.1599-0.1477 0.2802-0.2182 0.4058-0.0964 0.1613 0.0096 0.2813-0.0259 0.3758-0.1048 0.1115-0.2012 0.2278-0.2872 0.3497-0.0188 0.0103-0.0354 0.0136-0.0487 4e-3 -0.0872-0.0609-0.0702-0.1912-0.0491-0.3603 0.0092-0.1274 0.1115-0.3907 0.1488-0.4586 0.0716-0.1351 0.3027-0.4187 0.3212-0.47 0.148-0.415-0.2644-0.6716-0.5778-0.7739-0.1041-0.0339-0.2083-0.0727-0.3175-0.0926-0.404-0.0731-0.8367-0.065-1.2723-0.0787-0.2995-0.0092-0.6151-0.021-0.9201-0.021l-0.6583-0.0015c-0.2101-0.0166-0.4227-0.0288-0.6188-0.0753-0.336-0.0798-0.6177-0.1529-0.9537-0.2271-0.2857-0.0627-0.5944-0.1174-0.8997-0.1366-0.2079-0.0129-0.5697-0.0358-0.7853-0.0358-0.1588 0-1.3347-0.0122-1.5086 0.0362-0.0602 0.0118-0.0506 0.1252-0.01 0.1351 0.226 0.0646 1.0648 0.0831 1.6208 0.0639 0.3268 0.0159 0.6919 0.0565 1.001 0.1008 0.3998 0.0568 0.769 0.1296 1.1397 0.247l0.3958 0.1034c0.0654 0.0203 0.1506 0.0638 0.0613 0.1251-0.2448 0-0.4711-0.0476-0.7192-0.0513-0.6247 0-1.526-0.0188-2.1525-0.0188-0.0654-0.0041-3.1028-0.0366-3.4654-0.0572-0.40353-0.0233-0.76722-0.2168-0.90309-0.2836-0.05169-0.0229-0.2038-0.141-0.19456-0.1643 0.02916-0.0749 0.19456-0.3574 0.32417-0.3677 0.27469 0.0258 0.61324 0.0624 0.89648 0.0749 0 0 2.0287-0.0225 2.0886-0.0269 0.3057-0.024 1.0319-0.0554 1.3457-0.0609 0.1739-3e-3 0.4682-0.0141 0.6336-0.0067z" fill="#fff"/>
<path d="m28.04 24.606c0.0938-0.0118 0.2891 0.7971 0.165 0.8584-0.1255 0.0668-0.4242-0.0864-0.4589-0.127-0.0066-7e-3 -0.0103-0.0155-0.011-0.0244 0.114-0.2149 0.1971-0.4408 0.2455-0.676 0.0162-0.0166 0.0347-0.0259 0.0594-0.031z" fill="#fff"/>
<path d="m23.981 19.866c-1.0161 0-2.1057 0.2872-2.1463 0.3492-0.0941 0.1481 0.1082 0.1422 0.1031 0.3478-0.0063 0.2518-0.202 0.4205-0.27 0.4933-0.2588 0.2747-0.5888 0.4146-0.817 0.7214-0.0174 0.0229-0.0343 0.1263-0.0111 0.158 0.0602 0.0805 0.2016-0.0085 0.2356-0.0354 0.48-0.3755 0.9304-0.5261 1.4746-0.6952 0.1351-0.0425 0.8207-0.1857 1.7054-0.1477 0.7819 0.0336 1.503 0.2381 2.1307 0.6066 0.2506 0.1469 0.4744 0.3297 0.7122 0.5272 0.0864 0.0728 0.1539-0.0336 0.1569-0.0731 0.0033-0.0458-0.034-0.1104-0.0576-0.1488-0.1806-0.3016-0.5789-0.5741-0.8551-0.8983-0.1366-0.1606-0.2049-0.2185-0.2562-0.3105-0.1688-0.2854 0.0893-0.3016 0.0568-0.4323-0.0251-0.1041-1.026-0.4622-2.162-0.4622z" fill="#fff"/>
</g>
<defs>
<clipPath id="a">
<rect transform="translate(8 19)" width="32" height="10.656" fill="#fff"/>
</clipPath>
</defs>
</svg>
