<?xml version="1.0" encoding="UTF-8"?>
<svg width="48" height="48" fill="none" viewBox="0 0 48 48" xmlns="http://www.w3.org/2000/svg">
<path d="m34.587 16.93-0.5561-0.0613-10.037-1.1195v0.3752l9.997 1.1135 0.596-0.3079z" fill="#A1C1E4"/>
<path d="m34.587 16.929-0.5561-0.0614-10.037-1.1194v0.3751l9.997 1.1135 0.596-0.3078z" fill="url(#cc)"/>
<path d="m23.994 16.122 9.997 1.1135-1.5095 2.6885s-0.1858 3.6155-0.3091 5.0363c-0.1232 1.4219-0.1541 2.5348-1.2325 2.9981-2.1579 0.9277-4.819 1.7571-6.9459 2.221v-14.057z" fill="#D3E2F5"/>
<path d="m23.994 16.121 9.997 1.1134-1.5095 2.6885s-0.1858 3.6156-0.3091 5.0363c-0.1232 1.4219-0.1542 2.5348-1.2325 2.9981-2.1579 0.9277-4.819 1.7571-6.9459 2.221v-14.057z" fill="url(#br)"/>
<path d="m34.587 16.929-0.596 0.3079-1.5095 2.6884 0.3686 0.0536 1.4624-2.5604 0.2745-0.4895z" fill="#415050"/>
<path d="m34.586 16.928-0.5961 0.3079-1.5094 2.6884 0.3686 0.0536 1.4623-2.5604 0.2746-0.4895z" fill="url(#bg)"/>
<path d="m13.401 16.931 0.5562-0.0613 10.037-1.1194v0.3751l-9.9958 1.1135 1.5095 2.6884s0.1852 3.6156 0.3084 5.0363c0.1227 1.422 0.1531 2.5349 1.2326 2.9981 2.1568 0.9277 4.8196 1.7572 6.9453 2.221v0.3823c-2.2579-0.4924-5.0124-1.3683-7.0911-2.2615-1.2213-0.5258-1.3202-1.7042-1.4351-3.0683l-0.0203-0.2388c-0.1125-1.2892-0.281-4.4558-0.3095-5.0155l-1.4625-2.5604-0.2745-0.4895z" fill="#F6F8FD"/>
<path d="m13.4 16.933 0.5561-0.0614 10.037-1.1194v0.3751l-9.9958 1.1135 1.5095 2.6885s0.1851 3.6155 0.3084 5.0363c0.1227 1.4219 0.1531 2.5348 1.2326 2.998 2.1567 0.9278 4.8195 1.7572 6.9453 2.2211v0.3822c-2.2579-0.4924-5.0125-1.3683-7.0912-2.2615-1.2212-0.5258-1.3201-1.7041-1.435-3.0683l-0.0203-0.2388c-0.1125-1.2891-0.281-4.4557-0.3096-5.0155l-1.4624-2.5604-0.2745-0.4894z" fill="url(#av)"/>
<path d="m13.401 16.93 0.5562-0.0613 10.037-1.1195v0.3752l-9.9958 1.1135-0.5972-0.3079z" fill="#BECDE1"/>
<path d="m13.4 16.929 0.5561-0.0614 10.037-1.1194v0.3751l-9.9958 1.1135-0.5972-0.3078z" fill="url(#ak)"/>
<path d="m23.994 16.122-9.9958 1.1135 1.5095 2.6885s0.1852 3.6155 0.3084 5.0363c0.1227 1.4219 0.1531 2.5348 1.2326 2.9981 2.1568 0.9277 4.8196 1.7571 6.9453 2.221v-14.057z" fill="#F4F6FD"/>
<path d="m23.994 16.121-9.9958 1.1134 1.5095 2.6885s0.1852 3.6156 0.3084 5.0363c0.1227 1.4219 0.1531 2.5348 1.2327 2.9981 2.1567 0.9277 4.8195 1.7571 6.9452 2.221v-14.057z" fill="url(#z)"/>
<path d="m13.401 16.929 0.5972 0.3079 1.5095 2.6884-0.3697 0.0536-1.4625-2.5604-0.2745-0.4895z" fill="#415050"/>
<path d="m13.4 16.928 0.5972 0.3079 1.5095 2.6884-0.3698 0.0536-1.4624-2.5604-0.2745-0.4895z" fill="url(#o)"/>
<path d="m32.482 19.928s-0.1858 3.6155-0.3091 5.0363c-0.1232 1.4219-0.1542 2.5348-1.2325 2.998-2.1579 0.9277-4.819 1.7572-6.9459 2.2211v0.3822c2.2585-0.4924 5.0131-1.3683 7.0918-2.2615 1.2212-0.5258 1.3201-1.7041 1.4344-3.0683l0.0202-0.2388c0.1132-1.2891 0.2799-4.4557 0.3097-5.0155l-0.3686-0.0535z" fill="#7D8283"/>
<path d="m32.822 19.976c-0.028 0.5174-0.1971 3.7185-0.3096 5.0178 0 0.0071-0.0203 0.2352-0.0209 0.2429-0.1143 1.3583-0.2131 2.5224-1.4171 3.0398-2.0841 0.8967-4.8315 1.7685-7.0805 2.2591l-0.028-0.3805c2.1258-0.4638 4.7892-1.2927 6.9459-2.2198 1.079-0.4638 1.1105-1.5654 1.2326-2.9874 0.1238-1.4207 0.3085-5.0369 0.3085-5.0369l0.3691 0.065z" fill="#787E80"/>
<path d="m32.793 19.972c-0.0239 0.474-0.1959 3.7096-0.3085 5.0196-0.0017 0.0155-0.0202 0.2323-0.0208 0.2471-0.1143 1.3517-0.2125 2.5015-1.4005 3.0112-2.0912 0.8992-4.8303 1.7679-7.0692 2.2556l-0.0559-0.3757c2.1269-0.4645 4.7886-1.2939 6.9453-2.2211 1.079-0.4638 1.1111-1.5547 1.2344-2.976 0.1238-1.4219 0.3084-5.0375 0.3084-5.0375l0.3668 0.0768z" fill="#737A7C"/>
<path d="m32.765 19.969c-0.022 0.4306-0.1947 3.7014-0.3084 5.0209-0.0018 0.0232-0.0203 0.2286-0.0215 0.2518-0.1137 1.344-0.2125 2.4801-1.3826 2.9838-2.0966 0.9003-4.8303 1.7655-7.0584 2.252l-0.084-0.3751c2.1264-0.4639 4.7892-1.2927 6.9465-2.2204 1.0784-0.4639 1.1106-1.544 1.2332-2.9654 0.1239-1.4213 0.3084-5.0369 0.3084-5.0369l0.3668 0.0893z" fill="#6E7578"/>
<path d="m32.737 19.965c-0.0208 0.3877-0.194 3.6924-0.3095 5.0226-0.0024 0.0304-0.0197 0.2257-0.0215 0.2561-0.1125 1.3374-0.2108 2.4598-1.3647 2.9546-2.1032 0.9045-4.8286 1.7667-7.0472 2.2496l-0.112-0.371c2.1258-0.465 4.7893-1.2939 6.946-2.2216 1.0789-0.4632 1.1117-1.5321 1.2349-2.9546 0.1227-1.4219 0.3085-5.0369 0.3085-5.0369l0.3655 0.1012z" fill="#687173"/>
<path d="m32.708 19.96c-0.0172 0.3448-0.1923 3.6841-0.3084 5.0238-0.0035 0.0387-0.0185 0.2233-0.0221 0.2602-0.1131 1.3321-0.2107 2.439-1.3486 2.9285-2.1073 0.9056-4.8273 1.7637-7.0347 2.2454l-0.1399-0.3692c2.1269-0.4644 4.7892-1.2945 6.9459-2.2192 1.0784-0.4651 1.1123-1.5244 1.2356-2.9451 0.1232-1.4213 0.3078-5.0375 0.3078-5.0375l0.3644 0.1131z" fill="#646D70"/>
<path d="m32.68 19.956c-0.0149 0.3013-0.1917 3.6757-0.3084 5.0256-0.0048 0.0464-0.0186 0.2197-0.0221 0.265-0.1126 1.3248-0.2108 2.4169-1.3308 2.8992-2.1145 0.9087-4.8267 1.7631-7.0245 2.2425l-0.1674-0.3662c2.1264-0.4639 4.7893-1.2939 6.9454-2.2211 1.0789-0.4632 1.1128-1.5112 1.2355-2.9325 0.1245-1.422 0.3078-5.0369 0.3078-5.0369l0.3645 0.1244z" fill="#5F696C"/>
<path d="m32.652 19.952c-0.0131 0.2584-0.1911 3.6674-0.309 5.0274-0.0048 0.0541-0.0184 0.2173-0.0238 0.2685-0.1102 1.3195-0.2085 2.3973-1.3124 2.8719-2.1198 0.9116-4.8255 1.7619-7.0126 2.2388l-0.1959-0.3644c2.1275-0.4626 4.7886-1.2921 6.9465-2.2198 1.079-0.4633 1.1123-1.5005 1.2355-2.9219 0.1239-1.4213 0.3085-5.0369 0.3085-5.0369l0.3632 0.1364z" fill="#5A6569"/>
<path d="m32.623 19.948c-0.0108 0.2156-0.1894 3.6591-0.3085 5.0286-0.0048 0.0619-0.0185 0.215-0.0232 0.2739-0.1102 1.3124-0.2078 2.3758-1.2957 2.8433-2.1258 0.9134-4.8244 1.7613-7.0013 2.2365l-0.2233-0.3615c2.1263-0.4644 4.7886-1.2939 6.9459-2.221 1.0778-0.4632 1.1135-1.4886 1.2373-2.9111 0.1227-1.422 0.3067-5.0375 0.3067-5.0375l0.3621 0.1488z" fill="#556266"/>
<path d="m32.595 19.944c-9e-3 0.1727-0.1888 3.6501-0.3097 5.0304-0.0053 0.0691-0.0173 0.2108-0.0232 0.2781-0.109 1.3064-0.2073 2.3556-1.2779 2.8146-2.1317 0.917-4.8231 1.7614-6.9899 2.2342l-0.2519-0.3597c2.1263-0.4638 4.7898-1.2933 6.9465-2.2204 1.079-0.4633 1.1135-1.4785 1.2368-2.9004 0.1238-1.4208 0.309-5.0369 0.309-5.0369l0.3603 0.1601z" fill="#515E62"/>
<path d="m32.566 19.94c-0.0066 0.1292-0.1876 3.6412-0.3085 5.0327-0.0065 0.0769-0.0178 0.2073-0.0244 0.2817-0.1089 1.2993-0.2066 2.3342-1.2599 2.7873-2.1383 0.9182-4.8232 1.7595-6.9793 2.2299l-0.2787-0.3572c2.1258-0.4621 4.7886-1.2916 6.9448-2.2199 1.0789-0.4638 1.1152-1.4677 1.2379-2.8891 0.1244-1.4219 0.3084-5.0375 0.3084-5.0375l0.3597 0.1721z" fill="#4C5A5F"/>
<path d="m32.538 19.936c-0.0047 0.0863-0.1869 3.6328-0.3084 5.0345-0.0077 0.0852-0.0178 0.2042-0.0244 0.2858-0.1096 1.2933-0.2061 2.3133-1.2421 2.7593-2.1454 0.9224-4.822 1.7584-6.9691 2.2264l-0.3067-0.3543c2.1251-0.4626 4.788-1.2921 6.9459-2.2198 1.0778-0.4633 1.1147-1.4571 1.2379-2.879 0.1233-1.4213 0.3079-5.0369 0.3079-5.0369l0.359 0.184z" fill="#48575C"/>
<path d="m32.509 19.931c-0.0024 0.0429-0.1858 3.6245-0.3078 5.0363-0.0084 0.0923-0.0167 0.2013-0.0245 0.29-0.1089 1.2868-0.206 2.2931-1.2254 2.7313-2.1507 0.9242-4.8208 1.7578-6.9572 2.2234l-0.3353-0.3507c2.1264-0.4638 4.7887-1.2939 6.9454-2.221 1.0795-0.4633 1.1152-1.4458 1.2391-2.8677 0.1232-1.4219 0.3084-5.0381 0.3084-5.0381l0.3573 0.1965z" fill="#435459"/>
<path d="m23.631 29.835c2.1257-0.4639 4.788-1.2939 6.9453-2.221 1.0796-0.4633 1.1164-1.4357 1.2391-2.857 0.1245-1.4213 0.3091-5.0369 0.3091-5.0369l0.3572 0.2078s-0.1858 3.6156-0.309 5.0363c-0.0096 0.1006-0.0161 0.1995-0.0244 0.296-0.1084 1.279-0.2055 2.2716-1.2082 2.7021-2.1579 0.9277-4.819 1.7572-6.9459 2.221l-0.3632-0.3483z" fill="#3F5257"/>
<path d="m15.501 19.928s0.1851 3.6155 0.3078 5.0363c0.1232 1.4219 0.1542 2.5348 1.2326 2.998 2.1573 0.9277 4.8201 1.7572 6.9453 2.2211v0.3822c-2.258-0.4924-5.0125-1.3683-7.0906-2.2615-1.2213-0.5258-1.3207-1.7041-1.4351-3.0683l-0.0208-0.2388c-0.1114-1.2891-0.2798-4.4557-0.3096-5.0155l0.3704-0.0535z" fill="#7D8283"/>
<path d="m15.16 19.976c0.0268 0.5174 0.1965 3.7185 0.3096 5.0178 6e-4 0.0071 0.0196 0.2352 0.0202 0.2429 0.1143 1.3583 0.2132 2.5224 1.4184 3.0398 2.0841 0.8967 4.8309 1.7685 7.0787 2.2591l0.0285-0.3805c-2.1263-0.4638-4.7885-1.2927-6.9452-2.2198-1.0784-0.4638-1.1106-1.5654-1.2338-2.9874-0.1233-1.4207-0.3079-5.0369-0.3079-5.0369l-0.3685 0.065z" fill="#787E80"/>
<path d="m15.189 19.972c0.0244 0.474 0.1953 3.7096 0.3096 5.0196 0 0.0155 0.0197 0.2323 0.0209 0.2471 0.1131 1.3517 0.212 2.5015 1.3993 3.0112 2.0912 0.8992 4.8308 1.7679 7.0685 2.2556l0.0572-0.3757c-2.1263-0.4645-4.7904-1.2939-6.9465-2.2211-1.0783-0.4638-1.1093-1.5547-1.2332-2.976-0.1232-1.4219-0.3078-5.0375-0.3078-5.0375l-0.368 0.0768z" fill="#737A7C"/>
<path d="m15.217 19.969c0.0226 0.4306 0.1947 3.7014 0.309 5.0209 0.0024 0.0232 0.0197 0.2286 0.0215 0.2518 0.1131 1.344 0.212 2.4801 1.3826 2.9838 2.0972 0.9003 4.8297 1.7655 7.0572 2.252l0.084-0.3751c-2.1258-0.4639-4.7874-1.2927-6.9453-2.2204-1.0783-0.4639-1.1105-1.544-1.2343-2.9654-0.1227-1.4213-0.3067-5.0369-0.3067-5.0369l-0.368 0.0893z" fill="#6E7578"/>
<path d="m15.245 19.965c0.0202 0.3877 0.1941 3.6924 0.309 5.0226 3e-3 0.0304 0.0191 0.2257 0.0221 0.2561 0.1125 1.3374 0.2113 2.4598 1.3647 2.9546 2.1037 0.9045 4.8285 1.7667 7.046 2.2496l0.1125-0.371c-2.1264-0.465-4.7886-1.2939-6.9453-2.2216-1.0789-0.4632-1.1117-1.5321-1.2349-2.9546-0.1239-1.4219-0.3079-5.0369-0.3079-5.0369l-0.3662 0.1012z" fill="#687173"/>
<path d="m15.274 19.96c0.0173 0.3448 0.1929 3.6841 0.3096 5.0238 0.0029 0.0387 0.0184 0.2233 0.0214 0.2602 0.112 1.3321 0.2108 2.439 1.347 2.9285 2.1096 0.9056 4.8284 1.7637 7.0352 2.2454l0.1405-0.3692c-2.1258-0.4644-4.7886-1.2945-6.9459-2.2192-1.0778-0.4651-1.1123-1.5244-1.2356-2.9451-0.1227-1.4213-0.3078-5.0375-0.3078-5.0375l-0.3644 0.1131z" fill="#646D70"/>
<path d="m15.303 19.956c0.0143 0.3013 0.1911 3.6757 0.3084 5.0256 0.0036 0.0464 0.0179 0.2197 0.0227 0.265 0.1107 1.3248 0.2084 2.4169 1.3297 2.8992 2.1138 0.9087 4.8266 1.7631 7.0232 2.2425l0.1685-0.3662c-2.1263-0.4639-4.7886-1.2939-6.9453-2.2211-1.0801-0.4632-1.1129-1.5112-1.2361-2.9325-0.1233-1.422-0.309-5.0369-0.309-5.0369l-0.3621 0.1244z" fill="#5F696C"/>
<path d="m15.331 19.952c0.0131 0.2584 0.1905 3.6674 0.3084 5.0274 0.0047 0.0541 0.0185 0.2173 0.0226 0.2685 0.1108 1.3195 0.2096 2.3973 1.313 2.8719 2.121 0.9116 4.8267 1.7619 7.012 2.2388l0.1959-0.3644c-2.1258-0.4626-4.788-1.2921-6.9459-2.2198-1.0777-0.4633-1.1129-1.5005-1.2362-2.9219-0.1214-1.4213-0.3072-5.0369-0.3072-5.0369l-0.3626 0.1364z" fill="#5A6569"/>
<path d="m15.358 19.948c0.0125 0.2156 0.1906 3.6591 0.3097 5.0286 0.0053 0.0619 0.0178 0.215 0.022 0.2739 0.1113 1.3124 0.209 2.3758 1.2963 2.8433 2.1269 0.9134 4.8243 1.7613 7.0007 2.2365l0.2238-0.3615c-2.1251-0.4644-4.7879-1.2939-6.9452-2.221-1.0784-0.4632-1.1136-1.4886-1.2368-2.9111-0.1233-1.422-0.3084-5.0375-0.3084-5.0375l-0.3621 0.1488z" fill="#556266"/>
<path d="m15.388 19.944c0.0083 0.1727 0.1888 3.6501 0.3079 5.0304 0.0065 0.0691 0.0196 0.2108 0.0243 0.2781 0.1102 1.3064 0.2079 2.3556 1.2767 2.8146 2.1335 0.917 4.8249 1.7614 6.9905 2.2342l0.2519-0.3597c-2.1257-0.4638-4.7886-1.2933-6.9453-2.2204-1.0783-0.4633-1.1135-1.4785-1.2361-2.9004-0.1245-1.4208-0.309-5.0369-0.309-5.0369l-0.3609 0.1601z" fill="#515E62"/>
<path d="m15.416 19.94c0.0071 0.1292 0.1888 3.6412 0.3085 5.0327 0.0071 0.0769 0.0172 0.2073 0.0244 0.2817 0.1084 1.2993 0.2072 2.3342 1.2599 2.7873 2.1389 0.9182 4.8226 1.7595 6.9787 2.2299l0.2798-0.3572c-2.1257-0.4621-4.7885-1.2916-6.9458-2.2199-1.0778-0.4638-1.1141-1.4677-1.2374-2.8891-0.1238-1.4219-0.3085-5.0375-0.3085-5.0375l-0.3596 0.1721z" fill="#4C5A5F"/>
<path d="m15.444 19.936c0.0048 0.0863 0.1869 3.6328 0.309 5.0345 0.0071 0.0852 0.0173 0.2042 0.0244 0.2858 0.1084 1.2933 0.2061 2.3133 1.2427 2.7593 2.1437 0.9224 4.8202 1.7584 6.9668 2.2264l0.3078-0.3543c-2.1258-0.4626-4.788-1.2921-6.9459-2.2198-1.0777-0.4633-1.1135-1.4571-1.2367-2.879-0.1239-1.4213-0.3091-5.0369-0.3091-5.0369l-0.359 0.184z" fill="#48575C"/>
<path d="m15.473 19.931c0.0018 0.0429 0.1852 3.6245 0.3084 5.0363 0.0078 0.0923 0.0167 0.2013 0.0239 0.29 0.1083 1.2868 0.206 2.2931 1.226 2.7313 2.1501 0.9242 4.8196 1.7578 6.9554 2.2234l0.3358-0.3507c-2.1257-0.4638-4.7885-1.2939-6.9458-2.221-1.0778-0.4633-1.1153-1.4458-1.2386-2.8677-0.1232-1.4219-0.3072-5.0381-0.3072-5.0381l-0.3579 0.1965z" fill="#435459"/>
<path d="m24.351 29.835c-2.1257-0.4639-4.7885-1.2939-6.9452-2.221-1.0784-0.4633-1.1159-1.4357-1.2392-2.857-0.1239-1.4213-0.3096-5.0369-0.3096-5.0369l-0.3555 0.2078s0.1852 3.6156 0.3078 5.0363c0.0096 0.1006 0.0173 0.1995 0.0256 0.296 0.1084 1.279 0.2049 2.2716 1.2071 2.7021 2.1573 0.9277 4.8201 1.7572 6.9452 2.221l0.3638-0.3483z" fill="#3F5257"/>
<path d="m23.992 16.109-9.997 1.1123-0.0214 3e-3 0.0107 0.0191 1.5095 2.6884-0.0018-0.0065c0.0018 0.0363 0.187 3.6328 0.3085 5.0381l0.0196 0.2393c0.1101 1.3011 0.1965 2.3306 1.2213 2.7707 2.0572 0.8842 4.7201 1.7351 6.9482 2.2216l0.0036 6e-4 3e-3 -6e-4c2.2305-0.4865 4.8922-1.3374 6.9483-2.2216 1.0265-0.4401 1.1122-1.4696 1.2212-2.7707l0.0209-0.2393c0.122-1.4053 0.306-5.0018 0.3078-5.0381l-0.0018 0.0065 1.5101-2.6884 0.0107-0.0191-0.022-3e-3 -9.9964-1.1123h-3e-3zm9.9857 1.1195-1.5101 2.6896-0.0024 0.0024v0.0042c-0.0023 0.0357-0.1863 3.6316-0.3084 5.0363l-0.0197 0.2394c-0.1095 1.2927-0.1947 2.3121-1.2039 2.7462-2.0555 0.8824-4.7154 1.7339-6.9436 2.2192h0.0066c-2.227-0.4853-4.8875-1.3368-6.9436-2.2192-1.0075-0.4341-1.0938-1.4535-1.2028-2.7462l-0.0202-0.2394c-0.1221-1.4047-0.306-5.0006-0.3078-5.0363v-0.0042l-0.0018-0.0024-1.5113-2.6896-0.0107 0.0226 9.997-1.1129h-3e-3l9.9964 1.1129-0.0107-0.0226z" fill="#fff"/>
<path d="m20.019 9.2693c-5.6717 1.6553-10.577 5.8848-10.577 13.025 0 7.3431 6.3028 13.601 14.558 14.027l-0.0036 1.4356c-7.2561 0-15.617-5.9598-15.617-15.077 0-7.8361 4.8583-11.79 10.654-13.658 0.0714-0.01549 0.1482-0.00953 0.2143 0.00357 0.2483 0.04942 0.502 0.10301 0.7712 0.24413z" fill="#D7D8D9"/>
<path d="m24.007 38.206c-9.3116 0-16.007-7.9237-16.007-15.451 0-2.773 1.9013-8.9538 6.1016-8.9538-0.8717 0.8717-3.2881 3.7632-3.2881 7.9046 0 5.6853 3.843 11.866 13.183 12.809 2.4854 0.2507 4.6844 3.6912 0.0101 3.6912z" fill="#D7D8D9"/>
<path d="m23.914 34.532c2.1043 0.203 3.8906 2.6301 1.6988 3.372-0.4269 0.1429-0.9997 0.2257-1.747 0.2221-8.8282-0.0726-15.233-7.1924-15.772-14.392-0.02501-0.3316-0.03746-0.6639-0.03627-0.9944 0.00774-2.2448 1.2141-6.4785 3.7281-8.1439 0.6502-0.4216 1.3945-0.661 2.2365-0.6336-0.6979 0.7384-2.3657 2.7599-2.9724 5.6395-0.1441 0.6931-0.2282 1.4344-0.224 2.2198 0.0375 5.6961 3.9455 11.804 13.088 12.71z" fill="#D3D5D6"/>
<path d="m23.831 34.554c2.1269 0.1947 3.8192 2.5997 1.6279 3.294-0.4287 0.1328-0.9974 0.2079-1.7328 0.1983-8.7596-0.1429-15.061-7.1483-15.576-14.334-0.02501-0.3299-0.03689-0.6586-0.03511-0.9873 0.01667-2.2996 1.2451-6.454 3.7066-8.0641 0.6181-0.3859 1.3219-0.5901 2.121-0.5359-0.6901 0.7729-2.3109 2.7908-2.8939 5.6139-0.1387 0.6889-0.2161 1.4249-0.2089 2.2019 0.072 5.705 4.0466 11.742 12.992 12.613z" fill="#CED0D1"/>
<path d="m23.747 34.574c2.1496 0.1863 3.7477 2.5699 1.5577 3.216-0.4317 0.1226-0.9962 0.1905-1.7191 0.1774-8.6911-0.2155-14.887-7.1043-15.382-14.278-0.02322-0.3269-0.0334-0.6538-0.03162-0.9784 0.02561-2.355 1.2743-6.4314 3.6847-7.9873 0.5841-0.3489 1.2504-0.5181 2.0067-0.4371-0.6824 0.8069-2.258 2.823-2.8166 5.5883-0.1328 0.6854-0.206 1.4148-0.1953 2.1835 0.1096 5.7157 4.1498 11.681 12.896 12.515z" fill="#CBCDCF"/>
<path d="m23.663 34.594c2.1704 0.1774 3.6757 2.539 1.4862 3.1374-0.4329 0.1143-0.9938 0.1745-1.7053 0.1566-8.6215-0.2876-14.713-7.0608-15.186-14.221-0.02263-0.3251-0.03152-0.6478-0.02973-0.97 0.03513-2.4103 1.3052-6.4082 3.6632-7.9087 0.5508-0.3126 1.1784-0.4472 1.8911-0.3388-0.6746 0.8402-2.2037 2.8534-2.7384 5.5627-0.1269 0.6812-0.1941 1.4052-0.1799 2.1644 0.1447 5.7252 4.251 11.619 12.799 12.418z" fill="#C7C9CB"/>
<path d="m23.58 34.614c2.1924 0.1703 3.6036 2.5086 1.4147 3.0594-0.4352 0.1048-0.9908 0.156-1.6904 0.1334-8.5525-0.3573-14.54-7.0162-14.992-14.163-0.02084-0.3222-0.03039-0.6431-0.02682-0.9623 0.04287-2.4645 1.3338-6.3838 3.6412-7.8295 0.5175-0.2763 1.1058-0.3763 1.7763-0.2406-0.6675 0.8741-2.1496 2.8844-2.6605 5.5353-0.1215 0.6782-0.1829 1.3963-0.1662 2.1472 0.1822 5.7359 4.3528 11.558 12.704 12.32z" fill="#C3C6C7"/>
<path d="m23.497 34.634c2.2139 0.1619 3.531 2.4794 1.3433 2.9826-0.4359 0.0947-0.9878 0.1387-1.6774 0.1119-8.4827-0.4311-14.364-6.9727-14.796-14.107-0.01965-0.3204-0.02858-0.6384-0.025-0.954 0.05239-2.5205 1.3654-6.3599 3.6204-7.7515 0.4835-0.24 1.0337-0.3049 1.6601-0.1417-0.6592 0.908-2.096 2.9147-2.5813 5.5091-0.1155 0.6752-0.1727 1.3856-0.1518 2.1287 0.2173 5.7461 4.4551 11.496 12.607 12.222z" fill="#BFC2C4"/>
<path d="m23.414 34.654c2.2353 0.153 3.459 2.4485 1.2719 2.9046-0.4395 0.0852-0.9861 0.1221-1.6631 0.0899-8.4155-0.5025-14.192-6.9286-14.602-14.05-0.01905-0.3168-0.02619-0.6324-0.02202-0.9456 0.06073-2.5747 1.3951-6.3367 3.5983-7.6723 0.4501-0.2037 0.961-0.234 1.5457-0.0441-0.6526 0.942-2.0423 2.9457-2.505 5.4835-0.1089 0.6717-0.1607 1.3761-0.1363 2.1109 0.2536 5.7556 4.5569 11.434 12.512 12.123z" fill="#BCBFC1"/>
<path d="m23.33 34.675c2.2586 0.1453 3.3875 2.4181 1.201 2.8266-0.4412 0.0744-0.9842 0.1048-1.6493 0.0672-8.3446-0.574-14.017-6.8851-14.406-13.993-0.01727-0.3138-0.02447-0.6264-0.01911-0.9372 0.06788-2.6301 1.4237-6.313 3.5757-7.5944 0.4168-0.1679 0.889-0.1625 1.4315 0.0542-0.6455 0.9765-1.99 2.9772-2.4277 5.4579-0.1036 0.6669-0.15 1.3659-0.122 2.0918 0.2911 5.7657 4.6587 11.373 12.416 12.027z" fill="#B8BCBE"/>
<path d="m23.246 34.694c2.2805 0.137 3.3155 2.3896 1.1296 2.7492-0.4424 0.0655-0.9819 0.0869-1.6339 0.0464-8.2779-0.646-13.845-6.8405-14.212-13.936-0.01787-0.312-0.02265-0.6217-0.01788-0.9283 0.07741-2.6861 1.4547-6.2903 3.5555-7.517 0.3828-0.131 0.8163-0.0911 1.3153 0.1531-0.6377 1.0098-1.9364 3.0076-2.349 5.4316-0.0977 0.6634-0.1382 1.3565-0.1072 2.0734 0.3257 5.7764 4.7606 11.312 12.319 11.928z" fill="#B5B8BA"/>
<path d="m23.162 34.714c2.3026 0.1298 3.2446 2.3598 1.0599 2.6718-0.446 0.056-0.9801 0.0697-1.6214 0.0238-8.2077-0.7181-13.671-6.7976-14.016-13.88-0.01549-0.309-0.02086-0.6157-0.01491-0.92 0.08634-2.7408 1.4851-6.2665 3.5328-7.4383 0.3513-0.0941 0.7449-0.0197 1.2016 0.2519-0.6306 1.0438-1.8834 3.0385-2.2716 5.4049-0.0923 0.6603-0.128 1.3463-0.0923 2.0554 0.362 5.786 4.8618 11.25 12.222 11.83z" fill="#B1B5B7"/>
<path d="m23.08 34.735c2.3246 0.1214 3.1713 2.3288 0.9878 2.5931-0.4478 0.0465-0.9777 0.053-1.6077 0.0024-8.1386-0.7889-13.498-6.7524-13.821-13.823-0.01488-0.3067-0.01841-0.611-0.01126-0.9111 0.09527-2.7968 1.5141-6.2432 3.5101-7.3609 0.318-0.0577 0.6735 0.0524 1.0861 0.3501-0.6228 1.0772-1.8286 3.0702-2.1924 5.3787-0.0869 0.6574-0.1173 1.338-0.0798 2.0382 0.3995 5.7961 4.9655 11.188 12.128 11.732z" fill="#AEB1B3"/>
<path d="m22.996 34.755c2.3472 0.112 3.1005 2.2985 0.9164 2.5146-0.4496 0.0363-0.9759 0.0345-1.5922-0.0197-8.0701-0.8604-13.325-6.7083-13.626-13.765-0.01429-0.3049-0.01725-0.6068-0.0101-0.9033 0.10301-2.8516 1.544-6.2201 3.4893-7.2824 0.2841-0.0214 0.5996 0.1227 0.9712 0.4484-0.6157 1.1117-1.7756 3.1011-2.115 5.3525-0.0816 0.6532-0.106 1.3278-0.0649 2.0192 0.4358 5.8074 5.0666 11.128 12.031 11.636z" fill="#AAAEB1"/>
<path d="m22.912 34.775c2.3687 0.1042 3.0279 2.2693 0.8468 2.4378-0.452 0.0262-0.9736 0.0167-1.5791-0.0417-8.0011-0.9331-13.151-6.6655-13.432-13.709-0.01132-0.3013-0.01429-0.6002-0.00654-0.8956 0.11254-2.9058 1.575-6.1956 3.4673-7.2031 0.2507 0.0149 0.5287 0.1941 0.8568 0.5472-0.6085 1.1445-1.7214 3.1315-2.0376 5.3263-0.0756 0.6496-0.0953 1.3183-0.0494 2.0013 0.471 5.8163 5.1685 11.065 11.934 11.537z" fill="#A6ABAD"/>
<path d="m22.829 34.795c2.3907 0.0971 2.9558 2.2383 0.7746 2.3598-0.4537 0.0172-0.9717 0-1.5648-0.0625-7.9325-1.0046-12.977-6.6214-13.236-13.652-0.0125-0.3001-0.01425-0.596-0.00472-0.8878 0.11968-2.9612 1.6041-6.1718 3.4452-7.1245 0.218 0.05 0.4561 0.2649 0.7414 0.6448-0.6014 1.179-1.6685 3.163-1.9597 5.3007-0.069 0.6455-0.0839 1.3076-0.0345 1.9829 0.5085 5.8264 5.2691 11.004 11.838 11.438z" fill="#A2A7AA"/>
<path d="m22.746 34.815c2.4122 0.0887 2.8844 2.2085 0.7033 2.2823-0.4561 0.0072-0.9689-0.0172-1.5512-0.0857-7.8629-1.076-12.803-6.5767-13.039-13.595-0.01191-0.2971-0.0131-0.5895-0.00298-0.8789 0.12862-3.0165 1.6339-6.1486 3.4238-7.0471 0.184 0.0881 0.3835 0.3376 0.6259 0.7443-0.5937 1.2135-1.6149 3.1934-1.8828 5.2745-0.062 0.6419-0.0727 1.2981-0.0197 1.9638 0.5448 5.8366 5.3721 10.942 11.743 11.342z" fill="#9FA4A7"/>
<path d="m22.662 34.835c2.4354 0.0804 2.8123 2.1788 0.6324 2.2038-0.4579-0.0018-0.9665-0.0351-1.5358-0.1066-7.795-1.1486-12.631-6.5339-12.847-13.539-0.00893-0.2942-0.00893-0.5841 0-0.87 0.13814-3.0719 1.6642-6.1253 3.4024-6.9685 0.1512 0.1239 0.3114 0.4079 0.5114 0.8414-0.5865 1.248-1.5606 3.2249-1.8035 5.2494-0.0572 0.6378-0.0626 1.2874-0.0072 1.946 0.5823 5.8467 5.4752 10.881 11.647 11.243z" fill="#9CA1A3"/>
<path d="m22.578 34.855c2.4574 0.0732 2.7414 2.1478 0.5615 2.1275-0.4597-0.0131-0.9653-0.053-1.522-0.1304-7.726-1.2195-12.457-6.488-12.651-13.481-0.00893-0.2912-0.00771-0.5788 0.00182-0.8617 0.14648-3.1272 1.6946-6.1015 3.3797-6.8911 0.1191 0.1608 0.2406 0.4806 0.3972 0.9408-0.5788 1.282-1.5077 3.2559-1.7262 5.2227-0.0512 0.6354-0.0507 1.279 0.0083 1.9281 0.6175 5.8568 5.5764 10.819 11.551 11.145z" fill="#989EA1"/>
<path d="m22.496 34.875c2.4783 0.0655 2.6682 2.1186 0.4895 2.0489-0.4615-0.0226-0.9617-0.0685-1.5089-0.1518-7.6563-1.2904-12.282-6.4446-12.454-13.424-0.00894-0.2888-0.00717-0.5735 0.00414-0.8539 0.15541-3.1815 1.7238-6.0778 3.3589-6.8113 0.084 0.1959 0.1668 0.5513 0.2811 1.0384-0.571 1.316-1.4541 3.2869-1.6482 5.1971-0.0459 0.6306-0.0399 1.2677 0.0232 1.909 0.6526 5.867 5.6782 10.757 11.455 11.047z" fill="#959B9D"/>
<path d="m22.412 34.896c2.5008 0.0566 2.5961 2.0889 0.4186 1.971-0.4639-0.0316-0.9593-0.087-1.494-0.1745-7.5878-1.3618-12.11-6.4005-12.261-13.367-0.00655-0.287-0.0042-0.5681 0.00771-0.845 0.16315-3.2374 1.7536-6.0551 3.3363-6.7339 0.0512 0.2328 0.0953 0.6222 0.1679 1.1373-0.5656 1.3487-1.4016 3.3172-1.5707 5.1703-0.0411 0.627-0.0298 1.2588 0.0369 1.8911 0.6895 5.8765 5.78 10.697 11.358 10.95z" fill="#91979A"/>
<path d="m22.329 34.916c2.5211 0.0488 2.5241 2.0585 0.3466 1.8929-0.4651-0.0405-0.9569-0.1036-1.4803-0.1947-7.5181-1.4344-11.935-6.3576-12.065-13.311-0.00536-0.2835-0.00239-0.5621 0.00952-0.8366 0.17268-3.2923 1.7845-6.0308 3.3154-6.6554 0.0179 0.2698 0.0232 0.6937 0.0506 1.2356-0.5567 1.3838-1.3457 3.3488-1.4927 5.1447-0.034 0.6234-0.0167 1.2492 0.0524 1.8732 0.727 5.8872 5.8823 10.634 11.263 10.852z" fill="#8E9496"/>
<path d="m22.245 34.935c2.5444 0.041 2.4527 2.0281 0.2757 1.8161-0.468-0.0512-0.9544-0.1221-1.4659-0.218-7.4491-1.5052-11.762-6.3129-11.87-13.253-0.00536-0.2816-5.8e-4 -0.5579 0.01192-0.8288 0.18102-3.3476 1.8137-6.0075 3.294-6.5767-0.0161 0.3054-0.05 0.7645-0.0637 1.3344-0.5496 1.4165-1.294 3.3791-1.4154 5.1172-0.0286 0.6199-0.0066 1.2392 0.0673 1.8549 0.7616 5.8973 5.9836 10.573 11.166 10.754z" fill="#8A9194"/>
<path d="m22.162 34.956c2.5663 0.0328 2.3806 1.9983 0.2049 1.7375-0.4692-0.0607-0.9522-0.1393-1.4524-0.2387-7.3806-1.578-11.589-6.2695-11.674-13.198-0.00417-0.2774 5.5e-4 -0.5508 0.01424-0.8199 0.18876-3.4024 1.8441-5.9831 3.2714-6.4993-0.0494 0.3424-0.1208 0.8366-0.1786 1.4332-0.5418 1.4511-1.2403 3.4108-1.3373 5.0923-0.0227 0.6169 0.0047 1.2296 0.0821 1.8376 0.7985 5.9062 6.0855 10.51 11.07 10.656z" fill="#878D90"/>
<path d="m22.077 34.977c2.5896 0.0238 2.3092 1.968 0.1352 1.6595-0.4728-0.0702-0.9509-0.156-1.438-0.2614-7.3115-1.6488-11.416-6.2248-11.48-13.14-0.00298-0.2763 0.00302-0.5467 0.01672-0.811 0.19769-3.459 1.8738-5.9617 3.25-6.4214-0.0822 0.3782-0.1936 0.9081-0.293 1.5303-0.5353 1.4857-1.1861 3.4423-1.2594 5.0667-0.0172 0.6133 0.0144 1.2201 0.0953 1.8185 0.8354 5.917 6.1879 10.45 10.974 10.558z" fill="#838A8D"/>
<path d="m21.995 34.996c2.6092 0.0167 2.2365 1.9376 0.0625 1.5822-0.4734-0.0804-0.9485-0.1733-1.4243-0.2835-7.2424-1.7202-11.241-6.1801-11.286-13.082-0.00179-0.2745 0.00534-0.5424 0.01963-0.8038 0.20662-3.5138 1.9048-5.9379 3.2291-6.3428-0.1161 0.4151-0.2662 0.9784-0.4091 1.6298-0.527 1.5178-1.1319 3.472-1.1807 5.0399-0.0113 0.6085 0.0261 1.2093 0.1101 1.8 0.8711 5.9271 6.2903 10.388 10.878 10.46z" fill="#81878A"/>
<path d="m21.911 35.016c2.6319 0.0083 2.1651 1.9078-0.0083 1.5035-0.4764-0.0893-0.945-0.1911-1.4088-0.3049-7.1746-1.7923-11.069-6.1367-11.09-13.025-0.00119-0.2709 0.00536-0.5371 0.02144-0.7955 0.21496-3.568 1.934-5.9134 3.2065-6.2647-0.1495 0.4519-0.3382 1.0497-0.524 1.7286-0.5198 1.5523-1.0784 3.503-1.1028 5.013-6e-3 0.6056 0.0369 1.2005 0.1244 1.7828 0.9075 5.9366 6.3922 10.326 10.782 10.362z" fill="#7D8387"/>
<path d="m21.748 36.463c-8.0029-1.6643-12.291-5.9831-12.291-13.296 0-4.0812 1.9019-6.6565 3.2095-6.9739-0.5949 1.5851-1.6643 4.7148-1.6643 6.8143 0 6.8381 6.2278 12.028 10.824 12.028 2.6545 0 2.0935 1.8786-0.0786 1.4273z" fill="#798083"/>
<path d="m27.386 9.6985c-0.0059 0.00655-0.0113 0.0131-0.0149 0.02084l-0.0255 0.06252c4.6343 1.4487 9.8344 5.5073 9.8344 11.92 0 5.5716-3.8776 12.016-13.183 12.815l0.0036 0.3692c9.3056-0.8009 13.486-7.5104 13.486-12.981 0-6.4106-4.5885-10.753-10.101-12.206z" fill="#3C535A"/>
<path d="m27.386 9.6998c-0.0059 0.00655-0.0113 0.0131-0.0149 0.02084l-0.0256 0.06252c4.6344 1.4487 9.8345 5.5073 9.8345 11.92 0 5.5716-3.8776 12.016-13.183 12.815l0.0036 0.3692c9.3056-0.8009 13.486-7.5104 13.486-12.981 0-6.4106-4.5885-10.753-10.101-12.206z" fill="url(#d)"/>
<path d="m27.973 9.2641c5.671 1.6565 10.593 5.8908 10.593 13.031 0 7.343-6.3112 13.601-14.566 14.027l-0.0035 1.4356c7.2573 0 15.616-5.9646 15.616-15.082 0-7.8349-4.8589-11.79-10.654-13.658-0.072-0.01608-0.1649-0.00536-0.2322 0.00417-0.1078 0.01489-0.2531 0.05062-0.4198 0.10063-0.1149 0.0405-0.2542 0.10123-0.3334 0.14113z" fill="#DEE4E9"/>
<path d="m27.386 9.6993c5.5127 1.4535 10.101 5.7955 10.101 12.206l1.0795 0.3912c0-7.14-4.922-11.374-10.593-13.031-0.265 0.12564-0.4763 0.30785-0.5877 0.43349z" fill="#C6DAF1"/>
<path d="m27.386 9.7012c5.5127 1.4535 10.101 5.7955 10.101 12.206l1.0795 0.3912c0-7.14-4.922-11.374-10.593-13.031-0.265 0.12564-0.4763 0.30785-0.5877 0.43349z" fill="url(#b)"/>
<path d="m38.566 22.293c0 7.343-6.3058 13.601-14.559 14.028v-1.438c9.305-0.8009 13.48-7.511 13.48-12.981l1.0795 0.3912z" fill="#fff"/>
<path d="m38.566 22.292c0 7.3431-6.3058 13.601-14.559 14.028v-1.438c9.3051-0.8009 13.48-7.511 13.48-12.981l1.0795 0.3912z" fill="url(#a)"/>
<path d="m20.607 9.7036c-5.5132 1.4535-10.102 5.7955-10.102 12.206 0 5.4698 4.1889 12.175 13.496 12.976v1.4374c-8.2553-0.4258-14.558-6.6839-14.558-14.027 0-7.14 4.9053-11.37 10.577-13.025 0.2048 0.09348 0.4656 0.28462 0.5876 0.43229z" fill="#7093AE"/>
<path d="m20.606 9.7051c-5.5133 1.4535-10.102 5.7955-10.102 12.206 0 5.4697 4.1889 12.175 13.496 12.976v1.4374c-8.2553-0.4258-14.558-6.6839-14.558-14.027 0-7.14 4.9053-11.37 10.577-13.025 0.2048 0.09348 0.4656 0.28462 0.5877 0.43229z" fill="url(#cb)"/>
<path d="m10.814 21.707c0-6.4141 5.2001-10.471 9.8339-11.92l-0.025-0.06252c-0.0048-0.00774-0.0096-0.01429-0.0155-0.02084-5.5133 1.4535-10.102 5.7955-10.102 12.206 0 5.4698 4.189 12.175 13.496 12.976l-0.0035-0.3692c-9.2992-0.7991-13.183-7.3401-13.183-12.809z" fill="#3C535A"/>
<path d="m10.814 21.708c0-6.4141 5.2-10.471 9.8338-11.92l-0.025-0.06252c-0.0048-0.00774-0.0095-0.01429-0.0155-0.02084-5.5133 1.4535-10.102 5.7955-10.102 12.206 0 5.4698 4.1889 12.175 13.496 12.976l-0.0036-0.3692c-9.2991-0.7991-13.183-7.3401-13.183-12.809z" fill="url(#ca)"/>
<path d="m27.377 9.705c1.3874 0.36624 2.695 0.90864 3.8883 1.6124 1.2337 0.7277 2.3163 1.6107 3.219 2.6254 0.9467 1.0634 1.6827 2.2603 2.1853 3.5536 0.5347 1.3731 0.805 2.8552 0.805 4.4051 0 1.3898-0.2757 2.8487-0.7967 4.2188-0.5627 1.4773-1.3886 2.8278-2.4533 4.0145-1.1611 1.2945-2.5729 2.3502-4.1973 3.1404-1.7845 0.8682-3.812 1.4052-6.0283 1.5964l0.0018 0.0232c2.2181-0.1917 4.2503-0.7288 6.0378-1.5988 1.6256-0.7913 3.0398-1.8488 4.2039-3.1457 1.0659-1.1885 1.8923-2.5426 2.4562-4.0211 0.5228-1.3737 0.7997-2.8355 0.7997-4.2277 0-1.5529-0.2716-3.0374-0.8075-4.4134-0.5043-1.2969-1.2403-2.4944-2.1894-3.5608-0.9039-1.0164-1.9882-1.9013-3.2237-2.6295-1.1921-0.7027-2.4979-1.2445-3.8811-1.6125-0.0054-5.9e-4 -0.0251 0.01787-0.0197 0.01966z" fill="#EDF1FB"/>
<path d="m23.868 38.495c9.3116 0 16.132-8.213 16.132-15.741 0-2.773-1.9024-8.9537-6.1015-8.9537 0.8717 0.8717 3.288 3.7632 3.288 7.9045 0 5.6854-3.843 11.866-13.183 12.809-2.4866 0.2507-4.8106 3.9806-0.1357 3.9806z" fill="#DEE4E9"/>
<path d="m23.941 38.421c9.2474-0.0798 15.955-8.1207 15.955-15.639 0-2.8355-1.9012-8.8442-5.9646-8.8596 0.8587 0.9056 3.2124 3.809 3.2124 7.8521 0 5.7408-3.9573 11.874-13.072 12.772-2.4937 0.2388-4.7612 3.9091-0.1304 3.874z" fill="#D6DCE1"/>
<path d="m24.014 38.344c9.1859-0.1572 15.778-8.0284 15.778-15.535 0-2.8981-1.9019-8.7352-5.8265-8.7656 0.845 0.9396 3.1339 3.8543 3.1339 7.7998 0 5.7955-4.0699 11.882-12.959 12.735-2.5008 0.2269-4.7117 3.8383-0.1261 3.765z" fill="#CFD5DA"/>
<path d="m24.087 38.269c9.1241-0.2358 15.601-7.9349 15.601-15.432 0-2.9606-1.9025-8.6257-5.6896-8.6715 0.8325 0.9741 3.0571 3.8996 3.0571 7.7491 0 5.8497-4.1836 11.889-12.847 12.697-2.5092 0.2149-4.663 3.7662-0.1215 3.6566z" fill="#C8CED2"/>
<path d="m24.16 38.194c9.0609-0.3138 15.424-7.8427 15.424-15.33 0-3.0219-1.9024-8.5161-5.5513-8.5769 0.8193 1.0081 2.979 3.9455 2.979 7.6968 0 5.9045-4.2967 11.897-12.734 12.661-2.5182 0.2031-4.6153 3.6942-0.1173 3.5489z" fill="#C0C7CB"/>
<path d="m24.232 38.119c9.0002-0.3924 15.247-7.7504 15.247-15.227 0-3.0845-1.9012-8.4078-5.4126-8.4828 0.8056 1.042 2.9028 3.9907 2.9028 7.645 0 5.9604-4.4122 11.905-12.624 12.623-2.5259 0.1905-4.5653 3.6245-0.1137 3.4417z" fill="#BAC0C4"/>
<path d="m24.305 38.043c8.9383-0.4704 15.07-7.6586 15.07-15.124 0-3.1476-1.9013-8.2982-5.2757-8.3881 0.7932 1.0759 2.8249 4.0347 2.8249 7.5925 0 6.0153-4.5243 11.913-12.51 12.587-2.5349 0.1793-4.5165 3.5525-0.1096 3.3327z" fill="#B2B9BD"/>
<path d="m24.378 37.969c8.8758-0.5496 14.893-7.5663 14.893-15.022 0-3.2095-1.9006-8.1886-5.1374-8.294 0.7788 1.1093 2.7468 4.0806 2.7468 7.5407 0 6.07-4.638 11.92-12.398 12.549-2.5419 0.1673-4.4676 3.4822-0.1048 3.2261z" fill="#ABB2B6"/>
<path d="m24.451 37.892c8.8138-0.627 14.716-7.4728 14.716-14.919 0-3.2708-1.9013-8.0779-4.9988-8.1988 0.7651 1.1433 2.6688 4.1265 2.6688 7.489 0 6.1242-4.7523 11.927-12.285 12.512-2.5497 0.1548-4.4188 3.4101-0.1012 3.1171z" fill="#A4ABAF"/>
<path d="m24.525 37.817c8.7519-0.7056 14.539-7.38 14.539-14.816 0-3.3339-1.9018-7.9695-4.8618-8.1053 0.7527 1.1778 2.5914 4.1711 2.5914 7.4372 0 6.1795-4.8648 11.935-12.172 12.474-2.5593 0.1441-4.3719 3.3399-0.0971 3.01z" fill="#9DA3A7"/>
<path d="m24.597 37.743c8.69-0.7848 14.363-7.2883 14.363-14.714 0-3.3964-1.9019-7.8605-4.7243-8.0112 0.7389 1.2112 2.5152 4.2164 2.5152 7.3854 0 6.2343-4.9792 11.943-12.061 12.437-2.5658 0.131-4.3211 3.2672-0.0923 2.9022z" fill="#979DA1"/>
<path d="m24.669 37.667c8.6281-0.8628 14.186-7.1948 14.186-14.61 0-3.4584-1.9019-7.7503-4.5862-7.9165 0.727 1.2451 2.4366 4.2616 2.4366 7.3336 0 6.2891-5.0922 11.951-11.948 12.4-2.5748 0.1197-4.273 3.1969-0.0888 2.7938z" fill="#8F9699"/>
<path d="m24.743 37.592c8.5649-0.9396 14.008-7.1025 14.008-14.508 0-3.5209-1.9019-7.6414-4.4486-7.8224 0.7121 1.2796 2.3603 4.3075 2.3603 7.2823 0 6.3439-5.2065 11.958-11.837 12.363-2.5825 0.1078-4.2242 3.125-0.0834 2.6849z" fill="#888F92"/>
<path d="m24.815 37.517c8.5042-1.02 13.832-7.0108 13.832-14.406 0-3.5834-1.9013-7.5312-4.3111-7.7277 0.7003 1.313 2.2836 4.3521 2.2836 7.2294 0 6.3992-5.3198 11.967-11.724 12.326-2.5902 0.0959-4.1753 3.0541-0.0804 2.5783z" fill="#81878A"/>
<path d="m24.888 37.441c8.4417-1.0974 13.655-6.9179 13.655-14.303 0-3.6453-1.9012-7.4222-4.1734-7.633 0.6877 1.3469 2.2061 4.3968 2.2061 7.1781 0 6.4535-5.4329 11.973-11.611 12.288-2.5986 0.0827-4.1265 2.982-0.0763 2.4693z" fill="#7A7F83"/>
<path d="m24.962 37.366c8.3791-1.176 13.477-6.8256 13.477-14.201 0-3.7067-1.9018-7.3127-4.0359-7.5384 0.674 1.3814 2.1281 4.4426 2.1281 7.1251 0 6.5095-5.5478 11.983-11.498 12.252-2.6062 0.0714-4.0776 2.9117-0.0714 2.3621z" fill="#73787B"/>
<path d="m25.034 37.291c8.3172-1.2558 13.3-6.7333 13.3-14.098 0-3.7692-1.9012-7.2031-3.8984-7.4437 0.661 1.4148 2.052 4.4885 2.052 7.0733 0 6.5631-5.6615 11.99-11.386 12.214-2.6152 0.0601-4.03 2.8409-0.0678 2.2549z" fill="#6C7174"/>
<path d="m25.107 37.215c8.2547-1.332 13.124-6.6398 13.124-13.995 0-3.8311-1.9012-7.093-3.7608-7.3496 0.6472 1.4487 1.9739 4.5331 1.9739 7.0221 0 6.619-5.7741 11.997-11.275 12.177-2.6212 0.0476-3.98 2.7682-0.0625 2.146z" fill="#656A6C"/>
<path d="m25.18 37.141c8.1933-1.4124 12.947-6.5494 12.947-13.893 0-3.8937-1.9019-6.984-3.6216-7.2562 0.633 1.4827 1.896 4.579 1.896 6.9698 0 6.6743-5.889 12.005-11.162 12.141-2.6301 0.0363-3.9305 2.6973-0.0589 2.0388z" fill="#5D6265"/>
<path d="m25.252 37.065c8.1321-1.4892 12.771-6.4553 12.771-13.789 0-3.9562-1.9019-6.875-3.4846-7.1615 0.6205 1.5161 1.8186 4.6243 1.8186 6.9186 0 6.7267-6.0016 12.012-11.05 12.102-2.6378 0.0239-3.8823 2.6254-0.0548 1.9299z" fill="#565A5C"/>
<path d="m25.325 36.99c8.0696-1.5684 12.593-6.3648 12.593-13.688 0-4.0181-1.9007-6.7655-3.3465-7.0668 0.6086 1.55 1.7423 4.6689 1.7423 6.8661 0 6.7828-6.1158 12.02-10.938 12.065-2.6461 0.0119-3.834 2.5551-0.0506 1.8233z" fill="#4F5355"/>
<path d="m25.399 36.915c8.0064-1.647 12.416-6.2701 12.416-13.584 0-4.0818-1.9013-6.6559-3.2089-6.9733 0.5943 1.5845 1.6643 4.7148 1.6643 6.8144 0 6.8381-6.229 12.028-10.825 12.028-2.6546 0-3.7853 2.483-0.0459 1.7149z" fill="#474B4C"/>
<path d="m23.997 37.779c1.9608 0 4.0324-0.4394 5.9902-1.2701 1.9906-0.8443 3.8353-2.0834 5.3346-3.5816 1.3422-1.3433 2.3949-2.8671 3.1297-4.5313 0.7907-1.7959 1.1915-3.7192 1.1915-5.7158 0-1.8863-0.2858-3.6316-0.8509-5.1845-0.524-1.4428-1.2999-2.7534-2.3086-3.8966-1.7762-2.018-4.3027-3.565-7.5098-4.5987-0.0113-0.00297-0.0238 0.00298-0.0279 0.01489-0.0042 0.01131 3e-3 0.02442 0.0143 0.02799 3.1993 1.0313 5.7192 2.5735 7.4907 4.5843 1.0039 1.1397 1.7768 2.4467 2.3002 3.883 0.5627 1.5487 0.8479 3.288 0.8479 5.1696 0 2.1788-0.4769 4.2623-1.4183 6.1927-0.8682 1.7786-2.1002 3.3768-3.6644 4.7475-1.4601 1.2808-3.1976 2.333-5.0244 3.041-1.8048 0.702-3.7061 1.073-5.4948 1.073-0.0125 0-0.0215 0.0095-0.0215 0.0226 0 0.0119 9e-3 0.022 0.0215 0.022z" fill="#E5E6E6"/>
<path d="m20.603 9.6883c-1.3946 0.36739-2.7093 0.91219-3.908 1.6202-1.2337 0.7283-2.3157 1.6125-3.2184 2.6277-0.9449 1.0653-1.6797 2.2627-2.1823 3.559-0.5347 1.3761-0.8044 2.8606-0.8044 4.4129 0 1.3928 0.2775 2.8552 0.8014 4.2277 0.5633 1.4785 1.3916 2.8319 2.4598 4.021 2.4592 2.7373 6.0034 4.376 10.247 4.7428l3e-3 -0.0298c-4.2372-0.365-7.7736-2.0013-10.227-4.7332-1.0665-1.1861-1.8924-2.5354-2.4551-4.0109-0.5228-1.3702-0.7991-2.829-0.7991-4.2176 0-1.5488 0.2692-3.0302 0.8021-4.4016 0.5014-1.2933 1.2344-2.4871 2.177-3.5506 0.9009-1.0141 1.981-1.8959 3.2106-2.6218 1.1969-0.7062 2.5176-1.2504 3.9103-1.6178l-0.0166-0.02798z" fill="#EDF1FB"/>
<path d="m28.235 9.8786c1.4421 0.02322 2.3276 0.23875 3.7602 1.1278-1.4559-0.0542-2.6944-0.6728-3.7602-1.1278z" fill="#E5E6E6"/>
<path d="m31.995 11.004c-1.4327-0.889-2.3181-1.1046-3.7602-1.1278 1.4654 0.31739 2.4276 0.61089 3.7602 1.1278z" fill="#232E30"/>
<path d="m31.995 11.002c-1.4326-0.889-2.318-1.1046-3.7602-1.1278 1.4654 0.31739 2.4276 0.61089 3.7602 1.1278z" fill="url(#bz)"/>
<path d="m32.095 10.32c0.508 0.8967 1.4398 1.7542 2.5569 2.5652-0.4621-1.1195-0.6776-1.5905-2.5569-2.5652z" fill="#7093AE"/>
<path d="m32.095 10.32c0.5079 0.8967 1.4398 1.7542 2.5569 2.5652-0.4621-1.1195-0.6776-1.5905-2.5569-2.5652z" fill="url(#by)"/>
<path d="m34.652 12.885c-0.7312-0.9111-1.5023-1.8316-2.5569-2.5652 0.508 0.8967 1.4398 1.7542 2.5569 2.5652z" fill="#232E30"/>
<path d="m34.652 12.886c-0.7313-0.911-1.5023-1.8316-2.5569-2.5652 0.5079 0.8967 1.4398 1.7542 2.5569 2.5652z" fill="url(#bx)"/>
<path d="m33.542 12.917c1.1903 0.3245 1.7917 0.5562 2.751 1.9692-1.4094-0.5788-1.6881-0.8456-2.751-1.9692z" fill="#9CB3CF"/>
<path d="m33.542 12.919c1.1903 0.3245 1.7917 0.5562 2.751 1.9692-1.4094-0.5788-1.6881-0.8456-2.751-1.9692z" fill="url(#bw)"/>
<path d="m33.542 12.917c0.7872 0.4043 1.7882 1.0986 2.751 1.9692-0.9593-1.413-1.5607-1.6447-2.751-1.9692z" fill="#232E30"/>
<path d="m33.542 12.919c0.7872 0.4043 1.7881 1.0986 2.751 1.9692-0.9593-1.413-1.5607-1.6447-2.751-1.9692z" fill="url(#bv)"/>
<path d="m36.26 13.472c0.1256 1.1819 0.6223 2.4103 1.4083 3.5923-0.0227-1.2058 0.0922-2.1793-1.4083-3.5923z" fill="#9CB3CF"/>
<path d="m36.26 13.474c0.1257 1.182 0.6223 2.4104 1.4083 3.5924-0.0226-1.2058 0.0923-2.1794-1.4083-3.5924z" fill="url(#bu)"/>
<path d="m36.184 16.214c1.2987 0.9729 1.8465 1.7768 2.0775 3.2964-0.7449-0.7931-1.3528-1.4356-2.0775-3.2964z" fill="#9CB3CF"/>
<path d="m36.184 16.213c1.2987 0.9729 1.8465 1.7768 2.0776 3.2964-0.7449-0.7932-1.3529-1.4357-2.0776-3.2964z" fill="url(#bt)"/>
<path d="m36.184 16.214c0.9974 1.1558 1.5232 2.0412 2.0775 3.2964-0.231-1.5196-0.7788-2.3235-2.0775-3.2964z" fill="#232E30"/>
<path d="m36.184 16.213c0.9974 1.1557 1.5232 2.0412 2.0776 3.2964-0.2311-1.5196-0.7789-2.3235-2.0776-3.2964z" fill="url(#bs)"/>
<path d="m39.159 19.032c-0.1959 0.8116-0.4168 1.0206-0.4865 1.6458-0.0684 0.6264-0.0446 1.7739-0.0797 2.5616 0.4043-0.8342 1.3981-1.6577 0.5662-4.2074z" fill="#9CB3CF"/>
<path d="m39.159 19.03c-0.1959 0.8116-0.4168 1.0206-0.4865 1.6459-0.0685 0.6264-0.0446 1.7738-0.0797 2.5616 0.4043-0.8342 1.398-1.6577 0.5662-4.2075z" fill="url(#bq)"/>
<path d="m38.672 20.678c-0.0684 0.6264-0.0446 1.7739-0.0797 2.5616 0.4805-1.5975 0.6293-2.7188 0.5662-4.2074-0.1959 0.8116-0.4168 1.0206-0.4865 1.6458z" fill="#232E30"/>
<path d="m38.672 20.676c-0.0685 0.6264-0.0446 1.7738-0.0797 2.5616 0.4805-1.5976 0.6293-2.7188 0.5662-4.2075-0.1959 0.8116-0.4168 1.0206-0.4865 1.6459z" fill="url(#bp)"/>
<path d="m37.611 22.139c0.3471 1.1242 1.1093 2.1442 0.2429 4.1836-0.0464-0.9616-0.7288-1.5648-0.2429-4.1836z" fill="#9CB3CF"/>
<path d="m37.611 22.138c0.3471 1.1242 1.1093 2.1442 0.2429 4.1836-0.0464-0.9617-0.7288-1.5648-0.2429-4.1836z" fill="url(#bo)"/>
<path d="m37.854 26.323c0.8664-2.0394 0.1043-3.0594-0.2429-4.1836 0.1787 1.7244 0.4609 2.7569 0.2429 4.1836z" fill="#232E30"/>
<path d="m37.854 26.322c0.8664-2.0394 0.1042-3.0594-0.2429-4.1836 0.1786 1.7244 0.4608 2.7569 0.2429 4.1836z" fill="url(#bn)"/>
<path d="m39.252 25.792c-0.5317 0.7544-1.3749 0.9884-2.6462 3.3952 1.7209-0.8794 2.2645-1.6684 2.6462-3.3952z" fill="#9CB3CF"/>
<path d="m39.251 25.793c-0.5317 0.7544-1.3748 0.9884-2.6461 3.3952 1.7208-0.8794 2.2645-1.6684 2.6461-3.3952z" fill="url(#bm)"/>
<path d="m36.605 29.187c1.3696-1.2796 2.0889-2.112 2.6462-3.3952-0.5317 0.7544-1.3749 0.9884-2.6462 3.3952z" fill="#232E30"/>
<path d="m36.605 29.188c1.3695-1.2796 2.0888-2.112 2.6461-3.3952-0.5317 0.7544-1.3748 0.9884-2.6461 3.3952z" fill="url(#bl)"/>
<path d="m36.54 26.714c-0.5467 1.0277-0.7849 1.6-0.8855 1.9316-0.1006 0.3317-0.1584 1.6941-0.2275 1.9805 0.7712-0.8729 0.889-1.4964 0.9664-1.8435 0.0756-0.3478 0.1847-1.304 0.1466-2.0686z" fill="#9CB3CF"/>
<path d="m36.54 26.714c-0.5466 1.0278-0.7848 1.6-0.8855 1.9317-0.1006 0.3316-0.1583 1.694-0.2274 1.9804 0.7711-0.8729 0.8889-1.4963 0.9664-1.8435 0.0756-0.3477 0.1846-1.304 0.1465-2.0686z" fill="url(#bk)"/>
<path d="m35.427 30.627c0.4163-0.9968 0.8908-2.7492 1.113-3.9121-0.5467 1.0277-0.7849 1.5999-0.8855 1.9316-0.0977 0.321-0.1584 1.6941-0.2275 1.9805 0.0012-6e-4 0 6e-4 0 0z" fill="#232E30"/>
<path d="m35.428 30.628c0.4162-0.9968 0.8908-2.7492 1.1129-3.9121-0.5466 1.0278-0.7848 1.6-0.8855 1.9317-0.0976 0.3209-0.1583 1.694-0.2274 1.9804 0.0012-6e-4 0 6e-4 0 0z" fill="url(#bj)"/>
<path d="m33.852 30.6c-0.7247 0.6794-1.1558 1.0968-1.5024 1.638-0.3465 0.5413-0.4466 1.1707-0.8092 1.703 1.9417-1.0813 1.9805-2.3061 2.3116-3.341z" fill="#9CB3CF"/>
<path d="m33.852 30.6c-0.7247 0.6794-1.1558 1.0968-1.5024 1.638-0.3465 0.5413-0.4466 1.1707-0.8092 1.703 1.9417-1.0813 1.9805-2.3061 2.3116-3.341z" fill="url(#bi)"/>
<path d="m32.349 32.238c-0.3465 0.5413-0.4466 1.1707-0.8092 1.703 0.7967-0.7681 1.6869-2.1204 2.3116-3.341-0.7247 0.6794-1.1558 1.0968-1.5024 1.638z" fill="#232E30"/>
<path d="m32.349 32.238c-0.3465 0.5413-0.4466 1.1707-0.8092 1.703 0.7967-0.7681 1.6869-2.1204 2.3116-3.341-0.7247 0.6794-1.1558 1.0968-1.5024 1.638z" fill="url(#bh)"/>
<path d="m36.779 31.07c-0.6073 0.2739-1.1927 0.3704-1.8155 0.6431-0.6223 0.2745-1.3885 1.0277-1.8482 1.3314 1.6553-0.1084 2.8617-0.6407 3.6637-1.9745z" fill="#9CB3CF"/>
<path d="m36.779 31.068c-0.6074 0.2739-1.1927 0.3704-1.8156 0.6431-0.6222 0.2745-1.3885 1.0277-1.8482 1.3314 1.6554-0.1084 2.8617-0.6407 3.6638-1.9745z" fill="url(#bf)"/>
<path d="m26.58 35.906c0.5782-0.5335 0.758-1.0325 1.3124-1.4612 0.5543-0.4288 1.4678-0.8914 2.0555-1.0659-0.6806 0.8235-1.5422 2.1674-3.3679 2.5271z" fill="#9CB3CF"/>
<path d="m26.58 35.904c0.5782-0.5336 0.758-1.0325 1.3124-1.4613 0.5544-0.4287 1.4678-0.8914 2.0555-1.0658-0.6806 0.8235-1.5422 2.1674-3.3679 2.5271z" fill="url(#be)"/>
<path d="m26.58 35.906c1.4327-0.7824 2.0645-1.6816 3.3679-2.5271-0.5877 0.1745-1.5012 0.6371-2.0555 1.0659-0.5544 0.4287-0.7342 0.9277-1.3124 1.4612z" fill="#232E30"/>
<path d="m26.58 35.904c1.4327-0.7825 2.0645-1.6816 3.3679-2.5271-0.5877 0.1744-1.5011 0.6371-2.0555 1.0658-0.5544 0.4288-0.7342 0.9277-1.3124 1.4613z" fill="url(#bd)"/>
<path d="m30.678 35.595c-1.2368 0.0804-1.4577-0.134-2.0573-0.14 1.803-0.7181 2.1264-0.7758 4.276-0.6365-0.7051 0.5562-1.3881 0.7098-2.2187 0.7765z" fill="#9CB3CF"/>
<path d="m30.678 35.595c-1.2368 0.0804-1.4577-0.134-2.0573-0.14 1.803-0.7181 2.1264-0.7758 4.276-0.6365-0.7051 0.5562-1.3881 0.7098-2.2187 0.7765z" fill="url(#bc)"/>
<path d="m28.62 35.453c1.5143-0.4394 2.9237-0.1149 4.276-0.6365-2.1496-0.1393-2.4729-0.0816-4.276 0.6365z" fill="#232E30"/>
<path d="m28.62 35.451c1.5142-0.4394 2.9236-0.1149 4.2759-0.6365-2.1496-0.1394-2.4729-0.0816-4.2759 0.6365z" fill="url(#bb)"/>
<path d="m26.563 37.123c-1.1992-0.0905-1.9667-0.5793-2.4723-0.7753 1.2005-0.1101 2.3937-0.197 3.1428-0.0583 0.7651 0.1405 1.0807 0.5097 1.6297 0.5329-0.9247 0.3251-1.6648 0.349-2.3002 0.3007z" fill="#9CB3CF"/>
<path d="m26.563 37.122c-1.1992-0.0905-1.9668-0.5793-2.4723-0.7752 1.2004-0.1102 2.3937-0.1971 3.1428-0.0584 0.7651 0.1405 1.0807 0.5097 1.6297 0.5329-0.9248 0.3251-1.6649 0.349-2.3002 0.3007z" fill="url(#ba)"/>
<path d="m24.091 36.349c1.5827 0.184 2.9117 0.4632 4.7725 0.4746-0.549-0.0233-0.8646-0.3924-1.6297-0.533-0.7491-0.1387-1.9423-0.0518-3.1428 0.0584z" fill="#232E30"/>
<path d="m24.091 36.349c1.5827 0.1839 2.9117 0.4632 4.7725 0.4745-0.549-0.0232-0.8646-0.3924-1.6297-0.5329-0.7491-0.1387-1.9424-0.0518-3.1428 0.0584z" fill="url(#az)"/>
<path d="m33.115 33.044c0.9592-0.5311 2.3704-0.8533 3.6637-1.9745-0.6073 0.2739-1.1927 0.3704-1.8155 0.6431-0.6223 0.2745-1.3885 1.0277-1.8482 1.3314z" fill="#232E30"/>
<path d="m33.115 33.043c0.9593-0.5311 2.3705-0.8533 3.6638-1.9745-0.6074 0.2739-1.1927 0.3704-1.8156 0.6431-0.6222 0.2745-1.3885 1.0277-1.8482 1.3314z" fill="url(#ay)"/>
<path d="m36.26 13.472c0.1256 1.1819 0.6223 2.4103 1.4083 3.5923-0.3174-1.4892-0.7337-2.218-1.4083-3.5923z" fill="#232E30"/>
<path d="m36.26 13.474c0.1257 1.182 0.6223 2.4104 1.4083 3.5924-0.3173-1.4893-0.7336-2.2181-1.4083-3.5924z" fill="url(#ax)"/>
<path d="m19.772 9.8764c-1.4398 0.02323-2.3258 0.23879-3.7585 1.1278 1.4553-0.0542 2.695-0.6729 3.7585-1.1278z" fill="#F1F5FC"/>
<path d="m19.772 9.8746c-1.4398 0.02323-2.3258 0.23879-3.7584 1.1278 1.4552-0.0542 2.695-0.6729 3.7584-1.1278z" fill="url(#aw)"/>
<path d="m16.014 11.004c1.4327-0.889 2.3187-1.1046 3.7585-1.1278-1.438 0.33229-2.4259 0.61089-3.7585 1.1278z" fill="#232E30"/>
<path d="m16.014 11.002c1.4326-0.889 2.3186-1.1046 3.7584-1.1278-1.438 0.33229-2.4258 0.61089-3.7584 1.1278z" fill="url(#au)"/>
<path d="m15.913 10.32c-0.5073 0.8967-1.4398 1.7542-2.5574 2.5652 0.462-1.1195 0.6776-1.5905 2.5574-2.5652z" fill="#232E30"/>
<path d="m15.913 10.32c-0.5073 0.8967-1.4398 1.7542-2.5575 2.5652 0.4621-1.1195 0.6777-1.5905 2.5575-2.5652z" fill="url(#at)"/>
<path d="m13.356 12.885c0.8765-0.9539 1.2272-1.5137 2.5574-2.5652-0.5073 0.8967-1.4398 1.7542-2.5574 2.5652z" fill="#587089"/>
<path d="m13.356 12.886c0.8765-0.9539 1.2273-1.5136 2.5575-2.5652-0.5073 0.8967-1.4398 1.7542-2.5575 2.5652z" fill="url(#as)"/>
<path d="m14.464 12.917c-1.1891 0.3245-1.7904 0.5562-2.7503 1.9692 1.41-0.5788 1.6886-0.8456 2.7503-1.9692z" fill="#F1F5FC"/>
<path d="m14.464 12.919c-1.1891 0.3245-1.7904 0.5562-2.7503 1.9692 1.41-0.5788 1.6886-0.8456 2.7503-1.9692z" fill="url(#ar)"/>
<path d="m14.464 12.917c-0.7854 0.4043-1.7761 1.1361-2.7503 1.9692 0.9599-1.413 1.5612-1.6447 2.7503-1.9692z" fill="#232E30"/>
<path d="m14.464 12.919c-0.7854 0.4043-1.7761 1.1361-2.7503 1.9692 0.9599-1.413 1.5612-1.6447 2.7503-1.9692z" fill="url(#aq)"/>
<path d="m11.749 13.472c-0.1274 1.1819-0.5495 2.3591-1.4099 3.5923 0.0238-1.2058-0.0049-2.1484 1.4099-3.5923z" fill="#9CB3CF"/>
<path d="m11.749 13.474c-0.1274 1.182-0.5496 2.3592-1.41 3.5924 0.0238-1.2058-0.0048-2.1484 1.41-3.5924z" fill="url(#ap)"/>
<path d="m11.749 13.472c-0.1274 1.1819-0.6329 2.4091-1.4099 3.5923 0.4049-1.6577 0.8538-2.2794 1.4099-3.5923z" fill="#232E30"/>
<path d="m11.749 13.474c-0.1274 1.182-0.6329 2.4092-1.41 3.5924 0.4049-1.6578 0.8538-2.2794 1.41-3.5924z" fill="url(#ao)"/>
<path d="m11.831 16.219c-1.3064 0.9622-1.8613 1.7613-2.1043 3.2797 0.75148-0.7878 1.3642-1.4255 2.1043-3.2797z" fill="#F1F5FC"/>
<path d="m11.831 16.22c-1.3064 0.9623-1.8614 1.7614-2.1043 3.2798 0.75149-0.7878 1.3641-1.4255 2.1043-3.2798z" fill="url(#an)"/>
<path d="m11.831 16.219c-0.7223 0.7729-1.937 2.7384-2.1043 3.2797 0.24295-1.5184 0.79788-2.3175 2.1043-3.2797z" fill="#232E30"/>
<path d="m11.831 16.22c-0.7223 0.7729-1.937 2.7385-2.1043 3.2798 0.24294-1.5184 0.79789-2.3175 2.1043-3.2798z" fill="url(#am)"/>
<path d="m9.3338 20.678c0.06966 0.6264 0.04643 1.7739 0.08097 2.5616-0.44123-1.323-0.49358-2.6967-0.56623-4.2074 0.1959 0.8116 0.41618 1.0206 0.48526 1.6458z" fill="#232E30"/>
<path d="m9.3338 20.676c0.06966 0.6264 0.04643 1.7738 0.08097 2.5616-0.44123-1.3231-0.49358-2.6968-0.56623-4.2075 0.1959 0.8116 0.41618 1.0206 0.48526 1.6459z" fill="url(#al)"/>
<path d="m10.397 22.139c-0.3465 1.1242-1.1093 2.1442-0.2429 4.1836 0.047-0.9616 0.7282-1.5648 0.2429-4.1836z" fill="#F1F5FC"/>
<path d="m10.397 22.138c-0.3466 1.1242-1.1093 2.1442-0.2429 4.1836 0.047-0.9617 0.7282-1.5648 0.2429-4.1836z" fill="url(#aj)"/>
<path d="m10.154 26.323c-0.86639-2.0394-0.1036-3.0594 0.2429-4.1836-0.0339 1.7619-0.52456 2.7569-0.2429 4.1836z" fill="#232E30"/>
<path d="m10.154 26.322c-0.86641-2.0394-0.1037-3.0594 0.2429-4.1836-0.034 1.7619-0.52458 2.7569-0.2429 4.1836z" fill="url(#ai)"/>
<path d="m8.7568 25.792c0.53114 0.7544 1.3749 0.9884 2.6462 3.3952-1.7221-0.8794-2.2657-1.6684-2.6462-3.3952z" fill="#9CB3CF"/>
<path d="m8.7568 25.793c0.53114 0.7544 1.3748 0.9884 2.6461 3.3952-1.722-0.8794-2.2656-1.6684-2.6461-3.3952z" fill="url(#ah)"/>
<path d="m11.468 26.714c0.546 1.0277 0.7853 1.6 0.8853 1.9316 0.1001 0.3317 0.1578 1.6941 0.2269 1.9805-0.7705-0.8729-0.9819-1.4779-1.0587-1.825-0.0768-0.3484-0.0923-1.3225-0.0535-2.0871z" fill="#232E30"/>
<path d="m11.468 26.714c0.5461 1.0278 0.7854 1.6 0.8854 1.9317 0.1001 0.3316 0.1578 1.694 0.2269 1.9804-0.7705-0.8729-0.9819-1.4779-1.0587-1.825-0.0768-0.3483-0.0923-1.3225-0.0536-2.0871z" fill="url(#ag)"/>
<path d="m12.581 30.627c-0.5758-0.8628-0.7627-2.8237-1.1123-3.9121 0.546 1.0277 0.7854 1.5999 0.8854 1.9316 0.0965 0.321 0.1578 1.6941 0.2269 1.9805 0 6e-4 -6e-4 -6e-4 0 0z" fill="#F1F5FC"/>
<path d="m12.58 30.628c-0.5758-0.8628-0.7628-2.8236-1.1123-3.9121 0.546 1.0278 0.7854 1.6 0.8854 1.9317 0.0965 0.3209 0.1578 1.694 0.2269 1.9804 0 6e-4 -6e-4 -6e-4 0 0z" fill="url(#af)"/>
<path d="m14.156 30.6c0.7253 0.6794 1.1564 1.0968 1.503 1.638 0.3471 0.5413 0.4477 1.1707 0.8098 1.703-1.9424-1.0813-1.9799-2.3061-2.3128-3.341z" fill="#232E30"/>
<path d="m14.156 30.6c0.7253 0.6794 1.1564 1.0968 1.503 1.638 0.3471 0.5413 0.4477 1.1707 0.8098 1.703-1.9424-1.0813-1.9799-2.3061-2.3128-3.341z" fill="url(#ae)"/>
<path d="m15.659 32.238c0.3471 0.5413 0.4477 1.1707 0.8098 1.703-0.4514-0.2971-1.8543-2.4467-2.3128-3.341 0.7253 0.6794 1.1564 1.0968 1.503 1.638z" fill="#F1F5FC"/>
<path d="m15.659 32.238c0.3471 0.5413 0.4477 1.1707 0.8098 1.703-0.4514-0.2971-1.8543-2.4467-2.3128-3.341 0.7253 0.6794 1.1564 1.0968 1.503 1.638z" fill="url(#ad)"/>
<path d="m11.23 31.069c0.6079 0.271 1.1938 0.3638 1.8179 0.6336 0.6234 0.2709 1.3939 1.0194 1.8565 1.3213-1.6565-0.1006-2.8664-0.627-3.6744-1.9549z" fill="#9CB3CF"/>
<path d="m11.229 31.068c0.6079 0.2709 1.1938 0.3638 1.8179 0.6335 0.6234 0.2709 1.3939 1.0194 1.8565 1.3213-1.6565-0.1006-2.8664-0.627-3.6744-1.9548z" fill="url(#ac)"/>
<path d="m14.904 33.024c-0.964-0.5252-2.2811-0.8872-3.6744-1.9549 0.6079 0.271 1.1938 0.3638 1.8179 0.6336 0.6234 0.2709 1.3939 1.0194 1.8565 1.3213z" fill="#232E30"/>
<path d="m14.904 33.022c-0.964-0.5252-2.2811-0.8872-3.6744-1.9548 0.6079 0.2709 1.1938 0.3638 1.8179 0.6335 0.6234 0.2709 1.3939 1.0194 1.8565 1.3213z" fill="url(#ab)"/>
<path d="m21.428 35.906c-0.5788-0.5335-0.758-1.0325-1.3123-1.4612-0.555-0.4288-1.4679-0.8914-2.0574-1.0659 0.6818 0.8235 1.5429 2.1674 3.3697 2.5271z" fill="#232E30"/>
<path d="m21.428 35.904c-0.5788-0.5336-0.758-1.0325-1.3123-1.4613-0.555-0.4287-1.4679-0.8914-2.0574-1.0658 0.6818 0.8235 1.5429 2.1674 3.3697 2.5271z" fill="url(#aa)"/>
<path d="m21.428 35.906c-1.2296-0.6782-1.9507-1.6137-3.3697-2.5271 0.5895 0.1745 1.5024 0.6371 2.0574 1.0659 0.5543 0.4287 0.7335 0.9277 1.3123 1.4612z" fill="#F1F5FC"/>
<path d="m21.428 35.904c-1.2296-0.6783-1.9507-1.6137-3.3697-2.5271 0.5895 0.1744 1.5024 0.6371 2.0574 1.0658 0.5543 0.4288 0.7335 0.9277 1.3123 1.4613z" fill="url(#y)"/>
<path d="m17.331 35.595c1.2361 0.0804 1.4582-0.134 2.0572-0.14-1.8024-0.7181-2.1269-0.7758-4.2759-0.6365 0.705 0.5562 1.3874 0.7098 2.2187 0.7765z" fill="#9CB3CF"/>
<path d="m17.331 35.595c1.2361 0.0804 1.4582-0.134 2.0572-0.14-1.8024-0.7181-2.1269-0.7758-4.2759-0.6365 0.705 0.5562 1.3874 0.7098 2.2187 0.7765z" fill="url(#x)"/>
<path d="m19.388 35.453c-1.5821-0.3179-2.9242-0.1149-4.2759-0.6365 2.149-0.1393 2.4735-0.0816 4.2759 0.6365z" fill="#232E30"/>
<path d="m19.388 35.451c-1.5821-0.318-2.9242-0.1149-4.2759-0.6365 2.149-0.1394 2.4735-0.0816 4.2759 0.6365z" fill="url(#w)"/>
<path d="m21.443 37.123c1.2005-0.0905 1.968-0.5793 2.4735-0.7753-1.1998-0.1101-2.3925-0.197-3.1428-0.0583-0.7651 0.1405-1.0807 0.5097-1.6297 0.5329 0.9248 0.3251 1.6649 0.349 2.299 0.3007z" fill="#9CB3CF"/>
<path d="m21.443 37.122c1.2004-0.0905 1.9679-0.5793 2.4735-0.7752-1.1999-0.1102-2.3925-0.1971-3.1428-0.0584-0.7651 0.1405-1.0807 0.5097-1.6297 0.5329 0.9247 0.3251 1.6649 0.349 2.299 0.3007z" fill="url(#v)"/>
<path d="m23.917 36.349c-1.5827 0.184-2.9117 0.4632-4.7725 0.4746 0.549-0.0233 0.8646-0.3924 1.6297-0.533 0.7503-0.1387 1.943-0.0518 3.1428 0.0584z" fill="#232E30"/>
<path d="m23.917 36.349c-1.5827 0.1839-2.9117 0.4632-4.7725 0.4745 0.549-0.0232 0.8646-0.3924 1.6297-0.5329 0.7503-0.1387 1.9429-0.0518 3.1428 0.0584z" fill="url(#u)"/>
<path d="m11.403 29.187c-0.8247-0.8259-2.1252-1.9935-2.6462-3.3952 0.53114 0.7544 1.3749 0.9884 2.6462 3.3952z" fill="#232E30"/>
<path d="m11.403 29.188c-0.8247-0.8258-2.1251-1.9935-2.6461-3.3952 0.53114 0.7544 1.3748 0.9884 2.6461 3.3952z" fill="url(#t)"/>
<path d="m32.898 34.808c-2.1347-0.1387-2.4538-0.0905-4.2824 0.6389-0.0078 0.0024-0.0119 0.0113-9e-3 0.0179 0.0036 0.0083 0.0125 0.0119 0.0197 0.0095 1.8226-0.7264 2.1418-0.7747 4.2687-0.6371 9e-3 0.0018 0.0161-0.0066 0.0161-0.0143 6e-4 -0.0077-0.0059-0.0149-0.0131-0.0149z" fill="#818384"/>
<path d="m36.768 31.048c-0.3055 0.1375-0.6127 0.2328-0.9104 0.3239-0.2924 0.0899-0.5955 0.1834-0.9033 0.3186-0.4032 0.1786-0.8622 0.5514-1.2671 0.8806-0.2179 0.1781-0.4228 0.3454-0.5865 0.4526l-0.0203 0.0143 0.0274 0.0416 0.0209-0.0142c0.1649-0.109 0.3709-0.2769 0.5895-0.4556 0.4031-0.3281 0.8586-0.699 1.2558-0.8723 0.306-0.1352 0.6073-0.2286 0.8979-0.3186 0.2995-0.0917 0.608-0.1863 0.9164-0.3257l0.0232-0.0107-0.0202-0.0446-0.0233 0.0101z" fill="#88898A"/>
<path d="m38.274 19.5-0.0113-0.0107c-0.7502-0.8003-1.3427-1.4315-2.0632-3.2791-0.0042-9e-3 -0.0125-0.0131-0.0208-0.0102-9e-3 0.0036-0.0131 0.0125-0.0096 0.0215 0.7229 1.8548 1.3172 2.4883 2.0698 3.2898l0.0113 0.0119c0.0054 0.0066 0.0161 0.0072 0.0233 6e-4 0.0065-0.0059 0.0071-0.0172 5e-4 -0.0238z" fill="#D0D1D3"/>
<path d="m37.71 17.065-0.0036-0.2775c-0.0107-1.0891-0.0202-2.0293-1.4195-3.3446l-0.0572 0.0601c1.3725 1.2921 1.3814 2.2157 1.3933 3.2851l0.0036 0.2781 0.0834-0.0012z" fill="#EBF1FB"/>
<path d="m36.299 14.869c-1.3981-0.5746-1.6744-0.8342-2.7438-1.9655-0.0072-0.0072-0.0173-0.0072-0.025-0.0012-6e-3 0.0059-6e-3 0.0166 0 0.0232 1.0748 1.1361 1.351 1.3963 2.7563 1.9739 0.0083 0.0042 0.0179 0 0.022-0.0083 0.0036-9e-3 0-0.0185-0.0095-0.0221z" fill="#C3C4C6"/>
<path d="m15.113 34.833c2.1264-0.1381 2.4461-0.0899 4.2682 0.6366 0.0083 0.0029 0.0167-6e-4 0.0202-0.0084 3e-3 -0.0077-5e-4 -0.0161-0.0083-0.019-1.8292-0.7289-2.1484-0.7771-4.2825-0.6389-0.0077 0.0017-0.0142 0.0083-0.0142 0.016 6e-4 0.0084 0.0083 0.0143 0.0166 0.0137z" fill="#939596"/>
<path d="m19.146 36.838c0.2823-0.0125 0.5002-0.1131 0.7533-0.2292 0.2358-0.1108 0.5037-0.2346 0.8782-0.3043 0.7598-0.1399 1.9668-0.0476 3.1381 0.0589 0.0077 6e-4 0.0154-0.0053 0.0166-0.0137 0.0012-0.0077-0.0047-0.0154-0.0143-0.0166-1.1736-0.106-2.3835-0.1989-3.1469-0.0578-0.3763 0.0703-0.6467 0.1953-0.8848 0.3061-0.2507 0.1149-0.4657 0.2149-0.742 0.2268-0.0083 0-0.0149 0.0072-0.0143 0.0155 6e-4 0.0084 0.0066 0.0143 0.0161 0.0143z" fill="#838486"/>
<path d="m28.887 36.838c-0.2823-0.0125-0.5008-0.1131-0.7533-0.2292-0.2364-0.1108-0.5043-0.2346-0.8777-0.3043-0.761-0.1399-1.9679-0.0476-3.1386 0.0589-0.0089 6e-4 -0.0155-0.0053-0.0173-0.0137-5e-4 -0.0077 6e-3 -0.0154 0.0143-0.0166 1.1737-0.106 2.383-0.1989 3.147-0.0578 0.3775 0.0703 0.6466 0.1953 0.8854 0.3061 0.2501 0.1149 0.4645 0.2149 0.7419 0.2268 0.0084 0 0.0143 0.0072 0.0143 0.0155 0 0.0084-0.0071 0.0143-0.016 0.0143z" fill="#838486"/>
<path d="m8.8342 19.037c0.08931 0.3667 0.18221 0.6097 0.26438 0.8252 0.09825 0.2561 0.1828 0.477 0.22091 0.8188 0.04227 0.3835 0.05061 0.97 0.05835 1.5368 0.00417 0.3531 0.00834 0.7187 0.02263 1.0242 6e-4 0.0083 0.00655 0.0137 0.01548 0.0137 0.00834-6e-4 0.01429-0.0077 0.01429-0.0149-0.01369-0.3054-0.01905-0.6699-0.02441-1.0236-0.00655-0.5674-0.0137-1.1551-0.05776-1.5392-0.03751-0.3459-0.12326-0.568-0.22151-0.8277-0.08276-0.2131-0.17446-0.4555-0.26259-0.8199-0.00238-0.0083-0.01012-0.0125-0.01846-0.0113-0.00834 0.0024-0.0131 0.0107-0.01131 0.0179z" fill="#94A3AF"/>
<path d="m11.224 31.085c0.3084 0.1376 0.6181 0.2311 0.917 0.3222 0.2917 0.0869 0.5936 0.1786 0.9009 0.3114 0.3995 0.1733 0.858 0.5424 1.2623 0.8681 0.2192 0.1775 0.4264 0.3448 0.5919 0.4526 0.0072 0.0036 0.0161 0.0024 0.0203-0.0048 0.0047-0.0071 0.0023-0.0161-0.0042-0.0208-0.1638-0.106-0.3704-0.2733-0.5895-0.4502-0.4049-0.3269-0.8658-0.6967-1.2689-0.8723-0.309-0.1334-0.6115-0.2251-0.9045-0.3138-0.2983-0.0893-0.6056-0.1834-0.914-0.3192-0.0071-3e-3 -0.0161 0-0.0196 0.0078-3e-3 0.0065 0 0.016 0.0083 0.019z" fill="#818384"/>
<path d="m8.7437 25.799c0.16792 0.2376 0.36799 0.4258 0.59902 0.6425 0.49661 0.4651 1.1766 1.1022 2.0466 2.7522 0.0042 0.0071 0.0131 0.0095 0.0197 0.0054 0.0071-3e-3 0.0101-0.0126 0.0065-0.0197-0.8735-1.6536-1.5541-2.2937-2.0519-2.7599-0.23044-0.2161-0.42932-0.4019-0.59426-0.6377-0.00536-0.0072-0.01489-0.0078-0.02203-0.0042-0.00655 6e-3 -0.00774 0.0149-0.00358 0.0214z" fill="#838486"/>
<path d="m11.735 13.47c-0.1334 1.2469-0.5943 2.4199-1.4077 3.5858-0.0047 0.0065-0.0036 0.0155 0.0036 0.0208 0.0071 0.0042 0.0161 0.0024 0.0202-0.0041 0.817-1.1695 1.2785-2.3479 1.4136-3.6001 6e-4 -0.0078-0.0053-0.0149-0.0137-0.0161-0.0083-6e-4 -0.0155 0.0048-0.016 0.0137z" fill="#BABBBD"/>
<path d="m27.975 9.2781c3.0296 0.88242 5.5936 2.4211 7.4151 4.4504 1.0021 1.1158 1.778 2.3788 2.3062 3.7525 0.5674 1.4749 0.855 3.0939 0.855 4.8136 0 1.7976-0.3745 3.556-1.1141 5.2233-0.7163 1.622-1.7488 3.0927-3.0665 4.3723-2.7182 2.6426-6.3987 4.2116-10.366 4.4159-0.0083 6e-4 -0.0149 0.0077-0.0137 0.0155 0 0.0095 0.0066 0.0149 0.0155 0.0149 3.9728-0.2055 7.6616-1.7763 10.385-4.4248 1.3201-1.2826 2.3538-2.757 3.0743-4.3807 0.7396-1.6721 1.1153-3.4334 1.1153-5.2364 0-1.7232-0.2888-3.3464-0.8569-4.8243-0.5305-1.3773-1.3076-2.6432-2.3121-3.7609-1.825-2.034-4.3944-3.5763-7.4288-4.4605-0.0083-0.00179-0.0197 0.01071-0.022 0.01905-0.0024 0.00714 0.0059 0.00774 0.0137 0.01012z" fill="#fff"/>
<path d="m24.001 36.307c-3.9668-0.2049-7.6467-1.7739-10.366-4.4159-1.316-1.2802-2.3479-2.7509-3.0654-4.3729-0.73835-1.6673-1.1123-3.4257-1.1123-5.2233 0-1.7179 0.28642-3.3357 0.8527-4.8089 0.5287-1.3737 1.304-2.6354 2.305-3.7507 1.8197-2.0287 4.3813-3.5679 7.4073-4.4522 0.0084-0.00238 0.0221 0 0.0203-0.00774-3e-3 -0.00714-0.0381-0.01786-0.0429-0.01667-3.0243 0.88607-5.5859 2.4271-7.4074 4.457-1.0033 1.1176-1.7798 2.3823-2.3091 3.7596-0.56807 1.4767-0.85626 3.0987-0.85626 4.8196 0 1.803 0.37513 3.5643 1.1147 5.2364 0.7199 1.6237 1.7536 3.0981 3.0731 4.3819 2.7236 2.6473 6.4106 4.2181 10.384 4.4236 0.0089 0 0.0154-0.0054 0.0154-0.0137 0.0012-9e-3 -0.0059-0.0155-0.0137-0.0161z" fill="#fff"/>
<path d="m24.005 30.207c2.1263-0.4626 4.7886-1.3052 6.9459-2.2317 0.2668-0.1137 0.4644-0.29 0.6246-0.5162v-1.6417l-7.5705-1.8036v6.1932z" fill="#D3E2F5"/>
<path d="m24.005 30.207c2.1263-0.4626 4.7886-1.3052 6.9459-2.2317 0.2668-0.1137 0.4644-0.29 0.6246-0.5162v-1.6417l-7.5705-1.8036v6.1932z" fill="url(#s)"/>
<path d="m27.967 18.669h4.3516l0.5633-0.9223h-5.0703v2.5753h-3.7215v-2.5753h-0.159v1.85h-7.6068l0.0559 0.0971v0.0375h7.5509v1.3064h-7.5366c0 0.0435 6e-4 0.0953 0.0012 0.1393h7.5354v1.7346h-7.5151c6e-4 0.0429 0.0011 0.0911 0.0011 0.134h3.6811v2.4818h-3.6417v0.0065c0.0107 0.3591 0.047 0.6747 0.1226 0.9468h3.5233v0.8455h-2.9796c0.1393 0.1042 0.3066 0.1864 0.5055 0.2478 0.7985 0.2435 1.7244 0.4954 2.6069 0.721v-2.6324l3.6959-0.0042v3.4387c0.0137 0.0018 0.0303 0.0048 0.0452 0.0072 0.0274-0.0042 0.0858-0.0096 0.1138-0.0131v-2.6944h7.43c0.0095-0.0423 0.0191-0.0941 0.028-0.1382h-7.458v-1.2969h7.5401c0.0012-0.0411 0.0019-0.1101 0.0037-0.1554h-7.5438v-1.7607h7.5681c0-0.0429 7e-4 -0.0995 0.0012-0.1429h-3.6924v-2.4509h3.7199c0.0047-0.4615 0.0089-0.758 0.0089-0.758l0.1292-0.2132h-3.858v-0.8116z" fill="#BCD0ED"/>
<path d="m27.967 18.669h4.3515l0.5634-0.9224h-5.0703v2.5753h-3.7216v-2.5753h-0.1589v1.8501h-7.6069l0.056 0.097v0.0375h7.5509v1.3064h-7.5366c0 0.0435 6e-4 0.0953 0.0012 0.1394h7.5354v1.7345h-7.5152c6e-4 0.0429 0.0012 0.0911 0.0012 0.134h3.6811v2.4818h-3.6418v0.0066c0.0107 0.359 0.047 0.6746 0.1227 0.9467h3.5232v0.8456h-2.9796c0.1394 0.1042 0.3067 0.1864 0.5056 0.2477 0.7985 0.2435 1.7244 0.4954 2.6068 0.7211v-2.6325l3.696-0.0042v3.4387c0.0137 0.0018 0.0303 0.0048 0.0452 0.0072 0.0274-0.0042 0.0858-0.0095 0.1137-0.0131v-2.6944h7.4301c0.0095-0.0423 0.019-0.0941 0.028-0.1382h-7.4581v-1.2968h7.5402c0.0012-0.0411 0.0018-0.1102 0.0036-0.1555h-7.5438v-1.7607h7.5682c0-0.0429 6e-4 -0.0994 0.0012-0.1429h-3.6924v-2.4509h3.7198c0.0048-0.4614 9e-3 -0.758 9e-3 -0.758l0.1291-0.2131h-3.8579v-0.8116z" fill="url(#r)"/>
<path d="m31.179 26.675-6.9197 2.2073-0.2114 0.2584v-2.7849h7.5241l-0.393 0.3192z" fill="#606969"/>
<path d="m24.259 28.882 6.9197-2.2073 0.393-0.3192-0.0119 0.0518c-0.1537 0.6461-0.5032 1.0248-1.101 1.207-1.9876 0.6068-4.825 1.2874-6.363 1.5184l-0.0482 0.0077 0.2114-0.2584z" fill="#E3EBF7"/>
<path d="m16.919 25.072 3.2202-2.0674v2.5664h-3.7221l0.5019-0.499z" fill="#E3EBF7"/>
<path d="m16.919 25.072-0.502 0.499-0.0012-0.0411c-0.0107-0.3728-0.0238-1.2082-0.0405-2.483v-0.0423h3.7639l-3.2202 2.0674z" fill="#606969"/>
<path d="m23.725 25.91 0.2465-0.293v3.5293l-0.0476-0.0072c-0.8473-0.125-2.1847-0.418-3.6739-0.7985l-0.031-0.0071 3.506-2.4235z" fill="#E3EBF7"/>
<path d="m23.725 25.91-3.506 2.4235v-2.7165h3.7525l-0.2465 0.293z" fill="#606969"/>
<path d="m17.19 27.13 2.7021-0.4662 0.2513-0.2239v0.9283h-3.0213l0.0679-0.2382z" fill="#E3EBF7"/>
<path d="m19.892 26.664-2.7021 0.4662-0.0679 0.2382h-0.0149l-0.0107-0.0077c-0.2685-0.1989-0.4519-0.4835-0.5579-0.8682l-0.0149-0.0524h3.6197l-0.2513 0.2239z" fill="#606969"/>
<path d="m23.835 21.292-7.0555 1.3338-0.4061 0.3287-6e-4 -0.0422-0.0202-1.7346v-0.0423h7.6182l-0.1358 0.1566z" fill="#606969"/>
<path d="m16.78 22.626 7.0554-1.3338 0.1358-0.1566v1.8191h-7.5973l0.4061-0.3287z" fill="#E3EBF7"/>
<path d="m24.359 20.068 3.1815-2.0079 0.3126-0.3548v2.6586h-3.8049l0.3108-0.2959z" fill="#E3EBF7"/>
<path d="m27.54 18.06-3.1815 2.0079-0.3108 0.2959v-2.6586h3.8049l-0.3126 0.3548z" fill="#606969"/>
<path d="m23.775 19.874 0.1965-0.184v1.3904h-7.6188l7.4223-1.2064z" fill="#E3EBF7"/>
<path d="m23.775 19.874-7.4223 1.2064-0.0012-0.0423-0.0119-1.3058-6e-4 -0.0423h7.6325l-0.1965 0.184z" fill="#606969"/>
<path d="m16.42 19.437 7.3758-1.5374 0.1757-0.1941v1.9334h-7.6706l0.1191-0.2019z" fill="#E3EBF7"/>
<path d="m23.796 17.9-7.3758 1.5374-0.1191 0.2019-0.0119-0.0197-1.1307-1.8512-0.0382-0.0625h8.8514l-0.1757 0.1941z" fill="#606969"/>
<path d="m31.256 20.907-2.9618 1.7304-0.3692 0.3079v-2.5343h3.8032l-0.4722 0.496z" fill="#606969"/>
<path d="m28.295 22.637 2.9618-1.7304 0.4722-0.496v0.0417l-0.0274 2.4515-0.0012 0.0411h-3.7746l0.3692-0.3079z" fill="#E3EBF7"/>
<path d="m31.926 18.86-3.7728 0.493-0.2281 0.1697v-0.8944h4.4159l-0.415 0.2317z" fill="#606969"/>
<path d="m28.154 19.353 3.7728-0.493 0.415-0.2317-0.0393 0.0631-0.4942 0.811-0.0119 0.0203h-3.8705l0.2281-0.1697z" fill="#E3EBF7"/>
<path d="m31.278 25.205-7.0132 0.8979-0.2167 0.1971v-1.3784h7.6253l-0.3954 0.2834z" fill="#606969"/>
<path d="m24.265 26.103 7.0132-0.8979 0.3954-0.2834v0.0416l-0.0143 0.5729c-0.0077 0.2804-0.0304 0.5192-0.0715 0.73l-0.0053 0.0339h-7.5342l0.2167-0.1971z" fill="#E3EBF7"/>
<path d="m31.462 23.231-7.1579 1.3808-0.256 0.2364v-1.8435h7.6515l-0.2376 0.2263z" fill="#606969"/>
<path d="m24.304 24.612 7.1579-1.3808 0.2376-0.2263-0.0012 0.0423c-0.0089 0.73-0.0167 1.3219-0.0232 1.7607l-0.0012 0.0405h-7.6259l0.256-0.2364z" fill="#E3EBF7"/>
<path d="m27.65 21.418-3.3357 0.5365-0.2667 0.2352v-0.9414h3.8049l-0.2025 0.1697z" fill="#606969"/>
<path d="m24.315 21.955 3.3357-0.5365 0.2025-0.1697v0.9414h-3.8049l0.2667-0.2352z" fill="#E3EBF7"/>
<path d="m20.372 24.617 3.4304-0.5877 0.1691-0.1953v0.9402h-3.7555l0.156-0.1572z" fill="#E3EBF7"/>
<path d="m23.802 24.029-3.4304 0.5877-0.156 0.1572v-0.9402h3.7555l-0.1691 0.1953z" fill="#606969"/>
<path d="m24.089 29.09c1.4333-0.2156 4.2718-0.8813 6.3571-1.5172 0.6186-0.1894 0.9318-0.5794 1.073-1.1772h-7.4301v2.6944z" fill="#D4B066"/>
<path d="m24.089 29.088c1.4333-0.2155 4.2718-0.8812 6.3571-1.5172 0.6186-0.1893 0.9318-0.5794 1.073-1.1772h-7.4301v2.6944z" fill="url(#q)"/>
<path d="m20.098 23.046h-3.6811c0.0131 1.0527 0.028 2.0513 0.0394 2.4818h3.6417v-2.4818z" fill="#D91121"/>
<path d="m20.098 23.047h-3.6811c0.0131 1.0528 0.028 2.0513 0.0393 2.4819h3.6418v-2.4819z" fill="url(#p)"/>
<path d="m20.26 25.659v2.6414c1.4427 0.368 2.7915 0.6675 3.6709 0.7973v-3.4387h-3.6709z" fill="#D91121"/>
<path d="m20.26 25.659v2.6414c1.4427 0.368 2.7915 0.6675 3.6709 0.7973v-3.4387h-3.6709z" fill="url(#n)"/>
<path d="m20.102 26.48h-3.5232c0.1 0.3614 0.2698 0.6449 0.5437 0.8455h2.9795v-0.8455z" fill="#003971"/>
<path d="m20.102 26.478h-3.5233c0.1 0.3615 0.2698 0.6449 0.5437 0.8456h2.9796v-0.8456z" fill="url(#m)"/>
<path d="m23.931 21.176h-7.5355c0.0054 0.5282 0.0126 1.1308 0.0203 1.7345h7.5152v-1.7345z" fill="#D4B066"/>
<path d="m23.931 21.174h-7.5354c0.0053 0.5282 0.0125 1.1308 0.0202 1.7346h7.5152v-1.7346z" fill="url(#l)"/>
<path d="m24.09 20.322h3.7216v-2.5751h-3.7216v2.5751z" fill="#D91121"/>
<path d="m27.811 20.32v-2.5754h-3.7216v2.5754h3.7216z" fill="url(#k)"/>
<path d="m23.93 17.747h-8.737l1.1301 1.8501h7.6069v-1.8501z" fill="#D4B066"/>
<path d="m23.93 17.747h-8.737l1.1301 1.8501h7.6069v-1.8501z" fill="url(#j)"/>
<path d="m27.966 22.904h3.6924c0.0113-0.9068 0.0215-1.8244 0.0274-2.4508h-3.7198v2.4508z" fill="#D91121"/>
<path d="m27.966 22.905h3.6924c0.0113-0.9068 0.0214-1.8244 0.0274-2.4508h-3.7198v2.4508z" fill="url(#i)"/>
<path d="m27.966 18.67v0.8116h3.8062l0.4936-0.8116h-4.2998z" fill="#003971"/>
<path d="m27.966 18.671v0.8116h3.8061l0.4937-0.8116h-4.2998z" fill="url(#h)"/>
<path d="m24.09 26.259h7.458c0.0411-0.2179 0.0619-0.4585 0.0703-0.7246 0.0036-0.1423 0.0083-0.3216 0.0119-0.5723h-7.5402v1.2969z" fill="#141314"/>
<path d="m24.089 24.806h7.5438c0.0078-0.4871 0.0166-1.1135 0.0244-1.7607h-7.5682v1.7607z" fill="#D4B066"/>
<path d="m24.089 24.804h7.5438c0.0078-0.487 0.0166-1.1134 0.0244-1.7607h-7.5682v1.7607z" fill="url(#g)"/>
<path d="m20.258 24.732h3.6728v-0.8579h-3.6728v0.8579z" fill="#003971"/>
<path d="m23.931 24.729h-3.6727v-0.8581h3.6727v0.8581z" fill="url(#f)"/>
<path d="m24.09 22.149h3.7216v-0.8594h-3.7216v0.8594z" fill="#003971"/>
<path d="m27.811 22.15h-3.7216v-0.8592h3.7216v0.8592z" fill="url(#e)"/>
<path d="m23.931 19.732h-7.5509c0.0024 0.137 0.0071 0.6419 0.0143 1.3064h7.5366v-1.3064z" fill="#141314"/>
<path d="m31.467 26.44c-0.1537 0.5919-0.474 0.9247-1.0325 1.0956-1.9638 0.5984-4.7571 1.2713-6.3017 1.5083v-2.6039h7.3342z" fill="#D4B066"/>
<path d="m31.467 26.44c-0.1536 0.5919-0.474 0.9247-1.0325 1.0956-1.9638 0.5984-4.7571 1.2713-6.3017 1.5083v-2.6039h7.3342z" fill="url(#c)"/>
<path d="m32.266 18.67h-4.2997v0.8116h0.0601v-0.752h4.2396v-0.0596z" fill="#233B4D"/>
<path d="m27.811 21.29h-3.7216v0.8592h0.0596v-0.8003h3.662v-0.0589z" fill="#233B4D"/>
<path d="m27.811 17.747h-3.7216v2.5753h0.0596v-2.5158h3.662v-0.0595z" fill="#96423A"/>
<path d="m23.931 17.747h-8.737l1.1302 1.85h0.0679l-1.0873-1.7905h8.6262v-0.0595z" fill="#716543"/>
<path d="m23.931 21.178h-7.539l0.0197 1.7345h0.0631l-0.0197-1.6756h7.4759v-0.0589z" fill="#716543"/>
<path d="m20.098 23.046h-3.6852l0.0393 2.4818h0.0685l-0.0405-2.4222h3.6179v-0.0596z" fill="#95473F"/>
<path d="m31.686 20.452h-3.7197v2.4497h0.0601v-2.3901h3.6596v-0.0596z" fill="#96423A"/>
<path d="m23.931 23.874h-3.6727v0.858h0.059v-0.7985h3.6137v-0.0595z" fill="#264865"/>
<path d="m23.934 25.659h-3.674v2.6414l0.0596 0.0173v-2.5998h3.6144v-0.0589z" fill="#95473F"/>
<path d="m31.514 26.398h-7.4247v2.6991h0.0596v-2.6396h7.3651v-0.0595z" fill="#716543"/>
<path d="m31.658 23.046h-7.5682v1.7608h0.0596v-1.7012h7.5086v-0.0596z" fill="#716543"/>
<path d="m16.579 26.482c0.0042 0.0143 9e-3 0.028 0.0131 0.0429l0.0048 0.0166c0.0941 0.3055 0.3061 0.5943 0.5389 0.786h0.0941c-0.2311-0.172-0.4681-0.4638-0.5711-0.786h3.4435v-0.0595h-3.5233z" fill="#264865"/>
<path d="m32.931 17.696c-0.2381 0.4591-0.6466 1.1576-1.1563 1.9638-0.0167 1.762-0.0596 4.7452-0.0828 5.8652-0.025 1.2028-0.3775 1.8495-1.1421 2.0972-0.7413 0.2411-5.0815 1.4052-6.5392 1.5339l0.0363-0.0471c1.6006-0.1816 5.7449-1.3028 6.4851-1.5428 0.7365-0.2394 1.0748-0.8699 1.101-2.0412 0.0232-1.123 0.066-4.1134 0.0809-5.8741l0.0012-0.0077 0.0036-0.0078 1.1385-1.8673 0.0738-0.0721z" fill="#E3EBF7"/>
<path d="m32.931 17.696h-17.834l0.0291 0.0459 1.1975 1.9483c0.0161 1.7256 0.0685 4.6701 0.0941 5.8646 0.025 1.1736 0.3644 1.7816 1.1397 2.0328 0.8181 0.2662 4.8963 1.3916 6.4534 1.5685l0.0036 5e-4 0.0036-5e-4c1.6023-0.1811 5.758-1.3059 6.4993-1.547 0.764-0.2477 1.1165-0.895 1.1415-2.0954 0.0244-1.1224 0.0673-4.105 0.0821-5.8664l1.1618-1.906 0.0285-0.0453zm-1.2498 1.9341v0.0083c-0.0143 1.7601-0.0578 4.7505-0.081 5.8735-0.0256 1.1718-0.365 1.8018-1.1016 2.0406-0.7401 0.2406-4.8838 1.3624-6.4844 1.5434-1.5553-0.1762-5.621-1.2987-6.4392-1.5642-0.7556-0.246-1.0748-0.8188-1.0986-1.9781-0.025-1.1963-0.0786-4.1479-0.0935-5.8723v-9e-3l-0.0047-0.0071-1.1743-1.9096h17.619l-1.1373 1.8673-0.0048 0.0072z" fill="#606E7B"/>
<path d="m37.134 34.372c0.1149 0.115 0.1721 0.2543 0.1721 0.418 0 0.1644-0.0572 0.3049-0.1721 0.421s-0.2542 0.1739-0.418 0.1739c-0.1643 0-0.3037-0.0578-0.418-0.1739s-0.1715-0.2566-0.1715-0.421c0-0.1637 0.0578-0.303 0.1721-0.418 0.1155-0.1161 0.2549-0.1744 0.4174-0.1744 0.1632 0 0.3025 0.0583 0.418 0.1744zm0.0679-0.0667c-0.1334-0.1333-0.2959-0.2-0.4859-0.2-0.1893 0-0.3507 0.0667-0.4835 0.2-0.134 0.134-0.2018 0.2954-0.2018 0.4847 0 0.1906 0.0667 0.3531 0.2 0.4877 0.1334 0.1346 0.2954 0.2013 0.4853 0.2013 0.19 0 0.3525-0.0667 0.4859-0.2013 0.1346-0.1352 0.2013-0.2977 0.2013-0.4877 0-0.1899-0.0667-0.3513-0.2013-0.4847zm-0.3841 0.4526c-0.0279 0.0113-0.0702 0.0167-0.1262 0.0167h-0.1197v-0.2728h0.1132c0.0738 0 0.1268 9e-3 0.1601 0.028 0.0334 0.0185 0.0501 0.0554 0.0501 0.1102 0 0.0577-0.0257 0.0976-0.0775 0.1179zm-0.3787 0.4073h0.1328v-0.2978h0.1042c0.0709 0 0.1203 0.0084 0.1483 0.0245 0.047 0.0273 0.0709 0.0857 0.0709 0.1732v0.0596l0.0029 0.0244c6e-4 0.0036 0.0012 0.0054 0.0024 0.0083 0 0.0024 6e-4 0.0054 0.0018 0.0078h0.1239l-0.0048-0.0096c-3e-3 -0.0065-0.0048-0.019-0.0066-0.0393-0.0012-0.0202-0.0017-0.0387-0.0017-0.0559v-0.0554c0-0.0381-0.0137-0.0768-0.0411-0.1167-0.0268-0.0405-0.0709-0.0649-0.1304-0.0739 0.047-0.0077 0.0833-0.0196 0.1101-0.0369 0.0488-0.0315 0.0739-0.0815 0.0739-0.1488 0-0.0947-0.0393-0.1578-0.1173-0.1906-0.0435-0.0178-0.112-0.0274-0.2061-0.0274h-0.2632v0.7545z" fill="#000"/>
<defs>
<linearGradient id="cc" x1="35.927" x2="35.886" y1="17.076" y2="17.445" gradientUnits="userSpaceOnUse">
<stop stop-color="#A1C1E4" offset="0"/>
<stop stop-color="#CCDCF3" offset="1"/>
</linearGradient>
<linearGradient id="br" x1="29.826" x2="22.327" y1="33.063" y2="31.254" gradientUnits="userSpaceOnUse">
<stop stop-color="#D3E2F5" offset="0"/>
<stop stop-color="#9EBDE2" offset="1"/>
</linearGradient>
<linearGradient id="bg" x1="35.063" x2="35.384" y1="15.334" y2="15.515" gradientUnits="userSpaceOnUse">
<stop stop-color="#415050" offset="0"/>
<stop stop-color="#576162" offset="1"/>
</linearGradient>
<linearGradient id="av" x1="27.026" x2="25.319" y1="16.027" y2="30.493" gradientUnits="userSpaceOnUse">
<stop stop-color="#F6F8FD" offset="0"/>
<stop stop-color="#4B616C" offset="1"/>
</linearGradient>
<linearGradient id="ak" x1="25.086" x2="25.361" y1="14.236" y2="15.134" gradientUnits="userSpaceOnUse">
<stop stop-color="#BECDE1" offset="0"/>
<stop stop-color="#D7E6F7" offset="1"/>
</linearGradient>
<linearGradient id="z" x1="23.095" x2="14.749" y1="31.369" y2="31.369" gradientUnits="userSpaceOnUse">
<stop stop-color="#F4F6FD" offset="0"/>
<stop stop-color="#C9DCF2" offset="1"/>
</linearGradient>
<linearGradient id="o" x1="16.335" x2="16.013" y1="21.373" y2="21.555" gradientUnits="userSpaceOnUse">
<stop stop-color="#415050" offset="0"/>
<stop stop-color="#576162" offset="1"/>
</linearGradient>
<linearGradient id="d" x1="44.689" x2="37.99" y1="16.005" y2="38.204" gradientUnits="userSpaceOnUse">
<stop stop-color="#3C535A" offset="0"/>
<stop stop-color="#87A3C1" offset="1"/>
</linearGradient>
<linearGradient id="b" x1="26.59" x2="23.131" y1="25.194" y2="10.266" gradientUnits="userSpaceOnUse">
<stop stop-color="#C6DAF1" offset="0"/>
<stop stop-color="#84A3C2" offset="1"/>
</linearGradient>
<linearGradient id="a" x1="40.861" x2="22.568" y1="61.419" y2="37.368" gradientUnits="userSpaceOnUse">
<stop stop-color="#fff" offset="0"/>
<stop stop-color="#C6DAF1" offset="1"/>
</linearGradient>
<linearGradient id="cb" x1="24.454" x2="35.391" y1="6.3917" y2="31.487" gradientUnits="userSpaceOnUse">
<stop stop-color="#7093AE" offset="0"/>
<stop stop-color="#F6F8FD" offset="1"/>
</linearGradient>
<linearGradient id="ca" x1="25.287" x2="27.196" y1="9.749" y2="34.186" gradientUnits="userSpaceOnUse">
<stop stop-color="#3C535A" offset="0"/>
<stop stop-color="#8AAACA" offset="1"/>
</linearGradient>
<linearGradient id="bz" x1="32.714" x2="33.182" y1="8.181" y2="8.6787" gradientUnits="userSpaceOnUse">
<stop stop-color="#232E30" offset="0"/>
<stop stop-color="#7F919D" offset="1"/>
</linearGradient>
<linearGradient id="by" x1="30.783" x2="35.398" y1="6.2202" y2="8.8743" gradientUnits="userSpaceOnUse">
<stop stop-color="#7093AE" offset="0"/>
<stop stop-color="#F6F8FD" offset="1"/>
</linearGradient>
<linearGradient id="bx" x1="34.57" x2="37.126" y1="7.8531" y2="10.418" gradientUnits="userSpaceOnUse">
<stop stop-color="#232E30" offset="0"/>
<stop stop-color="#7F919D" offset="1"/>
</linearGradient>
<linearGradient id="bw" x1="35.912" x2="33.495" y1="17.947" y2="16.679" gradientUnits="userSpaceOnUse">
<stop stop-color="#9CB3CF" offset="0"/>
<stop stop-color="#F1F5FC" offset="1"/>
</linearGradient>
<linearGradient id="bv" x1="32.156" x2="31.77" y1="15.523" y2="14.424" gradientUnits="userSpaceOnUse">
<stop stop-color="#232E30" offset="0"/>
<stop stop-color="#7F919D" offset="1"/>
</linearGradient>
<linearGradient id="bu" x1="39.167" x2="39.345" y1="13.434" y2="14.385" gradientUnits="userSpaceOnUse">
<stop stop-color="#9CB3CF" offset="0"/>
<stop stop-color="#F1F5FC" offset="1"/>
</linearGradient>
<linearGradient id="bt" x1="34.086" x2="34.384" y1="16.383" y2="15.937" gradientUnits="userSpaceOnUse">
<stop stop-color="#9CB3CF" offset="0"/>
<stop stop-color="#F1F5FC" offset="1"/>
</linearGradient>
<linearGradient id="bs" x1="39.73" x2="39.864" y1="16.874" y2="17.766" gradientUnits="userSpaceOnUse">
<stop stop-color="#232E30" offset="0"/>
<stop stop-color="#7F919D" offset="1"/>
</linearGradient>
<linearGradient id="bq" x1="36.444" x2="36.834" y1="22.825" y2="20.794" gradientUnits="userSpaceOnUse">
<stop stop-color="#9CB3CF" offset="0"/>
<stop stop-color="#F1F5FC" offset="1"/>
</linearGradient>
<linearGradient id="bp" x1="39.042" x2="38.596" y1="24.483" y2="24.468" gradientUnits="userSpaceOnUse">
<stop stop-color="#232E30" offset="0"/>
<stop stop-color="#7F919D" offset="1"/>
</linearGradient>
<linearGradient id="bo" x1="35.864" x2="35.619" y1="26.353" y2="22.304" gradientUnits="userSpaceOnUse">
<stop stop-color="#9CB3CF" offset="0"/>
<stop stop-color="#F1F5FC" offset="1"/>
</linearGradient>
<linearGradient id="bn" x1="39.977" x2="40.228" y1="22.04" y2="26.178" gradientUnits="userSpaceOnUse">
<stop stop-color="#232E30" offset="0"/>
<stop stop-color="#7F919D" offset="1"/>
</linearGradient>
<linearGradient id="bm" x1="33.758" x2="35.541" y1="26.16" y2="24.484" gradientUnits="userSpaceOnUse">
<stop stop-color="#9CB3CF" offset="0"/>
<stop stop-color="#F1F5FC" offset="1"/>
</linearGradient>
<linearGradient id="bl" x1="39.185" x2="37.521" y1="30.525" y2="30.718" gradientUnits="userSpaceOnUse">
<stop stop-color="#232E30" offset="0"/>
<stop stop-color="#7F919D" offset="1"/>
</linearGradient>
<linearGradient id="bk" x1="35.269" x2="34.779" y1="32.162" y2="31.998" gradientUnits="userSpaceOnUse">
<stop stop-color="#9CB3CF" offset="0"/>
<stop stop-color="#F1F5FC" offset="1"/>
</linearGradient>
<linearGradient id="bj" x1="35.116" x2="34.759" y1="32.076" y2="31.972" gradientUnits="userSpaceOnUse">
<stop stop-color="#232E30" offset="0"/>
<stop stop-color="#7F919D" offset="1"/>
</linearGradient>
<linearGradient id="bi" x1="31.5" x2="31.054" y1="35.785" y2="35.532" gradientUnits="userSpaceOnUse">
<stop stop-color="#9CB3CF" offset="0"/>
<stop stop-color="#F1F5FC" offset="1"/>
</linearGradient>
<linearGradient id="bh" x1="31.534" x2="30.886" y1="35.557" y2="35.327" gradientUnits="userSpaceOnUse">
<stop stop-color="#232E30" offset="0"/>
<stop stop-color="#7F919D" offset="1"/>
</linearGradient>
<linearGradient id="bf" x1="34.08" x2="35.476" y1="29.381" y2="29.559" gradientUnits="userSpaceOnUse">
<stop stop-color="#9CB3CF" offset="0"/>
<stop stop-color="#F1F5FC" offset="1"/>
</linearGradient>
<linearGradient id="be" x1="26.139" x2="25.846" y1="37.769" y2="37.507" gradientUnits="userSpaceOnUse">
<stop stop-color="#9CB3CF" offset="0"/>
<stop stop-color="#F1F5FC" offset="1"/>
</linearGradient>
<linearGradient id="bd" x1="25.621" x2="25.265" y1="37.338" y2="36.968" gradientUnits="userSpaceOnUse">
<stop stop-color="#232E30" offset="0"/>
<stop stop-color="#7F919D" offset="1"/>
</linearGradient>
<linearGradient id="bc" x1="28.494" x2="30.774" y1="33.422" y2="33.281" gradientUnits="userSpaceOnUse">
<stop stop-color="#9CB3CF" offset="0"/>
<stop stop-color="#F1F5FC" offset="1"/>
</linearGradient>
<linearGradient id="bb" x1="27.309" x2="27.216" y1="35.719" y2="35.008" gradientUnits="userSpaceOnUse">
<stop stop-color="#232E30" offset="0"/>
<stop stop-color="#7F919D" offset="1"/>
</linearGradient>
<linearGradient id="ba" x1="24.473" x2="26.37" y1="34.037" y2="34.35" gradientUnits="userSpaceOnUse">
<stop stop-color="#9CB3CF" offset="0"/>
<stop stop-color="#F1F5FC" offset="1"/>
</linearGradient>
<linearGradient id="az" x1="22.728" x2="22.774" y1="35.884" y2="35.636" gradientUnits="userSpaceOnUse">
<stop stop-color="#232E30" offset="0"/>
<stop stop-color="#7F919D" offset="1"/>
</linearGradient>
<linearGradient id="ay" x1="36.479" x2="33.91" y1="34.708" y2="35.52" gradientUnits="userSpaceOnUse">
<stop stop-color="#232E30" offset="0"/>
<stop stop-color="#7F919D" offset="1"/>
</linearGradient>
<linearGradient id="ax" x1="34.701" x2="34.463" y1="16.533" y2="15.419" gradientUnits="userSpaceOnUse">
<stop stop-color="#232E30" offset="0"/>
<stop stop-color="#7F919D" offset="1"/>
</linearGradient>
<radialGradient id="aw" cx="0" cy="0" r="1" gradientTransform="translate(17.201 8.8347) scale(1.9974)" gradientUnits="userSpaceOnUse">
<stop stop-color="#7F9FBD" offset="0"/>
<stop stop-color="#F1F5FC" offset="1"/>
</radialGradient>
<linearGradient id="au" x1="19.59" x2="18.64" y1="12.794" y2="13.21" gradientUnits="userSpaceOnUse">
<stop stop-color="#232E30" offset="0"/>
<stop stop-color="#7F919D" offset="1"/>
</linearGradient>
<linearGradient id="at" x1="18.347" x2="15.743" y1="12.905" y2="15.358" gradientUnits="userSpaceOnUse">
<stop stop-color="#232E30" offset="0"/>
<stop stop-color="#7F919D" offset="1"/>
</linearGradient>
<linearGradient id="as" x1="12.804" x2="12.514" y1="14.552" y2="14.336" gradientUnits="userSpaceOnUse">
<stop stop-color="#587089" offset="0"/>
<stop stop-color="#E0ECF9" offset="1"/>
</linearGradient>
<radialGradient id="ar" cx="0" cy="0" r="1" gradientTransform="translate(12.209 12.616) scale(2.0842 2.0843)" gradientUnits="userSpaceOnUse">
<stop stop-color="#7F9FBD" offset="0"/>
<stop stop-color="#F1F5FC" offset="1"/>
</radialGradient>
<linearGradient id="aq" x1="10.328" x2="10.105" y1="15.805" y2="15.493" gradientUnits="userSpaceOnUse">
<stop stop-color="#232E30" offset="0"/>
<stop stop-color="#7F919D" offset="1"/>
</linearGradient>
<linearGradient id="ap" x1="11.781" x2="12.18" y1="11.848" y2="11.998" gradientUnits="userSpaceOnUse">
<stop stop-color="#9CB3CF" offset="0"/>
<stop stop-color="#F1F5FC" offset="1"/>
</linearGradient>
<linearGradient id="ao" x1="12.008" x2="12.384" y1="11.939" y2="12.078" gradientUnits="userSpaceOnUse">
<stop stop-color="#232E30" offset="0"/>
<stop stop-color="#7F919D" offset="1"/>
</linearGradient>
<radialGradient id="an" cx="0" cy="0" r="1" gradientTransform="translate(9.4179 16.44) scale(2.303 2.303)" gradientUnits="userSpaceOnUse">
<stop stop-color="#7F9FBD" offset="0"/>
<stop stop-color="#F1F5FC" offset="1"/>
</radialGradient>
<linearGradient id="am" x1="12.107" x2="11.215" y1="20.996" y2="21.293" gradientUnits="userSpaceOnUse">
<stop stop-color="#232E30" offset="0"/>
<stop stop-color="#7F919D" offset="1"/>
</linearGradient>
<linearGradient id="al" x1="8.6882" x2="9.1236" y1="17.769" y2="17.74" gradientUnits="userSpaceOnUse">
<stop stop-color="#232E30" offset="0"/>
<stop stop-color="#7F919D" offset="1"/>
</linearGradient>
<radialGradient id="aj" cx="0" cy="0" r="1" gradientTransform="translate(8.9897 24.111) scale(2.0524 2.0525)" gradientUnits="userSpaceOnUse">
<stop stop-color="#7F9FBD" offset="0"/>
<stop stop-color="#F1F5FC" offset="1"/>
</radialGradient>
<linearGradient id="ai" x1="10.425" x2="9.9492" y1="27.562" y2="27.582" gradientUnits="userSpaceOnUse">
<stop stop-color="#232E30" offset="0"/>
<stop stop-color="#7F919D" offset="1"/>
</linearGradient>
<linearGradient id="ah" x1="12.51" x2="12.272" y1="30.453" y2="30.661" gradientUnits="userSpaceOnUse">
<stop stop-color="#9CB3CF" offset="0"/>
<stop stop-color="#F1F5FC" offset="1"/>
</linearGradient>
<linearGradient id="ag" x1="12.511" x2="12.075" y1="32.047" y2="32.126" gradientUnits="userSpaceOnUse">
<stop stop-color="#232E30" offset="0"/>
<stop stop-color="#7F919D" offset="1"/>
</linearGradient>
<radialGradient id="af" cx="0" cy="0" r="1" gradientTransform="translate(10.422 29.211) scale(2.1679 2.168)" gradientUnits="userSpaceOnUse">
<stop stop-color="#7F9FBD" offset="0"/>
<stop stop-color="#F1F5FC" offset="1"/>
</radialGradient>
<linearGradient id="ae" x1="17.346" x2="16.93" y1="35.356" y2="35.654" gradientUnits="userSpaceOnUse">
<stop stop-color="#232E30" offset="0"/>
<stop stop-color="#7F919D" offset="1"/>
</linearGradient>
<radialGradient id="ad" cx="0" cy="0" r="1" gradientTransform="translate(13.213 33.517) scale(2.8936 2.8936)" gradientUnits="userSpaceOnUse">
<stop stop-color="#7F9FBD" offset="0"/>
<stop stop-color="#F1F5FC" offset="1"/>
</radialGradient>
<linearGradient id="ac" x1="16.111" x2="16.527" y1="29.945" y2="31.698" gradientUnits="userSpaceOnUse">
<stop stop-color="#9CB3CF" offset="0"/>
<stop stop-color="#F1F5FC" offset="1"/>
</linearGradient>
<linearGradient id="ab" x1="9.653" x2="9.8709" y1="30.892" y2="30.318" gradientUnits="userSpaceOnUse">
<stop stop-color="#232E30" offset="0"/>
<stop stop-color="#7F919D" offset="1"/>
</linearGradient>
<linearGradient id="aa" x1="21.058" x2="23.371" y1="31.258" y2="32.634" gradientUnits="userSpaceOnUse">
<stop stop-color="#232E30" offset="0"/>
<stop stop-color="#7F919D" offset="1"/>
</linearGradient>
<radialGradient id="y" cx="0" cy="0" r="1" gradientTransform="translate(19.128 35.251) scale(1.2093 1.2093)" gradientUnits="userSpaceOnUse">
<stop stop-color="#7F9FBD" offset="0"/>
<stop stop-color="#F1F5FC" offset="1"/>
</radialGradient>
<linearGradient id="x" x1="20.704" x2="20.644" y1="34.717" y2="35.742" gradientUnits="userSpaceOnUse">
<stop stop-color="#9CB3CF" offset="0"/>
<stop stop-color="#F1F5FC" offset="1"/>
</linearGradient>
<linearGradient id="w" x1="13.812" x2="13.857" y1="35.049" y2="34.41" gradientUnits="userSpaceOnUse">
<stop stop-color="#232E30" offset="0"/>
<stop stop-color="#7F919D" offset="1"/>
</linearGradient>
<linearGradient id="v" x1="25.206" x2="25.25" y1="36.134" y2="36.669" gradientUnits="userSpaceOnUse">
<stop stop-color="#9CB3CF" offset="0"/>
<stop stop-color="#F1F5FC" offset="1"/>
</linearGradient>
<linearGradient id="u" x1="17.858" x2="17.784" y1="37.055" y2="36.312" gradientUnits="userSpaceOnUse">
<stop stop-color="#232E30" offset="0"/>
<stop stop-color="#7F919D" offset="1"/>
</linearGradient>
<linearGradient id="t" x1="7.5795" x2="7.9162" y1="24.592" y2="24.335" gradientUnits="userSpaceOnUse">
<stop stop-color="#232E30" offset="0"/>
<stop stop-color="#7F919D" offset="1"/>
</linearGradient>
<linearGradient id="s" x1="29.821" x2="22.322" y1="33.089" y2="31.28" gradientUnits="userSpaceOnUse">
<stop stop-color="#D3E2F5" offset="0"/>
<stop stop-color="#748A9B" offset="1"/>
</linearGradient>
<linearGradient id="r" x1="36.959" x2="22.386" y1="28.905" y2="35.864" gradientUnits="userSpaceOnUse">
<stop stop-color="#BCD0ED" offset="0"/>
<stop stop-color="#C7D9EF" offset="1"/>
</linearGradient>
<linearGradient id="q" x1="27.853" x2="36.261" y1="25.203" y2="25.203" gradientUnits="userSpaceOnUse">
<stop stop-color="#D4B066" offset="0"/>
<stop stop-color="#E7CC8F" offset="1"/>
</linearGradient>
<linearGradient id="p" x1="16.228" x2="23.697" y1="21.856" y2="21.856" gradientUnits="userSpaceOnUse">
<stop stop-color="#D91121" offset="0"/>
<stop stop-color="#DC7866" offset="1"/>
</linearGradient>
<linearGradient id="n" x1="20.26" x2="23.81" y1="24.468" y2="24.468" gradientUnits="userSpaceOnUse">
<stop stop-color="#D91121" offset="0"/>
<stop stop-color="#DC7866" offset="1"/>
</linearGradient>
<linearGradient id="m" x1="16.189" x2="23.65" y1="25.288" y2="25.288" gradientUnits="userSpaceOnUse">
<stop stop-color="#003971" offset="0"/>
<stop stop-color="#5687C0" offset="1"/>
</linearGradient>
<linearGradient id="l" x1="16.166" x2="23.702" y1="19.983" y2="19.983" gradientUnits="userSpaceOnUse">
<stop stop-color="#D4B066" offset="0"/>
<stop stop-color="#E7CC8F" offset="1"/>
</linearGradient>
<linearGradient id="k" x1="26.237" x2="41.668" y1="16.554" y2="16.554" gradientUnits="userSpaceOnUse">
<stop stop-color="#D91121" offset="0"/>
<stop stop-color="#DC7866" offset="1"/>
</linearGradient>
<linearGradient id="j" x1="14.965" x2="23.702" y1="16.556" y2="16.556" gradientUnits="userSpaceOnUse">
<stop stop-color="#D4B066" offset="0"/>
<stop stop-color="#E7CC8F" offset="1"/>
</linearGradient>
<linearGradient id="i" x1="26.237" x2="41.664" y1="19.264" y2="19.264" gradientUnits="userSpaceOnUse">
<stop stop-color="#D91121" offset="0"/>
<stop stop-color="#DC7866" offset="1"/>
</linearGradient>
<linearGradient id="h" x1="26.745" x2="37.924" y1="17.48" y2="17.48" gradientUnits="userSpaceOnUse">
<stop stop-color="#003971" offset="0"/>
<stop stop-color="#5687C0" offset="1"/>
</linearGradient>
<linearGradient id="g" x1="27.854" x2="36.262" y1="21.853" y2="21.853" gradientUnits="userSpaceOnUse">
<stop stop-color="#D4B066" offset="0"/>
<stop stop-color="#E7CC8F" offset="1"/>
</linearGradient>
<linearGradient id="f" x1="16.19" x2="23.651" y1="22.68" y2="22.68" gradientUnits="userSpaceOnUse">
<stop stop-color="#003971" offset="0"/>
<stop stop-color="#5687C0" offset="1"/>
</linearGradient>
<linearGradient id="e" x1="26.745" x2="37.926" y1="20.099" y2="20.099" gradientUnits="userSpaceOnUse">
<stop stop-color="#003971" offset="0"/>
<stop stop-color="#5687C0" offset="1"/>
</linearGradient>
<linearGradient id="c" x1="27.855" x2="36.263" y1="25.249" y2="25.249" gradientUnits="userSpaceOnUse">
<stop stop-color="#D4B066" offset="0"/>
<stop stop-color="#E7CC8F" offset="1"/>
</linearGradient>
</defs>
</svg>
